# MagicaVoxel @ Ephtracy

# group
o 

# material
mtllib arrow-2.mtl
usemtl palette

# normals
vn -1 0 0
vn 1 0 0
vn 0 0 1
vn 0 0 -1
vn 0 -1 0
vn 0 1 0

# texcoords
vt 0.958984 0.5
vt 0.966797 0.5
vt 0.994141 0.5

# verts
v -3.2 4.4 -0.2
v -3.2 4.4 -0.4
v -3.2 4.5 -0.2
v -3.2 4.5 -0.4
v -3.1 4.4 -0.4
v -3.1 4.4 -0.5
v -3.1 4.5 -0.4
v -3.1 4.5 -0.5
v -3 4.4 -0.5
v -3 4.4 -0.6
v -3 4.5 -0.5
v -3 4.5 -0.6
v -2.9 4.4 -0.6
v -2.9 4.4 -0.7
v -2.9 4.5 -0.6
v -2.9 4.5 -0.7
v -2.8 4.4 1.7
v -2.8 4.4 -0.2
v -2.8 4.4 -0.7
v -2.8 4.4 -0.8
v -2.8 4.5 1.7
v -2.8 4.5 -0.2
v -2.8 4.5 -0.7
v -2.8 4.5 -0.8
v -2.7 4.4 -0.8
v -2.7 4.4 -0.9
v -2.7 4.5 -0.8
v -2.7 4.5 -0.9
v -2.6 4.4 -0.9
v -2.6 4.4 -1
v -2.6 4.5 -0.9
v -2.6 4.5 -1
v -2.5 4.4 -1
v -2.5 4.4 -1.1
v -2.5 4.5 -1
v -2.5 4.5 -1.1
v -2.4 4.4 -1.1
v -2.4 4.4 -1.2
v -2.4 4.5 -1.1
v -2.4 4.5 -1.2
v -2.3 4.4 -1.2
v -2.3 4.4 -1.3
v -2.3 4.5 -1.2
v -2.3 4.5 -1.3
v -2.2 4.4 -1.2
v -2.2 4.4 -1.3
v -2.2 4.5 -1.2
v -2.2 4.5 -1.3
v -2.1 4.4 -1.1
v -2.1 4.4 -1.2
v -2.1 4.5 -1.1
v -2.1 4.5 -1.2
v -2 4.4 -1
v -2 4.4 -1.1
v -2 4.5 -1
v -2 4.5 -1.1
v -1.9 4.4 -0.9
v -1.9 4.4 -1
v -1.9 4.5 -0.9
v -1.9 4.5 -1
v -1.8 4.4 -0.8
v -1.8 4.4 -0.9
v -1.8 4.5 -0.8
v -1.8 4.5 -0.9
v -1.7 4.4 1.7
v -1.7 4.4 -0.2
v -1.7 4.4 -0.7
v -1.7 4.4 -0.8
v -1.7 4.5 1.7
v -1.7 4.5 -0.2
v -1.7 4.5 -0.7
v -1.7 4.5 -0.8
v -1.6 4.4 -0.6
v -1.6 4.4 -0.7
v -1.6 4.5 -0.6
v -1.6 4.5 -0.7
v -1.5 4.4 -0.5
v -1.5 4.4 -0.6
v -1.5 4.5 -0.5
v -1.5 4.5 -0.6
v -1.4 4.4 -0.4
v -1.4 4.4 -0.5
v -1.4 4.5 -0.4
v -1.4 4.5 -0.5
v -1.3 4.4 -0.2
v -1.3 4.4 -0.4
v -1.3 4.5 -0.2
v -1.3 4.5 -0.4
v -2.8 4.4 1.7
v -2.8 4.5 1.7
v -1.7 4.4 1.7
v -1.7 4.5 1.7
v -3.2 4.4 -0.2
v -3.2 4.5 -0.2
v -2.8 4.4 -0.2
v -2.8 4.5 -0.2
v -1.7 4.4 -0.2
v -1.7 4.5 -0.2
v -1.3 4.4 -0.2
v -1.3 4.5 -0.2
v -3.2 4.4 -0.4
v -3.2 4.5 -0.4
v -3.1 4.4 -0.4
v -3.1 4.5 -0.4
v -1.4 4.4 -0.4
v -1.4 4.5 -0.4
v -1.3 4.4 -0.4
v -1.3 4.5 -0.4
v -3.1 4.4 -0.5
v -3.1 4.5 -0.5
v -3 4.4 -0.5
v -3 4.5 -0.5
v -1.5 4.4 -0.5
v -1.5 4.5 -0.5
v -1.4 4.4 -0.5
v -1.4 4.5 -0.5
v -3 4.4 -0.6
v -3 4.5 -0.6
v -2.9 4.4 -0.6
v -2.9 4.5 -0.6
v -1.6 4.4 -0.6
v -1.6 4.5 -0.6
v -1.5 4.4 -0.6
v -1.5 4.5 -0.6
v -2.9 4.4 -0.7
v -2.9 4.5 -0.7
v -2.8 4.4 -0.7
v -2.8 4.5 -0.7
v -1.7 4.4 -0.7
v -1.7 4.5 -0.7
v -1.6 4.4 -0.7
v -1.6 4.5 -0.7
v -2.8 4.4 -0.8
v -2.8 4.5 -0.8
v -2.7 4.4 -0.8
v -2.7 4.5 -0.8
v -1.8 4.4 -0.8
v -1.8 4.5 -0.8
v -1.7 4.4 -0.8
v -1.7 4.5 -0.8
v -2.7 4.4 -0.9
v -2.7 4.5 -0.9
v -2.6 4.4 -0.9
v -2.6 4.5 -0.9
v -1.9 4.4 -0.9
v -1.9 4.5 -0.9
v -1.8 4.4 -0.9
v -1.8 4.5 -0.9
v -2.6 4.4 -1
v -2.6 4.5 -1
v -2.5 4.4 -1
v -2.5 4.5 -1
v -2 4.4 -1
v -2 4.5 -1
v -1.9 4.4 -1
v -1.9 4.5 -1
v -2.5 4.4 -1.1
v -2.5 4.5 -1.1
v -2.4 4.4 -1.1
v -2.4 4.5 -1.1
v -2.1 4.4 -1.1
v -2.1 4.5 -1.1
v -2 4.4 -1.1
v -2 4.5 -1.1
v -2.4 4.4 -1.2
v -2.4 4.5 -1.2
v -2.3 4.4 -1.2
v -2.3 4.5 -1.2
v -2.2 4.4 -1.2
v -2.2 4.5 -1.2
v -2.1 4.4 -1.2
v -2.1 4.5 -1.2
v -2.3 4.4 -1.3
v -2.3 4.5 -1.3
v -2.2 4.4 -1.3
v -2.2 4.5 -1.3
v -2.8 4.4 1.7
v -1.7 4.4 1.7
v -2.7 4.4 1.6
v -1.8 4.4 1.6
v -2.6 4.4 1.5
v -1.9 4.4 1.5
v -2.6 4.4 1.4
v -2 4.4 1.4
v -2 4.4 1.2
v -1.9 4.4 1.2
v -3.2 4.4 -0.2
v -2.8 4.4 -0.2
v -1.7 4.4 -0.2
v -1.3 4.4 -0.2
v -3.1 4.4 -0.3
v -2.9 4.4 -0.3
v -2.7 4.4 -0.3
v -1.8 4.4 -0.3
v -1.6 4.4 -0.3
v -1.4 4.4 -0.3
v -3.2 4.4 -0.4
v -3.1 4.4 -0.4
v -3 4.4 -0.4
v -2.9 4.4 -0.4
v -2.8 4.4 -0.4
v -1.7 4.4 -0.4
v -1.6 4.4 -0.4
v -1.5 4.4 -0.4
v -1.4 4.4 -0.4
v -1.3 4.4 -0.4
v -3.1 4.4 -0.5
v -3 4.4 -0.5
v -2.9 4.4 -0.5
v -2.8 4.4 -0.5
v -2.7 4.4 -0.5
v -1.8 4.4 -0.5
v -1.7 4.4 -0.5
v -1.6 4.4 -0.5
v -1.5 4.4 -0.5
v -1.4 4.4 -0.5
v -3 4.4 -0.6
v -2.9 4.4 -0.6
v -2.8 4.4 -0.6
v -2.7 4.4 -0.6
v -2.6 4.4 -0.6
v -1.9 4.4 -0.6
v -1.8 4.4 -0.6
v -1.7 4.4 -0.6
v -1.6 4.4 -0.6
v -1.5 4.4 -0.6
v -2.9 4.4 -0.7
v -2.8 4.4 -0.7
v -2.7 4.4 -0.7
v -2.6 4.4 -0.7
v -2.5 4.4 -0.7
v -2 4.4 -0.7
v -1.9 4.4 -0.7
v -1.8 4.4 -0.7
v -1.7 4.4 -0.7
v -1.6 4.4 -0.7
v -2.8 4.4 -0.8
v -2.7 4.4 -0.8
v -2.6 4.4 -0.8
v -2.5 4.4 -0.8
v -2.4 4.4 -0.8
v -2.1 4.4 -0.8
v -2 4.4 -0.8
v -1.9 4.4 -0.8
v -1.8 4.4 -0.8
v -1.7 4.4 -0.8
v -2.7 4.4 -0.9
v -2.6 4.4 -0.9
v -2.5 4.4 -0.9
v -2.4 4.4 -0.9
v -2.3 4.4 -0.9
v -2.2 4.4 -0.9
v -2.1 4.4 -0.9
v -2 4.4 -0.9
v -1.9 4.4 -0.9
v -1.8 4.4 -0.9
v -2.6 4.4 -1
v -2.5 4.4 -1
v -2.4 4.4 -1
v -2.3 4.4 -1
v -2.2 4.4 -1
v -2.1 4.4 -1
v -2 4.4 -1
v -1.9 4.4 -1
v -2.5 4.4 -1.1
v -2.4 4.4 -1.1
v -2.3 4.4 -1.1
v -2.2 4.4 -1.1
v -2.1 4.4 -1.1
v -2 4.4 -1.1
v -2.4 4.4 -1.2
v -2.3 4.4 -1.2
v -2.2 4.4 -1.2
v -2.1 4.4 -1.2
v -2.3 4.4 -1.3
v -2.2 4.4 -1.3
v -2.8 4.5 1.7
v -1.7 4.5 1.7
v -2.7 4.5 1.6
v -1.8 4.5 1.6
v -2.6 4.5 1.5
v -1.9 4.5 1.5
v -2.6 4.5 1.4
v -2 4.5 1.4
v -2 4.5 1.2
v -1.9 4.5 1.2
v -3.2 4.5 -0.2
v -2.8 4.5 -0.2
v -1.7 4.5 -0.2
v -1.3 4.5 -0.2
v -3.1 4.5 -0.3
v -2.9 4.5 -0.3
v -2.7 4.5 -0.3
v -1.8 4.5 -0.3
v -1.6 4.5 -0.3
v -1.4 4.5 -0.3
v -3.2 4.5 -0.4
v -3.1 4.5 -0.4
v -3 4.5 -0.4
v -2.9 4.5 -0.4
v -2.8 4.5 -0.4
v -1.7 4.5 -0.4
v -1.6 4.5 -0.4
v -1.5 4.5 -0.4
v -1.4 4.5 -0.4
v -1.3 4.5 -0.4
v -3.1 4.5 -0.5
v -3 4.5 -0.5
v -2.9 4.5 -0.5
v -2.8 4.5 -0.5
v -2.7 4.5 -0.5
v -1.8 4.5 -0.5
v -1.7 4.5 -0.5
v -1.6 4.5 -0.5
v -1.5 4.5 -0.5
v -1.4 4.5 -0.5
v -3 4.5 -0.6
v -2.9 4.5 -0.6
v -2.8 4.5 -0.6
v -2.7 4.5 -0.6
v -2.6 4.5 -0.6
v -1.9 4.5 -0.6
v -1.8 4.5 -0.6
v -1.7 4.5 -0.6
v -1.6 4.5 -0.6
v -1.5 4.5 -0.6
v -2.9 4.5 -0.7
v -2.8 4.5 -0.7
v -2.7 4.5 -0.7
v -2.6 4.5 -0.7
v -2.5 4.5 -0.7
v -2 4.5 -0.7
v -1.9 4.5 -0.7
v -1.8 4.5 -0.7
v -1.7 4.5 -0.7
v -1.6 4.5 -0.7
v -2.8 4.5 -0.8
v -2.7 4.5 -0.8
v -2.6 4.5 -0.8
v -2.5 4.5 -0.8
v -2.4 4.5 -0.8
v -2.1 4.5 -0.8
v -2 4.5 -0.8
v -1.9 4.5 -0.8
v -1.8 4.5 -0.8
v -1.7 4.5 -0.8
v -2.7 4.5 -0.9
v -2.6 4.5 -0.9
v -2.5 4.5 -0.9
v -2.4 4.5 -0.9
v -2.3 4.5 -0.9
v -2.2 4.5 -0.9
v -2.1 4.5 -0.9
v -2 4.5 -0.9
v -1.9 4.5 -0.9
v -1.8 4.5 -0.9
v -2.6 4.5 -1
v -2.5 4.5 -1
v -2.4 4.5 -1
v -2.3 4.5 -1
v -2.2 4.5 -1
v -2.1 4.5 -1
v -2 4.5 -1
v -1.9 4.5 -1
v -2.5 4.5 -1.1
v -2.4 4.5 -1.1
v -2.3 4.5 -1.1
v -2.2 4.5 -1.1
v -2.1 4.5 -1.1
v -2 4.5 -1.1
v -2.4 4.5 -1.2
v -2.3 4.5 -1.2
v -2.2 4.5 -1.2
v -2.1 4.5 -1.2
v -2.3 4.5 -1.3
v -2.2 4.5 -1.3

# faces
f 3/3/1 2/3/1 1/3/1
f 4/3/1 2/3/1 3/3/1
f 7/3/1 6/3/1 5/3/1
f 8/3/1 6/3/1 7/3/1
f 11/3/1 10/3/1 9/3/1
f 12/3/1 10/3/1 11/3/1
f 15/3/1 14/3/1 13/3/1
f 16/3/1 14/3/1 15/3/1
f 21/3/1 18/3/1 17/3/1
f 22/3/1 18/3/1 21/3/1
f 23/3/1 20/3/1 19/3/1
f 24/3/1 20/3/1 23/3/1
f 27/3/1 26/3/1 25/3/1
f 28/3/1 26/3/1 27/3/1
f 31/3/1 30/3/1 29/3/1
f 32/3/1 30/3/1 31/3/1
f 35/3/1 34/3/1 33/3/1
f 36/3/1 34/3/1 35/3/1
f 39/3/1 38/3/1 37/3/1
f 40/3/1 38/3/1 39/3/1
f 43/3/1 42/3/1 41/3/1
f 44/3/1 42/3/1 43/3/1
f 45/3/2 46/3/2 47/3/2
f 47/3/2 46/3/2 48/3/2
f 49/3/2 50/3/2 51/3/2
f 51/3/2 50/3/2 52/3/2
f 53/3/2 54/3/2 55/3/2
f 55/3/2 54/3/2 56/3/2
f 57/3/2 58/3/2 59/3/2
f 59/3/2 58/3/2 60/3/2
f 61/3/2 62/3/2 63/3/2
f 63/3/2 62/3/2 64/3/2
f 65/3/2 66/3/2 69/3/2
f 69/3/2 66/3/2 70/3/2
f 67/3/2 68/3/2 71/3/2
f 71/3/2 68/3/2 72/3/2
f 73/3/2 74/3/2 75/3/2
f 75/3/2 74/3/2 76/3/2
f 77/3/2 78/3/2 79/3/2
f 79/3/2 78/3/2 80/3/2
f 81/3/2 82/3/2 83/3/2
f 83/3/2 82/3/2 84/3/2
f 85/3/2 86/3/2 87/3/2
f 87/3/2 86/3/2 88/3/2
f 91/3/3 90/3/3 89/3/3
f 92/3/3 90/3/3 91/3/3
f 95/3/3 94/3/3 93/3/3
f 96/3/3 94/3/3 95/3/3
f 99/3/3 98/3/3 97/3/3
f 100/3/3 98/3/3 99/3/3
f 101/3/4 102/3/4 103/3/4
f 103/3/4 102/3/4 104/3/4
f 105/3/4 106/3/4 107/3/4
f 107/3/4 106/3/4 108/3/4
f 109/3/4 110/3/4 111/3/4
f 111/3/4 110/3/4 112/3/4
f 113/3/4 114/3/4 115/3/4
f 115/3/4 114/3/4 116/3/4
f 117/3/4 118/3/4 119/3/4
f 119/3/4 118/3/4 120/3/4
f 121/3/4 122/3/4 123/3/4
f 123/3/4 122/3/4 124/3/4
f 125/3/4 126/3/4 127/3/4
f 127/3/4 126/3/4 128/3/4
f 129/3/4 130/3/4 131/3/4
f 131/3/4 130/3/4 132/3/4
f 133/3/4 134/3/4 135/3/4
f 135/3/4 134/3/4 136/3/4
f 137/3/4 138/3/4 139/3/4
f 139/3/4 138/3/4 140/3/4
f 141/3/4 142/3/4 143/3/4
f 143/3/4 142/3/4 144/3/4
f 145/3/4 146/3/4 147/3/4
f 147/3/4 146/3/4 148/3/4
f 149/3/4 150/3/4 151/3/4
f 151/3/4 150/3/4 152/3/4
f 153/3/4 154/3/4 155/3/4
f 155/3/4 154/3/4 156/3/4
f 157/3/4 158/3/4 159/3/4
f 159/3/4 158/3/4 160/3/4
f 161/3/4 162/3/4 163/3/4
f 163/3/4 162/3/4 164/3/4
f 165/3/4 166/3/4 167/3/4
f 167/3/4 166/3/4 168/3/4
f 169/3/4 170/3/4 171/3/4
f 171/3/4 170/3/4 172/3/4
f 173/3/4 174/3/4 175/3/4
f 175/3/4 174/3/4 176/3/4
f 179/3/5 178/3/5 177/3/5
f 180/3/5 178/3/5 179/3/5
f 181/1/5 180/1/5 179/1/5
f 182/1/5 180/1/5 181/1/5
f 183/1/5 181/1/5 179/1/5
f 183/2/5 182/2/5 181/2/5
f 184/2/5 182/2/5 183/2/5
f 185/1/5 184/1/5 183/1/5
f 185/2/5 182/2/5 184/2/5
f 186/1/5 180/1/5 182/1/5
f 186/2/5 182/2/5 185/2/5
f 188/3/5 179/3/5 177/3/5
f 189/3/5 178/3/5 180/3/5
f 191/3/5 188/3/5 187/3/5
f 192/3/5 188/3/5 191/3/5
f 193/1/5 185/1/5 183/1/5
f 193/3/5 188/3/5 192/3/5
f 193/1/5 183/1/5 179/1/5
f 193/1/5 186/1/5 185/1/5
f 193/3/5 179/3/5 188/3/5
f 194/1/5 180/1/5 186/1/5
f 194/1/5 186/1/5 193/1/5
f 194/3/5 190/3/5 189/3/5
f 194/3/5 189/3/5 180/3/5
f 195/3/5 190/3/5 194/3/5
f 196/3/5 190/3/5 195/3/5
f 197/3/5 191/3/5 187/3/5
f 198/2/5 192/2/5 191/2/5
f 198/3/5 191/3/5 197/3/5
f 199/2/5 192/2/5 198/2/5
f 200/1/5 193/1/5 192/1/5
f 200/2/5 192/2/5 199/2/5
f 200/1/5 194/1/5 193/1/5
f 200/1/5 195/1/5 194/1/5
f 201/1/5 195/1/5 200/1/5
f 202/1/5 195/1/5 201/1/5
f 203/2/5 196/2/5 195/2/5
f 203/1/5 195/1/5 202/1/5
f 204/2/5 196/2/5 203/2/5
f 205/3/5 190/3/5 196/3/5
f 205/2/5 196/2/5 204/2/5
f 206/3/5 190/3/5 205/3/5
f 207/3/5 199/3/5 198/3/5
f 208/2/5 200/2/5 199/2/5
f 208/3/5 199/3/5 207/3/5
f 208/2/5 201/2/5 200/2/5
f 209/2/5 201/2/5 208/2/5
f 210/1/5 202/1/5 201/1/5
f 210/2/5 201/2/5 209/2/5
f 211/1/5 202/1/5 210/1/5
f 212/1/5 202/1/5 211/1/5
f 213/2/5 204/2/5 203/2/5
f 213/1/5 202/1/5 212/1/5
f 213/2/5 203/2/5 202/2/5
f 214/2/5 204/2/5 213/2/5
f 215/3/5 205/3/5 204/3/5
f 215/2/5 204/2/5 214/2/5
f 216/3/5 205/3/5 215/3/5
f 217/3/5 209/3/5 208/3/5
f 218/2/5 211/2/5 210/2/5
f 218/3/5 209/3/5 217/3/5
f 218/2/5 210/2/5 209/2/5
f 219/2/5 211/2/5 218/2/5
f 220/1/5 212/1/5 211/1/5
f 220/2/5 211/2/5 219/2/5
f 221/1/5 212/1/5 220/1/5
f 222/1/5 212/1/5 221/1/5
f 223/2/5 214/2/5 213/2/5
f 223/1/5 212/1/5 222/1/5
f 223/2/5 213/2/5 212/2/5
f 224/2/5 214/2/5 223/2/5
f 225/3/5 215/3/5 214/3/5
f 225/2/5 214/2/5 224/2/5
f 226/3/5 215/3/5 225/3/5
f 227/3/5 219/3/5 218/3/5
f 228/2/5 221/2/5 220/2/5
f 228/3/5 219/3/5 227/3/5
f 228/2/5 220/2/5 219/2/5
f 229/2/5 221/2/5 228/2/5
f 230/1/5 222/1/5 221/1/5
f 230/2/5 221/2/5 229/2/5
f 231/1/5 222/1/5 230/1/5
f 232/1/5 222/1/5 231/1/5
f 233/2/5 224/2/5 223/2/5
f 233/1/5 222/1/5 232/1/5
f 233/2/5 223/2/5 222/2/5
f 234/2/5 224/2/5 233/2/5
f 235/3/5 225/3/5 224/3/5
f 235/2/5 224/2/5 234/2/5
f 236/3/5 225/3/5 235/3/5
f 237/3/5 229/3/5 228/3/5
f 238/2/5 231/2/5 230/2/5
f 238/3/5 229/3/5 237/3/5
f 238/2/5 230/2/5 229/2/5
f 239/2/5 231/2/5 238/2/5
f 240/1/5 232/1/5 231/1/5
f 240/2/5 231/2/5 239/2/5
f 241/1/5 232/1/5 240/1/5
f 242/1/5 232/1/5 241/1/5
f 243/2/5 234/2/5 233/2/5
f 243/1/5 232/1/5 242/1/5
f 243/2/5 233/2/5 232/2/5
f 244/2/5 234/2/5 243/2/5
f 245/3/5 235/3/5 234/3/5
f 245/2/5 234/2/5 244/2/5
f 246/3/5 235/3/5 245/3/5
f 247/3/5 239/3/5 238/3/5
f 248/2/5 241/2/5 240/2/5
f 248/3/5 239/3/5 247/3/5
f 248/2/5 240/2/5 239/2/5
f 249/2/5 241/2/5 248/2/5
f 250/1/5 242/1/5 241/1/5
f 250/2/5 241/2/5 249/2/5
f 251/1/5 242/1/5 250/1/5
f 252/1/5 242/1/5 251/1/5
f 253/2/5 244/2/5 243/2/5
f 253/1/5 242/1/5 252/1/5
f 253/2/5 243/2/5 242/2/5
f 254/2/5 244/2/5 253/2/5
f 255/3/5 245/3/5 244/3/5
f 255/2/5 244/2/5 254/2/5
f 256/3/5 245/3/5 255/3/5
f 257/3/5 249/3/5 248/3/5
f 258/2/5 251/2/5 250/2/5
f 258/3/5 249/3/5 257/3/5
f 258/2/5 250/2/5 249/2/5
f 259/2/5 251/2/5 258/2/5
f 260/1/5 252/1/5 251/1/5
f 260/2/5 251/2/5 259/2/5
f 261/2/5 254/2/5 253/2/5
f 261/1/5 252/1/5 260/1/5
f 261/2/5 253/2/5 252/2/5
f 262/2/5 254/2/5 261/2/5
f 263/3/5 255/3/5 254/3/5
f 263/2/5 254/2/5 262/2/5
f 264/3/5 255/3/5 263/3/5
f 265/3/5 259/3/5 258/3/5
f 266/2/5 260/2/5 259/2/5
f 266/3/5 259/3/5 265/3/5
f 266/2/5 262/2/5 261/2/5
f 266/2/5 261/2/5 260/2/5
f 267/2/5 262/2/5 266/2/5
f 268/2/5 262/2/5 267/2/5
f 269/3/5 263/3/5 262/3/5
f 269/2/5 262/2/5 268/2/5
f 270/3/5 263/3/5 269/3/5
f 271/3/5 267/3/5 266/3/5
f 272/2/5 268/2/5 267/2/5
f 272/3/5 267/3/5 271/3/5
f 273/3/5 269/3/5 268/3/5
f 273/2/5 268/2/5 272/2/5
f 274/3/5 269/3/5 273/3/5
f 275/3/5 273/3/5 272/3/5
f 276/3/5 273/3/5 275/3/5
f 277/3/6 278/3/6 279/3/6
f 279/3/6 278/3/6 280/3/6
f 279/1/6 280/1/6 281/1/6
f 281/1/6 280/1/6 282/1/6
f 279/1/6 281/1/6 283/1/6
f 281/2/6 282/2/6 283/2/6
f 283/2/6 282/2/6 284/2/6
f 283/1/6 284/1/6 285/1/6
f 284/2/6 282/2/6 285/2/6
f 282/1/6 280/1/6 286/1/6
f 285/2/6 282/2/6 286/2/6
f 277/3/6 279/3/6 288/3/6
f 280/3/6 278/3/6 289/3/6
f 287/3/6 288/3/6 291/3/6
f 291/3/6 288/3/6 292/3/6
f 283/1/6 285/1/6 293/1/6
f 292/3/6 288/3/6 293/3/6
f 279/1/6 283/1/6 293/1/6
f 285/1/6 286/1/6 293/1/6
f 288/3/6 279/3/6 293/3/6
f 286/1/6 280/1/6 294/1/6
f 293/1/6 286/1/6 294/1/6
f 289/3/6 290/3/6 294/3/6
f 280/3/6 289/3/6 294/3/6
f 294/3/6 290/3/6 295/3/6
f 295/3/6 290/3/6 296/3/6
f 287/3/6 291/3/6 297/3/6
f 291/2/6 292/2/6 298/2/6
f 297/3/6 291/3/6 298/3/6
f 298/2/6 292/2/6 299/2/6
f 292/1/6 293/1/6 300/1/6
f 299/2/6 292/2/6 300/2/6
f 293/1/6 294/1/6 300/1/6
f 294/1/6 295/1/6 300/1/6
f 300/1/6 295/1/6 301/1/6
f 301/1/6 295/1/6 302/1/6
f 295/2/6 296/2/6 303/2/6
f 302/1/6 295/1/6 303/1/6
f 303/2/6 296/2/6 304/2/6
f 296/3/6 290/3/6 305/3/6
f 304/2/6 296/2/6 305/2/6
f 305/3/6 290/3/6 306/3/6
f 298/3/6 299/3/6 307/3/6
f 299/2/6 300/2/6 308/2/6
f 307/3/6 299/3/6 308/3/6
f 300/2/6 301/2/6 308/2/6
f 308/2/6 301/2/6 309/2/6
f 301/1/6 302/1/6 310/1/6
f 309/2/6 301/2/6 310/2/6
f 310/1/6 302/1/6 311/1/6
f 311/1/6 302/1/6 312/1/6
f 303/2/6 304/2/6 313/2/6
f 312/1/6 302/1/6 313/1/6
f 302/2/6 303/2/6 313/2/6
f 313/2/6 304/2/6 314/2/6
f 304/3/6 305/3/6 315/3/6
f 314/2/6 304/2/6 315/2/6
f 315/3/6 305/3/6 316/3/6
f 308/3/6 309/3/6 317/3/6
f 310/2/6 311/2/6 318/2/6
f 317/3/6 309/3/6 318/3/6
f 309/2/6 310/2/6 318/2/6
f 318/2/6 311/2/6 319/2/6
f 311/1/6 312/1/6 320/1/6
f 319/2/6 311/2/6 320/2/6
f 320/1/6 312/1/6 321/1/6
f 321/1/6 312/1/6 322/1/6
f 313/2/6 314/2/6 323/2/6
f 322/1/6 312/1/6 323/1/6
f 312/2/6 313/2/6 323/2/6
f 323/2/6 314/2/6 324/2/6
f 314/3/6 315/3/6 325/3/6
f 324/2/6 314/2/6 325/2/6
f 325/3/6 315/3/6 326/3/6
f 318/3/6 319/3/6 327/3/6
f 320/2/6 321/2/6 328/2/6
f 327/3/6 319/3/6 328/3/6
f 319/2/6 320/2/6 328/2/6
f 328/2/6 321/2/6 329/2/6
f 321/1/6 322/1/6 330/1/6
f 329/2/6 321/2/6 330/2/6
f 330/1/6 322/1/6 331/1/6
f 331/1/6 322/1/6 332/1/6
f 323/2/6 324/2/6 333/2/6
f 332/1/6 322/1/6 333/1/6
f 322/2/6 323/2/6 333/2/6
f 333/2/6 324/2/6 334/2/6
f 324/3/6 325/3/6 335/3/6
f 334/2/6 324/2/6 335/2/6
f 335/3/6 325/3/6 336/3/6
f 328/3/6 329/3/6 337/3/6
f 330/2/6 331/2/6 338/2/6
f 337/3/6 329/3/6 338/3/6
f 329/2/6 330/2/6 338/2/6
f 338/2/6 331/2/6 339/2/6
f 331/1/6 332/1/6 340/1/6
f 339/2/6 331/2/6 340/2/6
f 340/1/6 332/1/6 341/1/6
f 341/1/6 332/1/6 342/1/6
f 333/2/6 334/2/6 343/2/6
f 342/1/6 332/1/6 343/1/6
f 332/2/6 333/2/6 343/2/6
f 343/2/6 334/2/6 344/2/6
f 334/3/6 335/3/6 345/3/6
f 344/2/6 334/2/6 345/2/6
f 345/3/6 335/3/6 346/3/6
f 338/3/6 339/3/6 347/3/6
f 340/2/6 341/2/6 348/2/6
f 347/3/6 339/3/6 348/3/6
f 339/2/6 340/2/6 348/2/6
f 348/2/6 341/2/6 349/2/6
f 341/1/6 342/1/6 350/1/6
f 349/2/6 341/2/6 350/2/6
f 350/1/6 342/1/6 351/1/6
f 351/1/6 342/1/6 352/1/6
f 343/2/6 344/2/6 353/2/6
f 352/1/6 342/1/6 353/1/6
f 342/2/6 343/2/6 353/2/6
f 353/2/6 344/2/6 354/2/6
f 344/3/6 345/3/6 355/3/6
f 354/2/6 344/2/6 355/2/6
f 355/3/6 345/3/6 356/3/6
f 348/3/6 349/3/6 357/3/6
f 350/2/6 351/2/6 358/2/6
f 357/3/6 349/3/6 358/3/6
f 349/2/6 350/2/6 358/2/6
f 358/2/6 351/2/6 359/2/6
f 351/1/6 352/1/6 360/1/6
f 359/2/6 351/2/6 360/2/6
f 353/2/6 354/2/6 361/2/6
f 360/1/6 352/1/6 361/1/6
f 352/2/6 353/2/6 361/2/6
f 361/2/6 354/2/6 362/2/6
f 354/3/6 355/3/6 363/3/6
f 362/2/6 354/2/6 363/2/6
f 363/3/6 355/3/6 364/3/6
f 358/3/6 359/3/6 365/3/6
f 359/2/6 360/2/6 366/2/6
f 365/3/6 359/3/6 366/3/6
f 361/2/6 362/2/6 366/2/6
f 360/2/6 361/2/6 366/2/6
f 366/2/6 362/2/6 367/2/6
f 367/2/6 362/2/6 368/2/6
f 362/3/6 363/3/6 369/3/6
f 368/2/6 362/2/6 369/2/6
f 369/3/6 363/3/6 370/3/6
f 366/3/6 367/3/6 371/3/6
f 367/2/6 368/2/6 372/2/6
f 371/3/6 367/3/6 372/3/6
f 368/3/6 369/3/6 373/3/6
f 372/2/6 368/2/6 373/2/6
f 373/3/6 369/3/6 374/3/6
f 372/3/6 373/3/6 375/3/6
f 375/3/6 373/3/6 376/3/6
