# MagicaVoxel @ Ephtracy

# group
o 

# material
mtllib girl_npc_4.mtl
usemtl palette

# normals
vn -1 0 0
vn 1 0 0
vn 0 0 1
vn 0 0 -1
vn 0 -1 0
vn 0 1 0

# texcoords
vt 0.0136719 0.5
vt 0.0332031 0.5
vt 0.0605469 0.5
vt 0.111328 0.5
vt 0.126953 0.5
vt 0.142578 0.5
vt 0.146484 0.5
vt 0.150391 0.5
vt 0.212891 0.5
vt 0.236328 0.5
vt 0.357422 0.5
vt 0.400391 0.5
vt 0.494141 0.5
vt 0.958984 0.5

# verts
v -1 1.3 -0.1
v -1 1.3 -0.3
v -1 1.4 -0.1
v -1 1.4 -0.3
v -0.9 1.2 -0.1
v -0.9 1.2 -0.3
v -0.9 1.3 -0.1
v -0.9 1.3 -0.3
v -0.4 1.6 0.0999999
v -0.4 1.6 -0.1
v -0.4 1.6 -0.2
v -0.4 1.6 -0.4
v -0.4 1.7 -0.1
v -0.4 1.7 -0.2
v -0.4 1.9 -0.1
v -0.4 1.9 -0.2
v -0.4 2.1 0.0999999
v -0.4 2.1 -0.4
v -0.3 0 0.0999999
v -0.3 0 -0.3
v -0.3 0.1 0.0999999
v -0.3 0.1 -0.1
v -0.3 0.1 -0.3
v -0.3 0.3 -7.45058e-08
v -0.3 0.3 -0.1
v -0.3 0.3 -0.3
v -0.3 0.6 -7.45058e-08
v -0.3 0.6 -0.3
v -0.3 0.6 -0.4
v -0.3 1.1 0.0999999
v -0.3 1.1 -7.45058e-08
v -0.3 1.2 -0.1
v -0.3 1.2 -0.3
v -0.3 1.3 0.0999999
v -0.3 1.3 -7.45058e-08
v -0.3 1.3 -0.5
v -0.3 1.3 -0.6
v -0.3 1.4 -7.45058e-08
v -0.3 1.4 -0.1
v -0.3 1.4 -0.3
v -0.3 1.4 -0.4
v -0.3 1.5 -7.45058e-08
v -0.3 1.5 -0.5
v -0.3 1.6 -7.45058e-08
v -0.3 1.6 -0.1
v -0.3 1.6 -0.2
v -0.3 1.6 -0.4
v -0.3 1.6 -0.5
v -0.3 1.7 -0.1
v -0.3 1.7 -0.2
v -0.3 2.1 0.0999999
v -0.3 2.1 -0.4
v -0.3 2.2 0.0999999
v -0.3 2.2 -0.6
v -0.0999999 1.4 -0.1
v -0.0999999 1.4 -0.3
v -0.0999999 1.5 -0.1
v -0.0999999 1.5 -0.3
v 0.1 0 0.0999999
v 0.1 0 -0.3
v 0.1 0.1 0.0999999
v 0.1 0.1 -0.1
v 0.1 0.1 -0.3
v 0.1 0.3 -0.1
v 0.1 0.3 -0.3
v 0.2 1.9 0.0999999
v 0.2 1.9 -7.45058e-08
v 0.2 2 0.0999999
v 0.2 2 -7.45058e-08
v 0.3 1.6 0.0999999
v 0.3 1.6 -7.45058e-08
v 0.3 1.9 0.0999999
v 0.3 1.9 -7.45058e-08
v -0.3 1.6 0.0999999
v -0.3 1.6 -7.45058e-08
v -0.3 1.9 0.0999999
v -0.3 1.9 -7.45058e-08
v -0.2 1.9 0.0999999
v -0.2 1.9 -7.45058e-08
v -0.2 2 0.0999999
v -0.2 2 -7.45058e-08
v -0.0999999 0 0.0999999
v -0.0999999 0 -0.1
v -0.0999999 0 -0.2
v -0.0999999 0 -0.3
v -0.0999999 0.1 0.0999999
v -0.0999999 0.1 -0.1
v -0.0999999 0.1 -0.2
v -0.0999999 0.1 -0.3
v -0.0999999 0.3 -0.1
v -0.0999999 0.3 -0.3
v 0.1 1.4 -0.1
v 0.1 1.4 -0.3
v 0.1 1.5 -0.1
v 0.1 1.5 -0.3
v 0.3 0 0.0999999
v 0.3 0 -0.3
v 0.3 0.1 0.0999999
v 0.3 0.1 -0.1
v 0.3 0.1 -0.3
v 0.3 0.3 -7.45058e-08
v 0.3 0.3 -0.1
v 0.3 0.3 -0.3
v 0.3 0.6 -7.45058e-08
v 0.3 0.6 -0.3
v 0.3 0.6 -0.4
v 0.3 1.1 0.0999999
v 0.3 1.1 -7.45058e-08
v 0.3 1.2 -0.1
v 0.3 1.2 -0.3
v 0.3 1.3 0.0999999
v 0.3 1.3 -7.45058e-08
v 0.3 1.3 -0.5
v 0.3 1.3 -0.6
v 0.3 1.4 -7.45058e-08
v 0.3 1.4 -0.1
v 0.3 1.4 -0.3
v 0.3 1.4 -0.4
v 0.3 1.5 -7.45058e-08
v 0.3 1.5 -0.5
v 0.3 1.6 -7.45058e-08
v 0.3 1.6 -0.1
v 0.3 1.6 -0.3
v 0.3 1.6 -0.5
v 0.3 1.7 -0.1
v 0.3 1.7 -0.2
v 0.3 1.7 -0.3
v 0.3 1.7 -0.4
v 0.3 2.1 0.0999999
v 0.3 2.1 -0.4
v 0.3 2.2 0.0999999
v 0.3 2.2 -0.6
v 0.4 1.6 0.0999999
v 0.4 1.6 -0.1
v 0.4 1.7 -0.1
v 0.4 1.7 -0.2
v 0.4 1.7 -0.4
v 0.4 1.9 -0.1
v 0.4 1.9 -0.2
v 0.4 2.1 0.0999999
v 0.4 2.1 -0.4
v 0.9 1.2 -0.1
v 0.9 1.2 -0.3
v 0.9 1.3 -0.1
v 0.9 1.3 -0.3
v 1 1.3 -0.1
v 1 1.3 -0.3
v 1 1.4 -0.1
v 1 1.4 -0.3
v -0.4 1.6 0.0999999
v -0.4 2.1 0.0999999
v -0.3 0 0.0999999
v -0.3 0.1 0.0999999
v -0.3 1.1 0.0999999
v -0.3 1.3 0.0999999
v -0.3 1.6 0.0999999
v -0.3 1.9 0.0999999
v -0.3 2.1 0.0999999
v -0.3 2.2 0.0999999
v -0.2 1.9 0.0999999
v -0.2 2 0.0999999
v -0.0999999 0 0.0999999
v -0.0999999 0.1 0.0999999
v 0.1 0 0.0999999
v 0.1 0.1 0.0999999
v 0.2 1.9 0.0999999
v 0.2 2 0.0999999
v 0.3 0 0.0999999
v 0.3 0.1 0.0999999
v 0.3 1.1 0.0999999
v 0.3 1.3 0.0999999
v 0.3 1.6 0.0999999
v 0.3 1.9 0.0999999
v 0.3 2.1 0.0999999
v 0.3 2.2 0.0999999
v 0.4 1.6 0.0999999
v 0.4 2.1 0.0999999
v -0.3 0.3 -7.45058e-08
v -0.3 0.6 -7.45058e-08
v -0.3 1.1 -7.45058e-08
v -0.3 1.3 -7.45058e-08
v -0.3 1.4 -7.45058e-08
v -0.3 1.5 -7.45058e-08
v -0.3 1.6 -7.45058e-08
v -0.3 1.9 -7.45058e-08
v -0.2 1.3 -7.45058e-08
v -0.2 1.4 -7.45058e-08
v -0.2 1.7 -7.45058e-08
v -0.2 1.8 -7.45058e-08
v -0.2 1.9 -7.45058e-08
v -0.2 2 -7.45058e-08
v -0.0999999 1.7 -7.45058e-08
v -0.0999999 1.8 -7.45058e-08
v -0.0999999 1.9 -7.45058e-08
v 0.1 1.7 -7.45058e-08
v 0.1 1.8 -7.45058e-08
v 0.1 1.9 -7.45058e-08
v 0.2 1.3 -7.45058e-08
v 0.2 1.4 -7.45058e-08
v 0.2 1.7 -7.45058e-08
v 0.2 1.8 -7.45058e-08
v 0.2 1.9 -7.45058e-08
v 0.2 2 -7.45058e-08
v 0.3 0.3 -7.45058e-08
v 0.3 0.6 -7.45058e-08
v 0.3 1.1 -7.45058e-08
v 0.3 1.3 -7.45058e-08
v 0.3 1.4 -7.45058e-08
v 0.3 1.5 -7.45058e-08
v 0.3 1.6 -7.45058e-08
v 0.3 1.9 -7.45058e-08
v -1 1.3 -0.1
v -1 1.4 -0.1
v -0.9 1.2 -0.1
v -0.9 1.3 -0.1
v -0.5 1.2 -0.1
v -0.5 1.4 -0.1
v -0.3 0.1 -0.1
v -0.3 0.3 -0.1
v -0.3 1.2 -0.1
v -0.3 1.4 -0.1
v -0.0999999 0.1 -0.1
v -0.0999999 0.3 -0.1
v -0.0999999 1.4 -0.1
v -0.0999999 1.5 -0.1
v 0.1 0.1 -0.1
v 0.1 0.3 -0.1
v 0.1 1.4 -0.1
v 0.1 1.5 -0.1
v 0.3 0.1 -0.1
v 0.3 0.3 -0.1
v 0.3 1.2 -0.1
v 0.3 1.4 -0.1
v 0.5 1.2 -0.1
v 0.5 1.4 -0.1
v 0.9 1.2 -0.1
v 0.9 1.3 -0.1
v 1 1.3 -0.1
v 1 1.4 -0.1
v -0.4 1.6 -0.2
v -0.4 1.7 -0.2
v -0.3 1.6 -0.2
v -0.3 1.7 -0.2
v -0.3 1.3 -0.5
v -0.3 1.5 -0.5
v 0.3 1.3 -0.5
v 0.3 1.5 -0.5
v -0.4 1.6 -0.1
v -0.4 1.7 -0.1
v -0.3 1.6 -0.1
v -0.3 1.7 -0.1
v 0.3 1.6 -0.1
v 0.3 1.7 -0.1
v 0.4 1.6 -0.1
v 0.4 1.7 -0.1
v -1 1.3 -0.3
v -1 1.4 -0.3
v -0.9 1.2 -0.3
v -0.9 1.3 -0.3
v -0.5 1.2 -0.3
v -0.5 1.4 -0.3
v -0.3 0 -0.3
v -0.3 0.1 -0.3
v -0.3 0.3 -0.3
v -0.3 0.6 -0.3
v -0.3 1.2 -0.3
v -0.3 1.4 -0.3
v -0.0999999 0 -0.3
v -0.0999999 0.1 -0.3
v -0.0999999 0.3 -0.3
v -0.0999999 1.4 -0.3
v -0.0999999 1.5 -0.3
v 0.1 0 -0.3
v 0.1 0.1 -0.3
v 0.1 0.3 -0.3
v 0.1 1.4 -0.3
v 0.1 1.5 -0.3
v 0.3 0 -0.3
v 0.3 0.1 -0.3
v 0.3 0.3 -0.3
v 0.3 0.6 -0.3
v 0.3 1.2 -0.3
v 0.3 1.4 -0.3
v 0.5 1.2 -0.3
v 0.5 1.4 -0.3
v 0.9 1.2 -0.3
v 0.9 1.3 -0.3
v 1 1.3 -0.3
v 1 1.4 -0.3
v -0.4 1.6 -0.4
v -0.4 2.1 -0.4
v -0.3 0.6 -0.4
v -0.3 1.4 -0.4
v -0.3 1.6 -0.4
v -0.3 2.1 -0.4
v 0.3 0.6 -0.4
v 0.3 1.4 -0.4
v 0.3 1.7 -0.4
v 0.3 2.1 -0.4
v 0.4 1.7 -0.4
v 0.4 2.1 -0.4
v -0.3 1.3 -0.6
v -0.3 2.2 -0.6
v 0.3 1.3 -0.6
v 0.3 2.2 -0.6
v -0.3 0 0.0999999
v -0.0999999 0 0.0999999
v 0.1 0 0.0999999
v 0.3 0 0.0999999
v -0.2 0 -0.1
v -0.0999999 0 -0.1
v -0.2 0 -0.2
v -0.0999999 0 -0.2
v -0.3 0 -0.3
v -0.0999999 0 -0.3
v 0.1 0 -0.3
v 0.3 0 -0.3
v -0.3 0.3 -7.45058e-08
v 0.3 0.3 -7.45058e-08
v -0.3 0.3 -0.1
v -0.0999999 0.3 -0.1
v 0.1 0.3 -0.1
v 0.3 0.3 -0.1
v -0.0999999 0.3 -0.3
v 0.1 0.3 -0.3
v -0.3 0.6 -0.3
v 0.3 0.6 -0.3
v -0.3 0.6 -0.4
v 0.3 0.6 -0.4
v -0.3 1.1 0.0999999
v 0.3 1.1 0.0999999
v -0.3 1.1 -7.45058e-08
v 0.3 1.1 -7.45058e-08
v -0.9 1.2 -0.1
v -0.5 1.2 -0.1
v -0.3 1.2 -0.1
v 0.3 1.2 -0.1
v 0.5 1.2 -0.1
v 0.9 1.2 -0.1
v -0.9 1.2 -0.3
v -0.5 1.2 -0.3
v -0.3 1.2 -0.3
v 0.3 1.2 -0.3
v 0.5 1.2 -0.3
v 0.9 1.2 -0.3
v -1 1.3 -0.1
v -0.9 1.3 -0.1
v 0.9 1.3 -0.1
v 1 1.3 -0.1
v -1 1.3 -0.3
v -0.9 1.3 -0.3
v 0.9 1.3 -0.3
v 1 1.3 -0.3
v -0.3 1.3 -0.5
v 0.3 1.3 -0.5
v -0.3 1.3 -0.6
v 0.3 1.3 -0.6
v -0.3 1.5 -7.45058e-08
v 0.3 1.5 -7.45058e-08
v -0.0999999 1.5 -0.1
v 0.1 1.5 -0.1
v -0.0999999 1.5 -0.3
v 0.1 1.5 -0.3
v -0.3 1.5 -0.5
v 0.3 1.5 -0.5
v -0.4 1.6 0.0999999
v -0.3 1.6 0.0999999
v 0.3 1.6 0.0999999
v 0.4 1.6 0.0999999
v -0.3 1.6 -7.45058e-08
v 0.3 1.6 -7.45058e-08
v -0.4 1.6 -0.1
v -0.3 1.6 -0.1
v 0.3 1.6 -0.1
v 0.4 1.6 -0.1
v -0.4 1.6 -0.2
v -0.3 1.6 -0.2
v -0.4 1.6 -0.4
v -0.3 1.6 -0.4
v -0.4 1.7 -0.1
v -0.3 1.7 -0.1
v 0.3 1.7 -0.1
v 0.4 1.7 -0.1
v -0.4 1.7 -0.2
v -0.3 1.7 -0.2
v 0.3 1.7 -0.2
v 0.4 1.7 -0.2
v 0.3 1.7 -0.3
v 0.3 1.7 -0.4
v 0.4 1.7 -0.4
v -0.3 1.9 0.0999999
v -0.2 1.9 0.0999999
v 0.2 1.9 0.0999999
v 0.3 1.9 0.0999999
v -0.3 1.9 -7.45058e-08
v -0.2 1.9 -7.45058e-08
v 0.2 1.9 -7.45058e-08
v 0.3 1.9 -7.45058e-08
v -0.2 2 0.0999999
v 0.2 2 0.0999999
v -0.2 2 -7.45058e-08
v 0.2 2 -7.45058e-08
v -0.3 0.1 0.0999999
v -0.0999999 0.1 0.0999999
v 0.1 0.1 0.0999999
v 0.3 0.1 0.0999999
v -0.3 0.1 -0.1
v -0.0999999 0.1 -0.1
v 0.1 0.1 -0.1
v 0.3 0.1 -0.1
v -0.3 1.3 0.0999999
v 0.3 1.3 0.0999999
v -0.3 1.3 -7.45058e-08
v -0.2 1.3 -7.45058e-08
v 0.2 1.3 -7.45058e-08
v 0.3 1.3 -7.45058e-08
v -0.3 1.4 -7.45058e-08
v -0.2 1.4 -7.45058e-08
v 0.2 1.4 -7.45058e-08
v 0.3 1.4 -7.45058e-08
v -1 1.4 -0.1
v -0.5 1.4 -0.1
v -0.3 1.4 -0.1
v -0.2 1.4 -0.1
v -0.0999999 1.4 -0.1
v 0.1 1.4 -0.1
v 0.3 1.4 -0.1
v 0.5 1.4 -0.1
v 1 1.4 -0.1
v -1 1.4 -0.3
v -0.5 1.4 -0.3
v -0.3 1.4 -0.3
v -0.2 1.4 -0.3
v -0.0999999 1.4 -0.3
v 0.1 1.4 -0.3
v 0.2 1.4 -0.3
v 0.3 1.4 -0.3
v 0.5 1.4 -0.3
v 1 1.4 -0.3
v -0.3 1.4 -0.4
v 0.3 1.4 -0.4
v -0.4 2.1 0.0999999
v -0.3 2.1 0.0999999
v 0.3 2.1 0.0999999
v 0.4 2.1 0.0999999
v -0.4 2.1 -0.4
v -0.3 2.1 -0.4
v 0.3 2.1 -0.4
v 0.4 2.1 -0.4
v -0.3 2.2 0.0999999
v 0.3 2.2 0.0999999
v -0.3 2.2 -0.6
v 0.3 2.2 -0.6

# faces
f 3/13/1 2/13/1 1/13/1
f 4/13/1 2/13/1 3/13/1
f 7/13/1 6/13/1 5/13/1
f 8/13/1 6/13/1 7/13/1
f 13/1/1 10/1/1 9/1/1
f 14/1/1 12/1/1 11/1/1
f 15/1/1 13/1/1 9/1/1
f 15/13/1 14/13/1 13/13/1
f 16/1/1 12/1/1 14/1/1
f 16/13/1 14/13/1 15/13/1
f 17/1/1 15/1/1 9/1/1
f 17/1/1 16/1/1 15/1/1
f 18/1/1 12/1/1 16/1/1
f 18/1/1 16/1/1 17/1/1
f 21/6/1 20/6/1 19/6/1
f 22/6/1 20/6/1 21/6/1
f 23/6/1 20/6/1 22/6/1
f 25/13/1 23/13/1 22/13/1
f 26/13/1 23/13/1 25/13/1
f 27/4/1 25/4/1 24/4/1
f 27/4/1 26/4/1 25/4/1
f 28/4/1 26/4/1 27/4/1
f 31/9/1 28/9/1 27/9/1
f 31/9/1 29/9/1 28/9/1
f 32/9/1 29/9/1 31/9/1
f 32/9/1 31/9/1 30/9/1
f 33/9/1 29/9/1 32/9/1
f 34/9/1 32/9/1 30/9/1
f 35/9/1 32/9/1 34/9/1
f 38/9/1 32/9/1 35/9/1
f 39/9/1 32/9/1 38/9/1
f 40/9/1 29/9/1 33/9/1
f 41/9/1 29/9/1 40/9/1
f 43/1/1 37/1/1 36/1/1
f 44/13/1 43/13/1 42/13/1
f 45/13/1 43/13/1 44/13/1
f 46/13/1 43/13/1 45/13/1
f 47/13/1 43/13/1 46/13/1
f 48/1/1 37/1/1 43/1/1
f 48/13/1 43/13/1 47/13/1
f 49/13/1 46/13/1 45/13/1
f 50/13/1 46/13/1 49/13/1
f 52/1/1 48/1/1 47/1/1
f 53/1/1 52/1/1 51/1/1
f 54/1/1 37/1/1 48/1/1
f 54/1/1 52/1/1 53/1/1
f 54/1/1 48/1/1 52/1/1
f 57/13/1 56/13/1 55/13/1
f 58/13/1 56/13/1 57/13/1
f 61/6/1 60/6/1 59/6/1
f 62/6/1 60/6/1 61/6/1
f 63/6/1 60/6/1 62/6/1
f 64/13/1 63/13/1 62/13/1
f 65/13/1 63/13/1 64/13/1
f 68/1/1 67/1/1 66/1/1
f 69/1/1 67/1/1 68/1/1
f 72/1/1 71/1/1 70/1/1
f 73/1/1 71/1/1 72/1/1
f 74/1/2 75/1/2 76/1/2
f 76/1/2 75/1/2 77/1/2
f 78/1/2 79/1/2 80/1/2
f 80/1/2 79/1/2 81/1/2
f 82/6/2 83/6/2 86/6/2
f 83/8/2 84/8/2 87/8/2
f 86/6/2 83/6/2 87/6/2
f 84/6/2 85/6/2 88/6/2
f 87/8/2 84/8/2 88/8/2
f 88/6/2 85/6/2 89/6/2
f 87/13/2 88/13/2 90/13/2
f 88/13/2 89/13/2 90/13/2
f 90/13/2 89/13/2 91/13/2
f 92/13/2 93/13/2 94/13/2
f 94/13/2 93/13/2 95/13/2
f 96/6/2 97/6/2 98/6/2
f 98/6/2 97/6/2 99/6/2
f 99/6/2 97/6/2 100/6/2
f 99/13/2 100/13/2 102/13/2
f 102/13/2 100/13/2 103/13/2
f 101/4/2 102/4/2 104/4/2
f 102/4/2 103/4/2 104/4/2
f 104/4/2 103/4/2 105/4/2
f 104/9/2 105/9/2 108/9/2
f 105/9/2 106/9/2 108/9/2
f 108/9/2 106/9/2 109/9/2
f 107/9/2 108/9/2 109/9/2
f 109/9/2 106/9/2 110/9/2
f 107/9/2 109/9/2 111/9/2
f 111/9/2 109/9/2 112/9/2
f 112/9/2 109/9/2 115/9/2
f 115/9/2 109/9/2 116/9/2
f 110/9/2 106/9/2 117/9/2
f 117/9/2 106/9/2 118/9/2
f 113/1/2 114/1/2 120/1/2
f 119/13/2 120/13/2 121/13/2
f 121/13/2 120/13/2 122/13/2
f 122/13/2 120/13/2 123/13/2
f 120/1/2 114/1/2 124/1/2
f 123/13/2 120/13/2 124/13/2
f 122/13/2 123/13/2 125/13/2
f 125/13/2 123/13/2 126/13/2
f 123/1/2 124/1/2 127/1/2
f 126/13/2 123/13/2 127/13/2
f 127/1/2 124/1/2 128/1/2
f 128/1/2 124/1/2 130/1/2
f 129/1/2 130/1/2 131/1/2
f 124/1/2 114/1/2 132/1/2
f 131/1/2 130/1/2 132/1/2
f 130/1/2 124/1/2 132/1/2
f 133/1/2 134/1/2 135/1/2
f 133/1/2 135/1/2 138/1/2
f 135/13/2 136/13/2 138/13/2
f 136/1/2 137/1/2 139/1/2
f 138/13/2 136/13/2 139/13/2
f 133/1/2 138/1/2 140/1/2
f 138/1/2 139/1/2 140/1/2
f 139/1/2 137/1/2 141/1/2
f 140/1/2 139/1/2 141/1/2
f 142/13/2 143/13/2 144/13/2
f 144/13/2 143/13/2 145/13/2
f 146/13/2 147/13/2 148/13/2
f 148/13/2 147/13/2 149/13/2
f 156/1/3 151/1/3 150/1/3
f 157/1/3 151/1/3 156/1/3
f 158/1/3 151/1/3 157/1/3
f 160/1/3 159/1/3 158/1/3
f 160/1/3 158/1/3 157/1/3
f 161/1/3 159/1/3 160/1/3
f 162/6/3 153/6/3 152/6/3
f 163/6/3 153/6/3 162/6/3
f 167/1/3 159/1/3 161/1/3
f 168/6/3 165/6/3 164/6/3
f 169/6/3 165/6/3 168/6/3
f 170/9/3 155/9/3 154/9/3
f 171/9/3 155/9/3 170/9/3
f 173/1/3 167/1/3 166/1/3
f 174/1/3 159/1/3 167/1/3
f 174/1/3 167/1/3 173/1/3
f 175/1/3 159/1/3 174/1/3
f 176/1/3 174/1/3 173/1/3
f 176/1/3 173/1/3 172/1/3
f 177/1/3 174/1/3 176/1/3
f 186/9/3 182/9/3 181/9/3
f 187/9/3 182/9/3 186/9/3
f 188/13/3 185/13/3 184/13/3
f 188/13/3 184/13/3 183/13/3
f 189/13/3 185/13/3 188/13/3
f 190/13/3 185/13/3 189/13/3
f 192/13/3 188/13/3 183/13/3
f 192/3/3 189/3/3 188/3/3
f 193/14/3 190/14/3 189/14/3
f 193/3/3 189/3/3 192/3/3
f 194/13/3 191/13/3 190/13/3
f 194/14/3 190/14/3 193/14/3
f 195/13/3 193/13/3 192/13/3
f 195/13/3 192/13/3 183/13/3
f 195/13/3 194/13/3 193/13/3
f 196/13/3 194/13/3 195/13/3
f 197/13/3 191/13/3 194/13/3
f 197/13/3 194/13/3 196/13/3
f 198/13/3 187/13/3 186/13/3
f 199/13/3 187/13/3 198/13/3
f 200/3/3 196/3/3 195/3/3
f 200/13/3 195/13/3 183/13/3
f 201/14/3 197/14/3 196/14/3
f 201/3/3 196/3/3 200/3/3
f 202/13/3 191/13/3 197/13/3
f 202/14/3 197/14/3 201/14/3
f 203/13/3 191/13/3 202/13/3
f 204/4/3 179/4/3 178/4/3
f 205/9/3 180/9/3 179/9/3
f 205/4/3 179/4/3 204/4/3
f 206/9/3 180/9/3 205/9/3
f 207/9/3 199/9/3 198/9/3
f 208/9/3 199/9/3 207/9/3
f 209/13/3 201/13/3 200/13/3
f 209/13/3 200/13/3 183/13/3
f 209/13/3 202/13/3 201/13/3
f 210/13/3 202/13/3 209/13/3
f 211/13/3 202/13/3 210/13/3
f 215/13/3 213/13/3 212/13/3
f 216/13/3 215/13/3 214/13/3
f 217/13/3 213/13/3 215/13/3
f 217/13/3 215/13/3 216/13/3
f 220/9/3 217/9/3 216/9/3
f 221/9/3 217/9/3 220/9/3
f 222/13/3 219/13/3 218/13/3
f 223/13/3 219/13/3 222/13/3
f 228/13/3 225/13/3 224/13/3
f 229/13/3 225/13/3 228/13/3
f 230/13/3 227/13/3 226/13/3
f 231/13/3 227/13/3 230/13/3
f 234/9/3 233/9/3 232/9/3
f 235/9/3 233/9/3 234/9/3
f 236/13/3 235/13/3 234/13/3
f 237/13/3 235/13/3 236/13/3
f 238/13/3 235/13/3 237/13/3
f 239/13/3 235/13/3 238/13/3
f 242/1/3 241/1/3 240/1/3
f 243/1/3 241/1/3 242/1/3
f 246/1/3 245/1/3 244/1/3
f 247/1/3 245/1/3 246/1/3
f 248/1/4 249/1/4 250/1/4
f 250/1/4 249/1/4 251/1/4
f 252/1/4 253/1/4 254/1/4
f 254/1/4 253/1/4 255/1/4
f 256/13/4 257/13/4 259/13/4
f 258/13/4 259/13/4 260/13/4
f 259/13/4 257/13/4 261/13/4
f 260/13/4 259/13/4 261/13/4
f 260/9/4 261/9/4 266/9/4
f 266/9/4 261/9/4 267/9/4
f 262/6/4 263/6/4 268/6/4
f 263/13/4 264/13/4 269/13/4
f 268/6/4 263/6/4 269/6/4
f 264/4/4 265/4/4 270/4/4
f 269/13/4 264/13/4 270/13/4
f 270/4/4 265/4/4 275/4/4
f 271/13/4 272/13/4 276/13/4
f 276/13/4 272/13/4 277/13/4
f 273/6/4 274/6/4 278/6/4
f 274/13/4 275/13/4 279/13/4
f 278/6/4 274/6/4 279/6/4
f 275/4/4 265/4/4 280/4/4
f 279/13/4 275/13/4 280/13/4
f 280/4/4 265/4/4 281/4/4
f 282/9/4 283/9/4 284/9/4
f 284/9/4 283/9/4 285/9/4
f 284/13/4 285/13/4 286/13/4
f 286/13/4 285/13/4 287/13/4
f 287/13/4 285/13/4 288/13/4
f 288/13/4 285/13/4 289/13/4
f 290/1/4 291/1/4 294/1/4
f 294/1/4 291/1/4 295/1/4
f 292/9/4 293/9/4 296/9/4
f 296/9/4 293/9/4 297/9/4
f 298/1/4 299/1/4 300/1/4
f 300/1/4 299/1/4 301/1/4
f 302/1/4 303/1/4 304/1/4
f 304/1/4 303/1/4 305/1/4
f 310/6/5 307/6/5 306/6/5
f 311/6/5 307/6/5 310/6/5
f 312/6/5 310/6/5 306/6/5
f 312/8/5 311/8/5 310/8/5
f 313/8/5 311/8/5 312/8/5
f 314/6/5 312/6/5 306/6/5
f 314/6/5 313/6/5 312/6/5
f 315/6/5 313/6/5 314/6/5
f 316/6/5 309/6/5 308/6/5
f 317/6/5 309/6/5 316/6/5
f 320/4/5 319/4/5 318/4/5
f 321/4/5 319/4/5 320/4/5
f 322/4/5 319/4/5 321/4/5
f 323/4/5 319/4/5 322/4/5
f 324/4/5 322/4/5 321/4/5
f 325/4/5 322/4/5 324/4/5
f 328/9/5 327/9/5 326/9/5
f 329/9/5 327/9/5 328/9/5
f 332/9/5 331/9/5 330/9/5
f 333/9/5 331/9/5 332/9/5
f 340/13/5 335/13/5 334/13/5
f 341/9/5 336/9/5 335/9/5
f 341/13/5 335/13/5 340/13/5
f 342/9/5 336/9/5 341/9/5
f 343/9/5 338/9/5 337/9/5
f 344/13/5 339/13/5 338/13/5
f 344/9/5 338/9/5 343/9/5
f 345/13/5 339/13/5 344/13/5
f 350/13/5 347/13/5 346/13/5
f 351/13/5 347/13/5 350/13/5
f 352/13/5 349/13/5 348/13/5
f 353/13/5 349/13/5 352/13/5
f 356/1/5 355/1/5 354/1/5
f 357/1/5 355/1/5 356/1/5
f 360/13/5 359/13/5 358/13/5
f 361/13/5 359/13/5 360/13/5
f 362/13/5 360/13/5 358/13/5
f 363/13/5 359/13/5 361/13/5
f 364/13/5 362/13/5 358/13/5
f 364/13/5 363/13/5 362/13/5
f 365/13/5 359/13/5 363/13/5
f 365/13/5 363/13/5 364/13/5
f 370/1/5 367/1/5 366/1/5
f 371/1/5 369/1/5 368/1/5
f 372/1/5 370/1/5 366/1/5
f 373/1/5 370/1/5 372/1/5
f 374/1/5 369/1/5 371/1/5
f 375/1/5 369/1/5 374/1/5
f 378/1/5 377/1/5 376/1/5
f 379/1/5 377/1/5 378/1/5
f 384/13/5 381/13/5 380/13/5
f 385/13/5 381/13/5 384/13/5
f 386/13/5 383/13/5 382/13/5
f 387/13/5 383/13/5 386/13/5
f 388/1/5 387/1/5 386/1/5
f 389/1/5 387/1/5 388/1/5
f 390/1/5 387/1/5 389/1/5
f 395/1/5 392/1/5 391/1/5
f 396/1/5 392/1/5 395/1/5
f 397/1/5 394/1/5 393/1/5
f 398/1/5 394/1/5 397/1/5
f 401/1/5 400/1/5 399/1/5
f 402/1/5 400/1/5 401/1/5
f 403/6/6 404/6/6 407/6/6
f 407/6/6 404/6/6 408/6/6
f 405/6/6 406/6/6 409/6/6
f 409/6/6 406/6/6 410/6/6
f 411/9/6 412/9/6 413/9/6
f 413/9/6 412/9/6 414/9/6
f 414/9/6 412/9/6 415/9/6
f 415/9/6 412/9/6 416/9/6
f 417/9/6 418/9/6 423/9/6
f 418/13/6 419/13/6 424/13/6
f 423/9/6 418/9/6 424/9/6
f 424/13/6 419/13/6 425/13/6
f 425/13/6 419/13/6 426/13/6
f 419/9/6 420/9/6 427/9/6
f 421/13/6 422/13/6 430/13/6
f 422/9/6 423/9/6 431/9/6
f 430/13/6 422/13/6 431/13/6
f 423/7/6 424/7/6 432/7/6
f 431/9/6 423/9/6 432/9/6
f 424/13/6 425/13/6 433/13/6
f 432/7/6 424/7/6 433/7/6
f 433/13/6 425/13/6 434/13/6
f 426/13/6 419/13/6 435/13/6
f 427/9/6 428/9/6 436/9/6
f 419/9/6 427/9/6 436/9/6
f 435/13/6 419/13/6 436/13/6
f 436/9/6 428/9/6 437/9/6
f 428/13/6 429/13/6 438/13/6
f 437/9/6 428/9/6 438/9/6
f 438/13/6 429/13/6 439/13/6
f 436/9/6 437/9/6 440/9/6
f 433/9/6 434/9/6 440/9/6
f 435/9/6 436/9/6 440/9/6
f 432/9/6 433/9/6 440/9/6
f 434/9/6 435/9/6 440/9/6
f 440/9/6 437/9/6 441/9/6
f 442/1/6 443/1/6 446/1/6
f 446/1/6 443/1/6 447/1/6
f 444/1/6 445/1/6 448/1/6
f 448/1/6 445/1/6 449/1/6
f 450/1/6 451/1/6 452/1/6
f 452/1/6 451/1/6 453/1/6
