# MagicaVoxel @ Ephtracy

# group
o 

# material
mtllib girl_npc_1.mtl
usemtl palette

# normals
vn -1 0 0
vn 1 0 0
vn 0 0 1
vn 0 0 -1
vn 0 -1 0
vn 0 1 0

# texcoords
vt 0.0253906 0.5
vt 0.0332031 0.5
vt 0.119141 0.5
vt 0.126953 0.5
vt 0.130859 0.5
vt 0.138672 0.5
vt 0.236328 0.5
vt 0.294922 0.5
vt 0.357422 0.5
vt 0.373047 0.5
vt 0.400391 0.5
vt 0.958984 0.5

# verts
v -1 1.3 -0.1
v -1 1.3 -0.3
v -1 1.4 -0.1
v -1 1.4 -0.3
v -0.9 1.2 -0.1
v -0.9 1.2 -0.3
v -0.9 1.3 -0.1
v -0.9 1.3 -0.3
v -0.4 1.6 -0.2
v -0.4 1.6 -0.4
v -0.4 1.7 -0.1
v -0.4 1.7 -0.2
v -0.4 1.8 0.0999999
v -0.4 1.8 -0.1
v -0.4 1.9 -0.1
v -0.4 1.9 -0.2
v -0.4 2.1 0.0999999
v -0.4 2.1 -0.4
v -0.3 0 0.0999999
v -0.3 0 -0.3
v -0.3 0.1 0.0999999
v -0.3 0.1 -0.1
v -0.3 0.1 -0.3
v -0.3 0.4 -7.45058e-08
v -0.3 0.4 -0.1
v -0.3 0.4 -0.3
v -0.3 0.4 -0.4
v -0.3 0.7 -7.45058e-08
v -0.3 0.7 -0.3
v -0.3 0.8 -7.45058e-08
v -0.3 0.8 -0.3
v -0.3 0.9 -0.3
v -0.3 0.9 -0.4
v -0.3 1.1 0.0999999
v -0.3 1.1 -7.45058e-08
v -0.3 1.1 -0.3
v -0.3 1.1 -0.4
v -0.3 1.1 -0.5
v -0.3 1.1 -0.6
v -0.3 1.2 0.0999999
v -0.3 1.2 -7.45058e-08
v -0.3 1.2 -0.1
v -0.3 1.2 -0.3
v -0.3 1.3 0.0999999
v -0.3 1.3 -7.45058e-08
v -0.3 1.4 -7.45058e-08
v -0.3 1.4 -0.1
v -0.3 1.4 -0.3
v -0.3 1.4 -0.4
v -0.3 1.5 -7.45058e-08
v -0.3 1.5 -0.5
v -0.3 1.6 -0.2
v -0.3 1.6 -0.4
v -0.3 1.6 -0.5
v -0.3 1.7 -0.1
v -0.3 1.7 -0.2
v -0.3 1.8 -7.45058e-08
v -0.3 1.8 -0.1
v -0.3 2.1 0.0999999
v -0.3 2.1 -0.4
v -0.3 2.2 0.0999999
v -0.3 2.2 -0.6
v -0.0999999 1.4 -0.1
v -0.0999999 1.4 -0.3
v -0.0999999 1.5 -0.1
v -0.0999999 1.5 -0.3
v 1.19209e-07 0.6 -0.2
v 1.19209e-07 0.6 -0.3
v 1.19209e-07 0.7 -0.2
v 1.19209e-07 0.7 -0.3
v 0.1 0 0.0999999
v 0.1 0 -0.3
v 0.1 0.1 0.0999999
v 0.1 0.1 -0.1
v 0.1 0.1 -0.3
v 0.1 0.4 -0.1
v 0.1 0.4 -0.2
v 0.1 0.4 -0.3
v 0.1 0.5 -0.2
v 0.1 0.5 -0.3
v 0.1 0.6 -0.2
v 0.1 0.6 -0.3
v 0.3 1.8 0.0999999
v 0.3 1.8 -7.45058e-08
v 0.3 2 0.0999999
v 0.3 2 -7.45058e-08
v -0.3 1.8 0.0999999
v -0.3 1.8 -7.45058e-08
v -0.3 2 0.0999999
v -0.3 2 -7.45058e-08
v -0.0999999 0 0.0999999
v -0.0999999 0 -0.3
v -0.0999999 0.1 0.0999999
v -0.0999999 0.1 -0.1
v -0.0999999 0.1 -0.3
v -0.0999999 0.4 -0.1
v -0.0999999 0.4 -0.2
v -0.0999999 0.4 -0.3
v -0.0999999 0.5 -0.2
v -0.0999999 0.5 -0.3
v -0.0999999 0.6 -0.2
v -0.0999999 0.6 -0.3
v -0.0999999 0.7 -0.2
v -0.0999999 0.7 -0.3
v 0.1 1.4 -0.1
v 0.1 1.4 -0.3
v 0.1 1.5 -0.1
v 0.1 1.5 -0.3
v 0.3 0 0.0999999
v 0.3 0 -0.3
v 0.3 0.1 0.0999999
v 0.3 0.1 -0.1
v 0.3 0.1 -0.3
v 0.3 0.4 -7.45058e-08
v 0.3 0.4 -0.1
v 0.3 0.4 -0.3
v 0.3 0.4 -0.4
v 0.3 0.5 -7.45058e-08
v 0.3 0.5 -0.2
v 0.3 0.6 -0.1
v 0.3 0.6 -0.2
v 0.3 0.7 -7.45058e-08
v 0.3 0.7 -0.1
v 0.3 0.8 -7.45058e-08
v 0.3 0.8 -0.2
v 0.3 0.9 -7.45058e-08
v 0.3 0.9 -0.1
v 0.3 0.9 -0.2
v 0.3 0.9 -0.4
v 0.3 1 -0.1
v 0.3 1 -0.4
v 0.3 1.1 0.0999999
v 0.3 1.1 -7.45058e-08
v 0.3 1.2 -0.1
v 0.3 1.2 -0.3
v 0.3 1.3 0.0999999
v 0.3 1.3 -7.45058e-08
v 0.3 1.4 -7.45058e-08
v 0.3 1.4 -0.1
v 0.3 1.4 -0.3
v 0.3 1.4 -0.4
v 0.3 1.5 -7.45058e-08
v 0.3 1.5 -0.5
v 0.3 1.6 -0.3
v 0.3 1.6 -0.5
v 0.3 1.7 -0.1
v 0.3 1.7 -0.2
v 0.3 1.7 -0.3
v 0.3 1.8 -7.45058e-08
v 0.3 1.8 -0.1
v 0.3 2.1 0.0999999
v 0.3 2.1 -0.6
v 0.3 2.2 0.0999999
v 0.3 2.2 -0.6
v 0.4 1.1 -0.5
v 0.4 1.1 -0.6
v 0.4 1.6 -0.3
v 0.4 1.6 -0.5
v 0.4 1.7 -0.1
v 0.4 1.7 -0.2
v 0.4 1.7 -0.3
v 0.4 1.8 0.0999999
v 0.4 1.8 -0.1
v 0.4 1.9 -0.1
v 0.4 1.9 -0.2
v 0.4 2.1 0.0999999
v 0.4 2.1 -0.6
v 0.9 1.2 -0.1
v 0.9 1.2 -0.3
v 0.9 1.3 -0.1
v 0.9 1.3 -0.3
v 1 1.3 -0.1
v 1 1.3 -0.3
v 1 1.4 -0.1
v 1 1.4 -0.3
v -0.4 1.8 0.0999999
v -0.4 2.1 0.0999999
v -0.3 0 0.0999999
v -0.3 0.1 0.0999999
v -0.3 1.1 0.0999999
v -0.3 1.2 0.0999999
v -0.3 1.3 0.0999999
v -0.3 1.8 0.0999999
v -0.3 2 0.0999999
v -0.3 2.1 0.0999999
v -0.3 2.2 0.0999999
v -0.2 1.1 0.0999999
v -0.2 1.2 0.0999999
v -0.0999999 0 0.0999999
v -0.0999999 0.1 0.0999999
v -0.0999999 1.2 0.0999999
v -0.0999999 1.3 0.0999999
v 1.19209e-07 1.1 0.0999999
v 1.19209e-07 1.2 0.0999999
v 0.1 0 0.0999999
v 0.1 0.1 0.0999999
v 0.3 0 0.0999999
v 0.3 0.1 0.0999999
v 0.3 1.1 0.0999999
v 0.3 1.3 0.0999999
v 0.3 1.8 0.0999999
v 0.3 2 0.0999999
v 0.3 2.1 0.0999999
v 0.3 2.2 0.0999999
v 0.4 1.8 0.0999999
v 0.4 2.1 0.0999999
v -0.3 0.4 -7.45058e-08
v -0.3 0.7 -7.45058e-08
v -0.3 0.8 -7.45058e-08
v -0.3 1.1 -7.45058e-08
v -0.3 1.3 -7.45058e-08
v -0.3 1.4 -7.45058e-08
v -0.3 1.5 -7.45058e-08
v -0.3 1.8 -7.45058e-08
v -0.3 2 -7.45058e-08
v -0.2 0.5 -7.45058e-08
v -0.2 0.7 -7.45058e-08
v -0.2 0.8 -7.45058e-08
v -0.2 1.1 -7.45058e-08
v -0.2 1.3 -7.45058e-08
v -0.2 1.4 -7.45058e-08
v -0.2 1.7 -7.45058e-08
v -0.2 1.8 -7.45058e-08
v -0.2 1.9 -7.45058e-08
v -0.0999999 0.4 -7.45058e-08
v -0.0999999 0.5 -7.45058e-08
v -0.0999999 0.6 -7.45058e-08
v -0.0999999 0.7 -7.45058e-08
v -0.0999999 0.9 -7.45058e-08
v -0.0999999 1.1 -7.45058e-08
v -0.0999999 1.3 -7.45058e-08
v -0.0999999 1.7 -7.45058e-08
v -0.0999999 1.8 -7.45058e-08
v -0.0999999 1.9 -7.45058e-08
v 1.19209e-07 0.4 -7.45058e-08
v 1.19209e-07 0.6 -7.45058e-08
v 1.19209e-07 0.7 -7.45058e-08
v 1.19209e-07 0.8 -7.45058e-08
v 1.19209e-07 1 -7.45058e-08
v 1.19209e-07 1.1 -7.45058e-08
v 0.1 0.9 -7.45058e-08
v 0.1 1 -7.45058e-08
v 0.1 1.7 -7.45058e-08
v 0.1 1.8 -7.45058e-08
v 0.1 1.9 -7.45058e-08
v 0.2 0.5 -7.45058e-08
v 0.2 0.7 -7.45058e-08
v 0.2 0.8 -7.45058e-08
v 0.2 0.9 -7.45058e-08
v 0.2 1.3 -7.45058e-08
v 0.2 1.4 -7.45058e-08
v 0.2 1.7 -7.45058e-08
v 0.2 1.8 -7.45058e-08
v 0.2 1.9 -7.45058e-08
v 0.3 0.4 -7.45058e-08
v 0.3 0.5 -7.45058e-08
v 0.3 0.7 -7.45058e-08
v 0.3 0.8 -7.45058e-08
v 0.3 0.9 -7.45058e-08
v 0.3 1.1 -7.45058e-08
v 0.3 1.3 -7.45058e-08
v 0.3 1.4 -7.45058e-08
v 0.3 1.5 -7.45058e-08
v 0.3 1.8 -7.45058e-08
v 0.3 2 -7.45058e-08
v -1 1.3 -0.1
v -1 1.4 -0.1
v -0.9 1.2 -0.1
v -0.9 1.3 -0.1
v -0.4 1.7 -0.1
v -0.4 1.8 -0.1
v -0.3 0.1 -0.1
v -0.3 0.4 -0.1
v -0.3 1.2 -0.1
v -0.3 1.4 -0.1
v -0.3 1.7 -0.1
v -0.3 1.8 -0.1
v -0.0999999 0.1 -0.1
v -0.0999999 0.4 -0.1
v -0.0999999 1.4 -0.1
v -0.0999999 1.5 -0.1
v 0.1 0.1 -0.1
v 0.1 0.4 -0.1
v 0.1 1.4 -0.1
v 0.1 1.5 -0.1
v 0.3 0.1 -0.1
v 0.3 0.4 -0.1
v 0.3 1.2 -0.1
v 0.3 1.4 -0.1
v 0.3 1.7 -0.1
v 0.3 1.8 -0.1
v 0.4 1.7 -0.1
v 0.4 1.8 -0.1
v 0.9 1.2 -0.1
v 0.9 1.3 -0.1
v 1 1.3 -0.1
v 1 1.4 -0.1
v -0.4 1.6 -0.2
v -0.4 1.7 -0.2
v -0.3 1.6 -0.2
v -0.3 1.7 -0.2
v -0.0999999 0.4 -0.3
v -0.0999999 0.5 -0.3
v -0.0999999 0.6 -0.3
v -0.0999999 0.7 -0.3
v 1.19209e-07 0.6 -0.3
v 1.19209e-07 0.7 -0.3
v 0.1 0.4 -0.3
v 0.1 0.5 -0.3
v 0.1 0.6 -0.3
v 0.3 1.6 -0.3
v 0.3 1.7 -0.3
v 0.4 1.6 -0.3
v 0.4 1.7 -0.3
v -0.3 1.1 -0.5
v -0.3 1.5 -0.5
v 0.3 1.5 -0.5
v 0.3 1.6 -0.5
v 0.4 1.1 -0.5
v 0.4 1.6 -0.5
v -0.0999999 0.4 -0.2
v -0.0999999 0.5 -0.2
v -0.0999999 0.6 -0.2
v -0.0999999 0.7 -0.2
v 1.19209e-07 0.6 -0.2
v 1.19209e-07 0.7 -0.2
v 0.1 0.4 -0.2
v 0.1 0.5 -0.2
v 0.1 0.6 -0.2
v -1 1.3 -0.3
v -1 1.4 -0.3
v -0.9 1.2 -0.3
v -0.9 1.3 -0.3
v -0.3 0 -0.3
v -0.3 0.1 -0.3
v -0.3 0.4 -0.3
v -0.3 1.2 -0.3
v -0.3 1.4 -0.3
v -0.0999999 0 -0.3
v -0.0999999 0.1 -0.3
v -0.0999999 0.4 -0.3
v -0.0999999 1.4 -0.3
v -0.0999999 1.5 -0.3
v 0.1 0 -0.3
v 0.1 0.1 -0.3
v 0.1 0.4 -0.3
v 0.1 1.4 -0.3
v 0.1 1.5 -0.3
v 0.3 0 -0.3
v 0.3 0.1 -0.3
v 0.3 0.4 -0.3
v 0.3 1.2 -0.3
v 0.3 1.4 -0.3
v 0.9 1.2 -0.3
v 0.9 1.3 -0.3
v 1 1.3 -0.3
v 1 1.4 -0.3
v -0.4 1.6 -0.4
v -0.4 2.1 -0.4
v -0.3 0.4 -0.4
v -0.3 0.9 -0.4
v -0.3 1.1 -0.4
v -0.3 1.4 -0.4
v -0.3 1.6 -0.4
v -0.3 2.1 -0.4
v -0.2 0.9 -0.4
v -0.2 1.1 -0.4
v 1.19209e-07 0.6 -0.4
v 1.19209e-07 0.8 -0.4
v 1.19209e-07 0.9 -0.4
v 1.19209e-07 1 -0.4
v 0.1 0.6 -0.4
v 0.1 0.7 -0.4
v 0.2 0.7 -0.4
v 0.2 0.8 -0.4
v 0.3 0.4 -0.4
v 0.3 0.9 -0.4
v 0.3 1 -0.4
v 0.3 1.4 -0.4
v -0.3 1.1 -0.6
v -0.3 2.2 -0.6
v 0.3 2.1 -0.6
v 0.3 2.2 -0.6
v 0.4 1.1 -0.6
v 0.4 2.1 -0.6
v -0.3 0 0.0999999
v -0.0999999 0 0.0999999
v 0.1 0 0.0999999
v 0.3 0 0.0999999
v -0.3 0 -0.3
v -0.0999999 0 -0.3
v 0.1 0 -0.3
v 0.3 0 -0.3
v -0.3 0.4 -7.45058e-08
v -0.0999999 0.4 -7.45058e-08
v 1.19209e-07 0.4 -7.45058e-08
v 0.3 0.4 -7.45058e-08
v -0.3 0.4 -0.1
v -0.0999999 0.4 -0.1
v 1.19209e-07 0.4 -0.1
v 0.1 0.4 -0.1
v 0.3 0.4 -0.1
v -0.0999999 0.4 -0.2
v 0.1 0.4 -0.2
v -0.3 0.4 -0.3
v -0.0999999 0.4 -0.3
v 0.1 0.4 -0.3
v 0.3 0.4 -0.3
v -0.3 0.4 -0.4
v 0.3 0.4 -0.4
v 1.19209e-07 0.6 -0.2
v 0.1 0.6 -0.2
v 1.19209e-07 0.6 -0.3
v 0.1 0.6 -0.3
v -0.0999999 0.7 -0.2
v 1.19209e-07 0.7 -0.2
v -0.0999999 0.7 -0.3
v 1.19209e-07 0.7 -0.3
v -0.3 1.1 0.0999999
v -0.2 1.1 0.0999999
v 1.19209e-07 1.1 0.0999999
v 0.3 1.1 0.0999999
v -0.3 1.1 -7.45058e-08
v -0.2 1.1 -7.45058e-08
v -0.0999999 1.1 -7.45058e-08
v 1.19209e-07 1.1 -7.45058e-08
v 0.3 1.1 -7.45058e-08
v -0.3 1.1 -0.5
v 0.4 1.1 -0.5
v -0.3 1.1 -0.6
v 0.4 1.1 -0.6
v -0.9 1.2 -0.1
v -0.3 1.2 -0.1
v 0.3 1.2 -0.1
v 0.9 1.2 -0.1
v -0.9 1.2 -0.3
v -0.3 1.2 -0.3
v 0.3 1.2 -0.3
v 0.9 1.2 -0.3
v -1 1.3 -0.1
v -0.9 1.3 -0.1
v 0.9 1.3 -0.1
v 1 1.3 -0.1
v -1 1.3 -0.3
v -0.9 1.3 -0.3
v 0.9 1.3 -0.3
v 1 1.3 -0.3
v -0.3 1.5 -7.45058e-08
v 0.3 1.5 -7.45058e-08
v -0.0999999 1.5 -0.1
v 0.1 1.5 -0.1
v -0.0999999 1.5 -0.3
v 0.1 1.5 -0.3
v -0.3 1.5 -0.5
v 0.3 1.5 -0.5
v -0.4 1.6 -0.2
v -0.3 1.6 -0.2
v 0.3 1.6 -0.3
v 0.4 1.6 -0.3
v -0.4 1.6 -0.4
v -0.3 1.6 -0.4
v 0.3 1.6 -0.5
v 0.4 1.6 -0.5
v -0.4 1.7 -0.1
v -0.3 1.7 -0.1
v 0.3 1.7 -0.1
v 0.4 1.7 -0.1
v -0.4 1.7 -0.2
v -0.3 1.7 -0.2
v 0.3 1.7 -0.2
v 0.4 1.7 -0.2
v 0.3 1.7 -0.3
v 0.4 1.7 -0.3
v -0.4 1.8 0.0999999
v -0.3 1.8 0.0999999
v 0.3 1.8 0.0999999
v 0.4 1.8 0.0999999
v -0.3 1.8 -7.45058e-08
v 0.3 1.8 -7.45058e-08
v -0.4 1.8 -0.1
v -0.3 1.8 -0.1
v 0.3 1.8 -0.1
v 0.4 1.8 -0.1
v -0.3 2 0.0999999
v 0.3 2 0.0999999
v -0.3 2 -7.45058e-08
v 0.3 2 -7.45058e-08
v -0.3 0.1 0.0999999
v -0.0999999 0.1 0.0999999
v 0.1 0.1 0.0999999
v 0.3 0.1 0.0999999
v -0.3 0.1 -0.1
v -0.0999999 0.1 -0.1
v 0.1 0.1 -0.1
v 0.3 0.1 -0.1
v -0.3 1.3 0.0999999
v -0.0999999 1.3 0.0999999
v 0.3 1.3 0.0999999
v -0.3 1.3 -7.45058e-08
v -0.2 1.3 -7.45058e-08
v -0.0999999 1.3 -7.45058e-08
v 0.2 1.3 -7.45058e-08
v 0.3 1.3 -7.45058e-08
v -0.3 1.4 -7.45058e-08
v -0.2 1.4 -7.45058e-08
v 0.2 1.4 -7.45058e-08
v 0.3 1.4 -7.45058e-08
v -1 1.4 -0.1
v -0.3 1.4 -0.1
v -0.0999999 1.4 -0.1
v 0.1 1.4 -0.1
v 0.3 1.4 -0.1
v 1 1.4 -0.1
v -1 1.4 -0.3
v -0.3 1.4 -0.3
v -0.2 1.4 -0.3
v -0.0999999 1.4 -0.3
v 0.1 1.4 -0.3
v 0.2 1.4 -0.3
v 0.3 1.4 -0.3
v 1 1.4 -0.3
v -0.3 1.4 -0.4
v 0.3 1.4 -0.4
v -0.4 2.1 0.0999999
v -0.3 2.1 0.0999999
v 0.3 2.1 0.0999999
v 0.4 2.1 0.0999999
v -0.4 2.1 -0.4
v -0.3 2.1 -0.4
v 0.3 2.1 -0.6
v 0.4 2.1 -0.6
v -0.3 2.2 0.0999999
v 0.3 2.2 0.0999999
v -0.3 2.2 -0.6
v 0.3 2.2 -0.6

# faces
f 3/4/1 2/4/1 1/4/1
f 4/4/1 2/4/1 3/4/1
f 7/4/1 6/4/1 5/4/1
f 8/4/1 6/4/1 7/4/1
f 12/9/1 10/9/1 9/9/1
f 14/4/1 12/4/1 11/4/1
f 15/4/1 12/4/1 14/4/1
f 15/9/1 14/9/1 13/9/1
f 16/9/1 10/9/1 12/9/1
f 16/4/1 12/4/1 15/4/1
f 17/9/1 15/9/1 13/9/1
f 17/9/1 16/9/1 15/9/1
f 18/9/1 10/9/1 16/9/1
f 18/9/1 16/9/1 17/9/1
f 21/1/1 20/1/1 19/1/1
f 22/1/1 20/1/1 21/1/1
f 23/1/1 20/1/1 22/1/1
f 25/4/1 23/4/1 22/4/1
f 26/4/1 23/4/1 25/4/1
f 28/5/1 26/5/1 25/5/1
f 28/5/1 27/5/1 26/5/1
f 28/5/1 25/5/1 24/5/1
f 29/5/1 27/5/1 28/5/1
f 30/6/1 29/6/1 28/6/1
f 31/5/1 27/5/1 29/5/1
f 31/6/1 29/6/1 30/6/1
f 32/5/1 31/5/1 30/5/1
f 32/5/1 27/5/1 31/5/1
f 33/5/1 27/5/1 32/5/1
f 35/5/1 32/5/1 30/5/1
f 36/6/1 33/6/1 32/6/1
f 36/5/1 32/5/1 35/5/1
f 37/6/1 33/6/1 36/6/1
f 40/5/1 37/5/1 36/5/1
f 40/5/1 35/5/1 34/5/1
f 40/5/1 36/5/1 35/5/1
f 41/5/1 37/5/1 40/5/1
f 42/5/1 37/5/1 41/5/1
f 43/5/1 37/5/1 42/5/1
f 44/6/1 41/6/1 40/6/1
f 45/5/1 42/5/1 41/5/1
f 45/6/1 41/6/1 44/6/1
f 46/5/1 42/5/1 45/5/1
f 47/5/1 42/5/1 46/5/1
f 48/5/1 37/5/1 43/5/1
f 49/5/1 37/5/1 48/5/1
f 51/9/1 39/9/1 38/9/1
f 52/4/1 51/4/1 50/4/1
f 53/4/1 51/4/1 52/4/1
f 54/9/1 39/9/1 51/9/1
f 54/4/1 51/4/1 53/4/1
f 55/4/1 52/4/1 50/4/1
f 56/4/1 52/4/1 55/4/1
f 57/4/1 55/4/1 50/4/1
f 58/4/1 55/4/1 57/4/1
f 60/9/1 54/9/1 53/9/1
f 61/9/1 60/9/1 59/9/1
f 62/9/1 39/9/1 54/9/1
f 62/9/1 60/9/1 61/9/1
f 62/9/1 54/9/1 60/9/1
f 65/4/1 64/4/1 63/4/1
f 66/4/1 64/4/1 65/4/1
f 69/5/1 68/5/1 67/5/1
f 70/5/1 68/5/1 69/5/1
f 73/1/1 72/1/1 71/1/1
f 74/1/1 72/1/1 73/1/1
f 75/1/1 72/1/1 74/1/1
f 76/4/1 75/4/1 74/4/1
f 77/4/1 75/4/1 76/4/1
f 78/4/1 75/4/1 77/4/1
f 79/5/1 78/5/1 77/5/1
f 80/5/1 78/5/1 79/5/1
f 81/3/1 80/3/1 79/3/1
f 82/3/1 80/3/1 81/3/1
f 85/9/1 84/9/1 83/9/1
f 86/9/1 84/9/1 85/9/1
f 87/9/2 88/9/2 89/9/2
f 89/9/2 88/9/2 90/9/2
f 91/1/2 92/1/2 93/1/2
f 93/1/2 92/1/2 94/1/2
f 94/1/2 92/1/2 95/1/2
f 94/4/2 95/4/2 96/4/2
f 96/4/2 95/4/2 97/4/2
f 97/4/2 95/4/2 98/4/2
f 97/5/2 98/5/2 99/5/2
f 99/5/2 98/5/2 100/5/2
f 99/3/2 100/3/2 101/3/2
f 101/3/2 100/3/2 102/3/2
f 101/8/2 102/8/2 103/8/2
f 103/8/2 102/8/2 104/8/2
f 105/4/2 106/4/2 107/4/2
f 107/4/2 106/4/2 108/4/2
f 109/1/2 110/1/2 111/1/2
f 111/1/2 110/1/2 112/1/2
f 112/1/2 110/1/2 113/1/2
f 112/4/2 113/4/2 115/4/2
f 115/4/2 113/4/2 116/4/2
f 115/5/2 116/5/2 118/5/2
f 116/5/2 117/5/2 118/5/2
f 114/5/2 115/5/2 118/5/2
f 118/5/2 117/5/2 119/5/2
f 118/6/2 119/6/2 120/6/2
f 119/5/2 117/5/2 121/5/2
f 120/6/2 119/6/2 121/6/2
f 118/6/2 120/6/2 122/6/2
f 120/5/2 121/5/2 123/5/2
f 122/6/2 120/6/2 123/6/2
f 122/5/2 123/5/2 124/5/2
f 121/5/2 117/5/2 125/5/2
f 124/5/2 123/5/2 125/5/2
f 123/5/2 121/5/2 125/5/2
f 124/6/2 125/6/2 126/6/2
f 126/6/2 125/6/2 127/6/2
f 125/5/2 117/5/2 128/5/2
f 127/6/2 125/6/2 128/6/2
f 128/5/2 117/5/2 129/5/2
f 126/5/2 127/5/2 130/5/2
f 127/6/2 128/6/2 130/6/2
f 128/6/2 129/6/2 130/6/2
f 130/6/2 129/6/2 131/6/2
f 126/5/2 130/5/2 133/5/2
f 130/5/2 131/5/2 133/5/2
f 133/5/2 131/5/2 134/5/2
f 132/5/2 133/5/2 134/5/2
f 134/5/2 131/5/2 135/5/2
f 132/5/2 134/5/2 136/5/2
f 136/5/2 134/5/2 137/5/2
f 137/5/2 134/5/2 138/5/2
f 138/5/2 134/5/2 139/5/2
f 135/5/2 131/5/2 140/5/2
f 140/5/2 131/5/2 141/5/2
f 142/4/2 143/4/2 144/4/2
f 144/4/2 143/4/2 145/4/2
f 142/4/2 144/4/2 146/4/2
f 146/4/2 144/4/2 147/4/2
f 147/4/2 144/4/2 148/4/2
f 142/4/2 146/4/2 149/4/2
f 149/4/2 146/4/2 150/4/2
f 151/9/2 152/9/2 153/9/2
f 153/9/2 152/9/2 154/9/2
f 155/9/2 156/9/2 158/9/2
f 157/9/2 158/9/2 161/9/2
f 159/4/2 160/4/2 163/4/2
f 163/4/2 160/4/2 164/4/2
f 162/9/2 163/9/2 164/9/2
f 160/9/2 161/9/2 165/9/2
f 164/4/2 160/4/2 165/4/2
f 162/9/2 164/9/2 166/9/2
f 164/9/2 165/9/2 166/9/2
f 158/9/2 156/9/2 167/9/2
f 166/9/2 165/9/2 167/9/2
f 165/9/2 161/9/2 167/9/2
f 161/9/2 158/9/2 167/9/2
f 168/4/2 169/4/2 170/4/2
f 170/4/2 169/4/2 171/4/2
f 172/4/2 173/4/2 174/4/2
f 174/4/2 173/4/2 175/4/2
f 183/9/3 177/9/3 176/9/3
f 184/9/3 177/9/3 183/9/3
f 185/9/3 177/9/3 184/9/3
f 187/5/3 181/5/3 180/5/3
f 188/6/3 182/6/3 181/6/3
f 188/5/3 181/5/3 187/5/3
f 189/1/3 179/1/3 178/1/3
f 190/1/3 179/1/3 189/1/3
f 191/6/3 182/6/3 188/6/3
f 191/6/3 188/6/3 187/6/3
f 192/6/3 182/6/3 191/6/3
f 193/6/3 191/6/3 187/6/3
f 194/5/3 192/5/3 191/5/3
f 194/6/3 191/6/3 193/6/3
f 197/1/3 196/1/3 195/1/3
f 198/1/3 196/1/3 197/1/3
f 199/5/3 194/5/3 193/5/3
f 200/5/3 192/5/3 194/5/3
f 200/5/3 194/5/3 199/5/3
f 202/9/3 186/9/3 185/9/3
f 202/9/3 185/9/3 184/9/3
f 203/9/3 186/9/3 202/9/3
f 204/9/3 186/9/3 203/9/3
f 205/9/3 203/9/3 202/9/3
f 205/9/3 202/9/3 201/9/3
f 206/9/3 203/9/3 205/9/3
f 216/5/3 208/5/3 207/5/3
f 217/6/3 209/6/3 208/6/3
f 217/5/3 208/5/3 216/5/3
f 218/5/3 210/5/3 209/5/3
f 218/6/3 209/6/3 217/6/3
f 219/5/3 210/5/3 218/5/3
f 220/5/3 212/5/3 211/5/3
f 221/5/3 212/5/3 220/5/3
f 222/4/3 215/4/3 214/4/3
f 222/4/3 214/4/3 213/4/3
f 223/4/3 215/4/3 222/4/3
f 224/4/3 215/4/3 223/4/3
f 225/5/3 216/5/3 207/5/3
f 226/6/3 217/6/3 216/6/3
f 226/5/3 216/5/3 225/5/3
f 227/6/3 217/6/3 226/6/3
f 228/5/3 219/5/3 218/5/3
f 228/6/3 217/6/3 227/6/3
f 228/5/3 218/5/3 217/5/3
f 229/5/3 219/5/3 228/5/3
f 230/5/3 219/5/3 229/5/3
f 231/4/3 221/4/3 220/4/3
f 232/4/3 222/4/3 213/4/3
f 232/10/3 223/10/3 222/10/3
f 233/12/3 224/12/3 223/12/3
f 233/10/3 223/10/3 232/10/3
f 234/4/3 215/4/3 224/4/3
f 234/12/3 224/12/3 233/12/3
f 235/6/3 227/6/3 226/6/3
f 235/6/3 226/6/3 225/6/3
f 236/5/3 228/5/3 227/5/3
f 236/6/3 227/6/3 235/6/3
f 236/5/3 229/5/3 228/5/3
f 237/5/3 229/5/3 236/5/3
f 238/5/3 229/5/3 237/5/3
f 239/6/3 230/6/3 229/6/3
f 240/6/3 230/6/3 239/6/3
f 241/5/3 229/5/3 238/5/3
f 241/6/3 239/6/3 229/6/3
f 242/5/3 240/5/3 239/5/3
f 242/6/3 239/6/3 241/6/3
f 243/4/3 233/4/3 232/4/3
f 243/4/3 234/4/3 233/4/3
f 243/4/3 232/4/3 213/4/3
f 244/4/3 234/4/3 243/4/3
f 245/4/3 215/4/3 234/4/3
f 245/4/3 234/4/3 244/4/3
f 246/5/3 236/5/3 235/5/3
f 246/5/3 237/5/3 236/5/3
f 247/6/3 238/6/3 237/6/3
f 247/5/3 237/5/3 246/5/3
f 248/5/3 242/5/3 241/5/3
f 248/6/3 238/6/3 247/6/3
f 248/5/3 241/5/3 238/5/3
f 249/5/3 242/5/3 248/5/3
f 250/4/3 221/4/3 231/4/3
f 251/4/3 221/4/3 250/4/3
f 252/10/3 244/10/3 243/10/3
f 252/4/3 243/4/3 213/4/3
f 253/12/3 245/12/3 244/12/3
f 253/10/3 244/10/3 252/10/3
f 254/4/3 215/4/3 245/4/3
f 254/12/3 245/12/3 253/12/3
f 255/5/3 246/5/3 235/5/3
f 256/6/3 247/6/3 246/6/3
f 256/5/3 246/5/3 255/5/3
f 257/5/3 248/5/3 247/5/3
f 257/6/3 247/6/3 256/6/3
f 258/6/3 249/6/3 248/6/3
f 258/5/3 248/5/3 257/5/3
f 259/5/3 242/5/3 249/5/3
f 259/6/3 249/6/3 258/6/3
f 260/5/3 240/5/3 242/5/3
f 260/5/3 242/5/3 259/5/3
f 261/5/3 251/5/3 250/5/3
f 262/5/3 251/5/3 261/5/3
f 263/4/3 253/4/3 252/4/3
f 263/4/3 252/4/3 213/4/3
f 263/4/3 254/4/3 253/4/3
f 264/4/3 254/4/3 263/4/3
f 265/4/3 215/4/3 254/4/3
f 265/4/3 254/4/3 264/4/3
f 269/4/3 267/4/3 266/4/3
f 274/4/3 269/4/3 268/4/3
f 275/4/3 267/4/3 269/4/3
f 275/4/3 269/4/3 274/4/3
f 276/4/3 271/4/3 270/4/3
f 277/4/3 271/4/3 276/4/3
f 278/4/3 273/4/3 272/4/3
f 279/4/3 273/4/3 278/4/3
f 284/4/3 281/4/3 280/4/3
f 285/4/3 281/4/3 284/4/3
f 286/4/3 283/4/3 282/4/3
f 287/4/3 283/4/3 286/4/3
f 292/4/3 291/4/3 290/4/3
f 293/4/3 291/4/3 292/4/3
f 294/4/3 289/4/3 288/4/3
f 295/4/3 289/4/3 294/4/3
f 296/4/3 289/4/3 295/4/3
f 297/4/3 289/4/3 296/4/3
f 300/9/3 299/9/3 298/9/3
f 301/9/3 299/9/3 300/9/3
f 306/5/3 303/5/3 302/5/3
f 306/5/3 305/5/3 304/5/3
f 306/5/3 304/5/3 303/5/3
f 307/5/3 305/5/3 306/5/3
f 308/5/3 306/5/3 302/5/3
f 309/5/3 306/5/3 308/5/3
f 310/5/3 306/5/3 309/5/3
f 313/9/3 312/9/3 311/9/3
f 314/9/3 312/9/3 313/9/3
f 317/9/3 316/9/3 315/9/3
f 319/9/3 317/9/3 315/9/3
f 319/9/3 318/9/3 317/9/3
f 320/9/3 318/9/3 319/9/3
f 321/5/4 322/5/4 325/5/4
f 323/5/4 324/5/4 325/5/4
f 322/5/4 323/5/4 325/5/4
f 325/5/4 324/5/4 326/5/4
f 321/5/4 325/5/4 327/5/4
f 327/5/4 325/5/4 328/5/4
f 328/5/4 325/5/4 329/5/4
f 330/4/4 331/4/4 333/4/4
f 332/4/4 333/4/4 337/4/4
f 333/4/4 331/4/4 338/4/4
f 337/4/4 333/4/4 338/4/4
f 334/1/4 335/1/4 339/1/4
f 335/4/4 336/4/4 340/4/4
f 339/1/4 335/1/4 340/1/4
f 340/4/4 336/4/4 341/4/4
f 342/4/4 343/4/4 347/4/4
f 347/4/4 343/4/4 348/4/4
f 344/1/4 345/1/4 349/1/4
f 345/4/4 346/4/4 350/4/4
f 349/1/4 345/1/4 350/1/4
f 350/4/4 346/4/4 351/4/4
f 352/4/4 353/4/4 354/4/4
f 354/4/4 353/4/4 355/4/4
f 355/4/4 353/4/4 356/4/4
f 356/4/4 353/4/4 357/4/4
f 358/9/4 359/9/4 364/9/4
f 364/9/4 359/9/4 365/9/4
f 360/5/4 361/5/4 366/5/4
f 361/6/4 362/6/4 366/6/4
f 362/5/4 363/5/4 367/5/4
f 366/6/4 362/6/4 367/6/4
f 360/5/4 366/5/4 368/5/4
f 366/5/4 367/5/4 368/5/4
f 368/5/4 367/5/4 369/5/4
f 369/5/4 367/5/4 370/5/4
f 370/5/4 367/5/4 371/5/4
f 360/5/4 368/5/4 372/5/4
f 368/6/4 369/6/4 372/6/4
f 372/6/4 369/6/4 373/6/4
f 372/5/4 373/5/4 374/5/4
f 373/6/4 369/6/4 374/6/4
f 369/5/4 370/5/4 375/5/4
f 374/6/4 369/6/4 375/6/4
f 372/5/4 374/5/4 376/5/4
f 360/5/4 372/5/4 376/5/4
f 374/5/4 375/5/4 376/5/4
f 370/6/4 371/6/4 377/6/4
f 376/5/4 375/5/4 377/5/4
f 375/5/4 370/5/4 377/5/4
f 371/5/4 367/5/4 378/5/4
f 377/6/4 371/6/4 378/6/4
f 367/5/4 363/5/4 379/5/4
f 378/5/4 367/5/4 379/5/4
f 380/9/4 381/9/4 382/9/4
f 382/9/4 381/9/4 383/9/4
f 380/9/4 382/9/4 384/9/4
f 384/9/4 382/9/4 385/9/4
f 390/1/5 387/1/5 386/1/5
f 391/1/5 387/1/5 390/1/5
f 392/1/5 389/1/5 388/1/5
f 393/1/5 389/1/5 392/1/5
f 398/5/5 395/5/5 394/5/5
f 399/6/5 396/6/5 395/6/5
f 399/5/5 395/5/5 398/5/5
f 400/5/5 397/5/5 396/5/5
f 400/6/5 396/6/5 399/6/5
f 401/5/5 397/5/5 400/5/5
f 402/5/5 397/5/5 401/5/5
f 403/5/5 400/5/5 399/5/5
f 403/5/5 401/5/5 400/5/5
f 404/5/5 401/5/5 403/5/5
f 409/5/5 407/5/5 406/5/5
f 409/5/5 408/5/5 407/5/5
f 409/5/5 406/5/5 405/5/5
f 410/5/5 408/5/5 409/5/5
f 413/5/5 412/5/5 411/5/5
f 414/5/5 412/5/5 413/5/5
f 417/5/5 416/5/5 415/5/5
f 418/5/5 416/5/5 417/5/5
f 423/5/5 420/5/5 419/5/5
f 424/6/5 421/6/5 420/6/5
f 424/5/5 420/5/5 423/5/5
f 425/6/5 421/6/5 424/6/5
f 426/5/5 422/5/5 421/5/5
f 426/6/5 421/6/5 425/6/5
f 427/5/5 422/5/5 426/5/5
f 430/9/5 429/9/5 428/9/5
f 431/9/5 429/9/5 430/9/5
f 436/4/5 433/4/5 432/4/5
f 437/4/5 433/4/5 436/4/5
f 438/4/5 435/4/5 434/4/5
f 439/4/5 435/4/5 438/4/5
f 444/4/5 441/4/5 440/4/5
f 445/4/5 441/4/5 444/4/5
f 446/4/5 443/4/5 442/4/5
f 447/4/5 443/4/5 446/4/5
f 450/4/5 449/4/5 448/4/5
f 451/4/5 449/4/5 450/4/5
f 452/4/5 450/4/5 448/4/5
f 453/4/5 449/4/5 451/4/5
f 454/4/5 452/4/5 448/4/5
f 454/4/5 453/4/5 452/4/5
f 455/4/5 449/4/5 453/4/5
f 455/4/5 453/4/5 454/4/5
f 460/9/5 457/9/5 456/9/5
f 461/9/5 457/9/5 460/9/5
f 462/9/5 459/9/5 458/9/5
f 463/9/5 459/9/5 462/9/5
f 468/4/5 465/4/5 464/4/5
f 469/4/5 465/4/5 468/4/5
f 470/4/5 467/4/5 466/4/5
f 471/4/5 467/4/5 470/4/5
f 472/9/5 471/9/5 470/9/5
f 473/9/5 471/9/5 472/9/5
f 478/9/5 475/9/5 474/9/5
f 479/9/5 477/9/5 476/9/5
f 480/9/5 478/9/5 474/9/5
f 481/9/5 478/9/5 480/9/5
f 482/9/5 477/9/5 479/9/5
f 483/9/5 477/9/5 482/9/5
f 486/9/5 485/9/5 484/9/5
f 487/9/5 485/9/5 486/9/5
f 488/1/6 489/1/6 492/1/6
f 492/1/6 489/1/6 493/1/6
f 490/1/6 491/1/6 494/1/6
f 494/1/6 491/1/6 495/1/6
f 496/6/6 497/6/6 499/6/6
f 499/6/6 497/6/6 500/6/6
f 497/5/6 498/5/6 501/5/6
f 500/6/6 497/6/6 501/6/6
f 501/5/6 498/5/6 502/5/6
f 502/5/6 498/5/6 503/5/6
f 504/5/6 505/5/6 509/5/6
f 505/4/6 506/4/6 510/4/6
f 510/4/6 506/4/6 511/4/6
f 506/5/6 507/5/6 512/5/6
f 508/4/6 509/4/6 514/4/6
f 509/5/6 505/5/6 515/5/6
f 514/4/6 509/4/6 515/4/6
f 505/4/6 510/4/6 516/4/6
f 515/5/6 505/5/6 516/5/6
f 516/4/6 510/4/6 517/4/6
f 511/4/6 506/4/6 518/4/6
f 506/5/6 512/5/6 519/5/6
f 518/4/6 506/4/6 519/4/6
f 512/4/6 513/4/6 520/4/6
f 519/5/6 512/5/6 520/5/6
f 520/4/6 513/4/6 521/4/6
f 516/5/6 517/5/6 522/5/6
f 518/5/6 519/5/6 522/5/6
f 519/5/6 520/5/6 522/5/6
f 515/5/6 516/5/6 522/5/6
f 517/5/6 518/5/6 522/5/6
f 522/5/6 520/5/6 523/5/6
f 524/9/6 525/9/6 528/9/6
f 528/9/6 525/9/6 529/9/6
f 526/9/6 527/9/6 530/9/6
f 530/9/6 527/9/6 531/9/6
f 532/9/6 533/9/6 534/9/6
f 534/9/6 533/9/6 535/9/6
