# MagicaVoxel @ Ephtracy

# group
o 

# material
mtllib flowers-2.mtl
usemtl palette

# normals
vn -1 0 0
vn 1 0 0
vn 0 0 1
vn 0 0 -1
vn 0 -1 0
vn 0 1 0

# texcoords
vt 0.251953 0.5
vt 0.626953 0.5
vt 0.650391 0.5
vt 0.857422 0.5

# verts
v 0.4 0 0
v 0.4 0 -0.1
v 0.4 0.1 0
v 0.4 0.1 -0.1
v 0.4 0.3 0
v 0.4 0.3 -0.1
v 0.4 0.4 0
v 0.4 0.4 -0.1
v 0.5 0 0.1
v 0.5 0 0
v 0.5 0 -0.1
v 0.5 0 -0.2
v 0.5 0.1 0.1
v 0.5 0.1 0
v 0.5 0.1 -0.1
v 0.5 0.1 -0.2
v 0.5 0.3 0.1
v 0.5 0.3 0
v 0.5 0.3 -0.1
v 0.5 0.3 -0.2
v 0.5 0.4 0.1
v 0.5 0.4 0
v 0.5 0.4 -0.1
v 0.5 0.4 -0.2
v 0.6 0 0.1
v 0.6 0 0
v 0.6 0 -0.1
v 0.6 0 -0.2
v 0.6 0.1 0.1
v 0.6 0.1 0
v 0.6 0.1 -0.1
v 0.6 0.1 -0.2
v 0.6 0.3 0.1
v 0.6 0.3 0
v 0.6 0.3 -0.1
v 0.6 0.3 -0.2
v 0.6 0.4 0.1
v 0.6 0.4 0
v 0.6 0.4 -0.1
v 0.6 0.4 -0.2
v 0.7 0 0
v 0.7 0 -0.1
v 0.7 0.1 0
v 0.7 0.1 -0.1
v 0.7 0.3 0
v 0.7 0.3 -0.1
v 0.7 0.4 0
v 0.7 0.4 -0.1
v 0.5 0 0.1
v 0.5 0.1 0.1
v 0.5 0.3 0.1
v 0.5 0.4 0.1
v 0.6 0 0.1
v 0.6 0.1 0.1
v 0.6 0.3 0.1
v 0.6 0.4 0.1
v 0.4 0 0
v 0.4 0.1 0
v 0.4 0.3 0
v 0.4 0.4 0
v 0.5 0 0
v 0.5 0.1 0
v 0.5 0.3 0
v 0.5 0.4 0
v 0.6 0 0
v 0.6 0.1 0
v 0.6 0.3 0
v 0.6 0.4 0
v 0.7 0 0
v 0.7 0.1 0
v 0.7 0.3 0
v 0.7 0.4 0
v 0.4 0 -0.1
v 0.4 0.1 -0.1
v 0.4 0.3 -0.1
v 0.4 0.4 -0.1
v 0.5 0 -0.1
v 0.5 0.1 -0.1
v 0.5 0.3 -0.1
v 0.5 0.4 -0.1
v 0.6 0 -0.1
v 0.6 0.1 -0.1
v 0.6 0.3 -0.1
v 0.6 0.4 -0.1
v 0.7 0 -0.1
v 0.7 0.1 -0.1
v 0.7 0.3 -0.1
v 0.7 0.4 -0.1
v 0.5 0 -0.2
v 0.5 0.1 -0.2
v 0.5 0.3 -0.2
v 0.5 0.4 -0.2
v 0.6 0 -0.2
v 0.6 0.1 -0.2
v 0.6 0.3 -0.2
v 0.6 0.4 -0.2
v 0.5 0 0.1
v 0.6 0 0.1
v 0.4 0 0
v 0.5 0 0
v 0.6 0 0
v 0.7 0 0
v 0.4 0 -0.1
v 0.5 0 -0.1
v 0.6 0 -0.1
v 0.7 0 -0.1
v 0.5 0 -0.2
v 0.6 0 -0.2
v 0.5 0.3 0.1
v 0.6 0.3 0.1
v 0.4 0.3 0
v 0.5 0.3 0
v 0.6 0.3 0
v 0.7 0.3 0
v 0.4 0.3 -0.1
v 0.5 0.3 -0.1
v 0.6 0.3 -0.1
v 0.7 0.3 -0.1
v 0.5 0.3 -0.2
v 0.6 0.3 -0.2
v 0.5 0.1 0.1
v 0.6 0.1 0.1
v 0.4 0.1 0
v 0.5 0.1 0
v 0.6 0.1 0
v 0.7 0.1 0
v 0.4 0.1 -0.1
v 0.5 0.1 -0.1
v 0.6 0.1 -0.1
v 0.7 0.1 -0.1
v 0.5 0.1 -0.2
v 0.6 0.1 -0.2
v 0.5 0.4 0.1
v 0.6 0.4 0.1
v 0.4 0.4 0
v 0.5 0.4 0
v 0.6 0.4 0
v 0.7 0.4 0
v 0.4 0.4 -0.1
v 0.5 0.4 -0.1
v 0.6 0.4 -0.1
v 0.7 0.4 -0.1
v 0.5 0.4 -0.2
v 0.6 0.4 -0.2

# faces
f 3/3/1 2/3/1 1/3/1
f 4/3/1 2/3/1 3/3/1
f 7/4/1 6/4/1 5/4/1
f 8/4/1 6/4/1 7/4/1
f 13/3/1 10/3/1 9/3/1
f 14/3/1 10/3/1 13/3/1
f 15/3/1 12/3/1 11/3/1
f 16/3/1 12/3/1 15/3/1
f 18/2/1 15/2/1 14/2/1
f 19/2/1 15/2/1 18/2/1
f 21/4/1 18/4/1 17/4/1
f 22/4/1 18/4/1 21/4/1
f 23/4/1 20/4/1 19/4/1
f 24/4/1 20/4/1 23/4/1
f 25/3/2 26/3/2 29/3/2
f 29/3/2 26/3/2 30/3/2
f 27/3/2 28/3/2 31/3/2
f 31/3/2 28/3/2 32/3/2
f 30/2/2 31/2/2 34/2/2
f 34/2/2 31/2/2 35/2/2
f 33/4/2 34/4/2 37/4/2
f 37/4/2 34/4/2 38/4/2
f 35/4/2 36/4/2 39/4/2
f 39/4/2 36/4/2 40/4/2
f 41/3/2 42/3/2 43/3/2
f 43/3/2 42/3/2 44/3/2
f 45/4/2 46/4/2 47/4/2
f 47/4/2 46/4/2 48/4/2
f 53/3/3 50/3/3 49/3/3
f 54/3/3 50/3/3 53/3/3
f 55/4/3 52/4/3 51/4/3
f 56/4/3 52/4/3 55/4/3
f 61/3/3 58/3/3 57/3/3
f 62/3/3 58/3/3 61/3/3
f 63/4/3 60/4/3 59/4/3
f 64/4/3 60/4/3 63/4/3
f 66/2/3 63/2/3 62/2/3
f 67/2/3 63/2/3 66/2/3
f 69/3/3 66/3/3 65/3/3
f 70/3/3 66/3/3 69/3/3
f 71/4/3 68/4/3 67/4/3
f 72/4/3 68/4/3 71/4/3
f 73/3/4 74/3/4 77/3/4
f 77/3/4 74/3/4 78/3/4
f 75/4/4 76/4/4 79/4/4
f 79/4/4 76/4/4 80/4/4
f 78/2/4 79/2/4 82/2/4
f 82/2/4 79/2/4 83/2/4
f 81/3/4 82/3/4 85/3/4
f 85/3/4 82/3/4 86/3/4
f 83/4/4 84/4/4 87/4/4
f 87/4/4 84/4/4 88/4/4
f 89/3/4 90/3/4 93/3/4
f 93/3/4 90/3/4 94/3/4
f 91/4/4 92/4/4 95/4/4
f 95/4/4 92/4/4 96/4/4
f 100/3/5 98/3/5 97/3/5
f 101/3/5 98/3/5 100/3/5
f 103/3/5 100/3/5 99/3/5
f 104/2/5 101/2/5 100/2/5
f 104/3/5 100/3/5 103/3/5
f 105/3/5 102/3/5 101/3/5
f 105/2/5 101/2/5 104/2/5
f 106/3/5 102/3/5 105/3/5
f 107/3/5 105/3/5 104/3/5
f 108/3/5 105/3/5 107/3/5
f 112/4/5 110/4/5 109/4/5
f 113/4/5 110/4/5 112/4/5
f 115/4/5 112/4/5 111/4/5
f 116/4/5 112/4/5 115/4/5
f 117/4/5 114/4/5 113/4/5
f 118/4/5 114/4/5 117/4/5
f 119/4/5 117/4/5 116/4/5
f 120/4/5 117/4/5 119/4/5
f 121/3/6 122/3/6 124/3/6
f 124/3/6 122/3/6 125/3/6
f 123/3/6 124/3/6 127/3/6
f 127/3/6 124/3/6 128/3/6
f 125/3/6 126/3/6 129/3/6
f 129/3/6 126/3/6 130/3/6
f 128/3/6 129/3/6 131/3/6
f 131/3/6 129/3/6 132/3/6
f 133/4/6 134/4/6 136/4/6
f 136/4/6 134/4/6 137/4/6
f 135/4/6 136/4/6 139/4/6
f 136/1/6 137/1/6 140/1/6
f 139/4/6 136/4/6 140/4/6
f 137/4/6 138/4/6 141/4/6
f 140/1/6 137/1/6 141/1/6
f 141/4/6 138/4/6 142/4/6
f 140/4/6 141/4/6 143/4/6
f 143/4/6 141/4/6 144/4/6
