# MagicaVoxel @ Ephtracy

# group
o 

# material
mtllib flowers-1.mtl
usemtl palette

# normals
vn -1 0 0
vn 1 0 0
vn 0 0 1
vn 0 0 -1
vn 0 -1 0
vn 0 1 0

# texcoords
vt 0.00976563 0.5
vt 0.185547 0.5
vt 0.626953 0.5
vt 0.650391 0.5

# verts
v 1.8 0 0
v 1.8 0 -0.1
v 1.8 0.1 0
v 1.8 0.1 -0.1
v 1.8 0.3 0
v 1.8 0.3 -0.1
v 1.8 0.4 0
v 1.8 0.4 -0.1
v 1.9 0 0.1
v 1.9 0 0
v 1.9 0 -0.1
v 1.9 0 -0.2
v 1.9 0.1 0.1
v 1.9 0.1 0
v 1.9 0.1 -0.1
v 1.9 0.1 -0.2
v 1.9 0.3 0.1
v 1.9 0.3 0
v 1.9 0.3 -0.1
v 1.9 0.3 -0.2
v 1.9 0.4 0.1
v 1.9 0.4 0
v 1.9 0.4 -0.1
v 1.9 0.4 -0.2
v 2 0 0.1
v 2 0 0
v 2 0 -0.1
v 2 0 -0.2
v 2 0.1 0.1
v 2 0.1 0
v 2 0.1 -0.1
v 2 0.1 -0.2
v 2 0.3 0.1
v 2 0.3 0
v 2 0.3 -0.1
v 2 0.3 -0.2
v 2 0.4 0.1
v 2 0.4 0
v 2 0.4 -0.1
v 2 0.4 -0.2
v 2.1 0 0
v 2.1 0 -0.1
v 2.1 0.1 0
v 2.1 0.1 -0.1
v 2.1 0.3 0
v 2.1 0.3 -0.1
v 2.1 0.4 0
v 2.1 0.4 -0.1
v 1.9 0 0.1
v 1.9 0.1 0.1
v 1.9 0.3 0.1
v 1.9 0.4 0.1
v 2 0 0.1
v 2 0.1 0.1
v 2 0.3 0.1
v 2 0.4 0.1
v 1.8 0 0
v 1.8 0.1 0
v 1.8 0.3 0
v 1.8 0.4 0
v 1.9 0 0
v 1.9 0.1 0
v 1.9 0.3 0
v 1.9 0.4 0
v 2 0 0
v 2 0.1 0
v 2 0.3 0
v 2 0.4 0
v 2.1 0 0
v 2.1 0.1 0
v 2.1 0.3 0
v 2.1 0.4 0
v 1.8 0 -0.1
v 1.8 0.1 -0.1
v 1.8 0.3 -0.1
v 1.8 0.4 -0.1
v 1.9 0 -0.1
v 1.9 0.1 -0.1
v 1.9 0.3 -0.1
v 1.9 0.4 -0.1
v 2 0 -0.1
v 2 0.1 -0.1
v 2 0.3 -0.1
v 2 0.4 -0.1
v 2.1 0 -0.1
v 2.1 0.1 -0.1
v 2.1 0.3 -0.1
v 2.1 0.4 -0.1
v 1.9 0 -0.2
v 1.9 0.1 -0.2
v 1.9 0.3 -0.2
v 1.9 0.4 -0.2
v 2 0 -0.2
v 2 0.1 -0.2
v 2 0.3 -0.2
v 2 0.4 -0.2
v 1.9 0 0.1
v 2 0 0.1
v 1.8 0 0
v 1.9 0 0
v 2 0 0
v 2.1 0 0
v 1.8 0 -0.1
v 1.9 0 -0.1
v 2 0 -0.1
v 2.1 0 -0.1
v 1.9 0 -0.2
v 2 0 -0.2
v 1.9 0.3 0.1
v 2 0.3 0.1
v 1.8 0.3 0
v 1.9 0.3 0
v 2 0.3 0
v 2.1 0.3 0
v 1.8 0.3 -0.1
v 1.9 0.3 -0.1
v 2 0.3 -0.1
v 2.1 0.3 -0.1
v 1.9 0.3 -0.2
v 2 0.3 -0.2
v 1.9 0.1 0.1
v 2 0.1 0.1
v 1.8 0.1 0
v 1.9 0.1 0
v 2 0.1 0
v 2.1 0.1 0
v 1.8 0.1 -0.1
v 1.9 0.1 -0.1
v 2 0.1 -0.1
v 2.1 0.1 -0.1
v 1.9 0.1 -0.2
v 2 0.1 -0.2
v 1.9 0.4 0.1
v 2 0.4 0.1
v 1.8 0.4 0
v 1.9 0.4 0
v 2 0.4 0
v 2.1 0.4 0
v 1.8 0.4 -0.1
v 1.9 0.4 -0.1
v 2 0.4 -0.1
v 2.1 0.4 -0.1
v 1.9 0.4 -0.2
v 2 0.4 -0.2

# faces
f 3/4/1 2/4/1 1/4/1
f 4/4/1 2/4/1 3/4/1
f 7/2/1 6/2/1 5/2/1
f 8/2/1 6/2/1 7/2/1
f 13/4/1 10/4/1 9/4/1
f 14/4/1 10/4/1 13/4/1
f 15/4/1 12/4/1 11/4/1
f 16/4/1 12/4/1 15/4/1
f 18/3/1 15/3/1 14/3/1
f 19/3/1 15/3/1 18/3/1
f 21/2/1 18/2/1 17/2/1
f 22/2/1 18/2/1 21/2/1
f 23/2/1 20/2/1 19/2/1
f 24/2/1 20/2/1 23/2/1
f 25/4/2 26/4/2 29/4/2
f 29/4/2 26/4/2 30/4/2
f 27/4/2 28/4/2 31/4/2
f 31/4/2 28/4/2 32/4/2
f 30/3/2 31/3/2 34/3/2
f 34/3/2 31/3/2 35/3/2
f 33/2/2 34/2/2 37/2/2
f 37/2/2 34/2/2 38/2/2
f 35/2/2 36/2/2 39/2/2
f 39/2/2 36/2/2 40/2/2
f 41/4/2 42/4/2 43/4/2
f 43/4/2 42/4/2 44/4/2
f 45/2/2 46/2/2 47/2/2
f 47/2/2 46/2/2 48/2/2
f 53/4/3 50/4/3 49/4/3
f 54/4/3 50/4/3 53/4/3
f 55/2/3 52/2/3 51/2/3
f 56/2/3 52/2/3 55/2/3
f 61/4/3 58/4/3 57/4/3
f 62/4/3 58/4/3 61/4/3
f 63/2/3 60/2/3 59/2/3
f 64/2/3 60/2/3 63/2/3
f 66/3/3 63/3/3 62/3/3
f 67/3/3 63/3/3 66/3/3
f 69/4/3 66/4/3 65/4/3
f 70/4/3 66/4/3 69/4/3
f 71/2/3 68/2/3 67/2/3
f 72/2/3 68/2/3 71/2/3
f 73/4/4 74/4/4 77/4/4
f 77/4/4 74/4/4 78/4/4
f 75/2/4 76/2/4 79/2/4
f 79/2/4 76/2/4 80/2/4
f 78/3/4 79/3/4 82/3/4
f 82/3/4 79/3/4 83/3/4
f 81/4/4 82/4/4 85/4/4
f 85/4/4 82/4/4 86/4/4
f 83/2/4 84/2/4 87/2/4
f 87/2/4 84/2/4 88/2/4
f 89/4/4 90/4/4 93/4/4
f 93/4/4 90/4/4 94/4/4
f 91/2/4 92/2/4 95/2/4
f 95/2/4 92/2/4 96/2/4
f 100/4/5 98/4/5 97/4/5
f 101/4/5 98/4/5 100/4/5
f 103/4/5 100/4/5 99/4/5
f 104/3/5 101/3/5 100/3/5
f 104/4/5 100/4/5 103/4/5
f 105/4/5 102/4/5 101/4/5
f 105/3/5 101/3/5 104/3/5
f 106/4/5 102/4/5 105/4/5
f 107/4/5 105/4/5 104/4/5
f 108/4/5 105/4/5 107/4/5
f 112/2/5 110/2/5 109/2/5
f 113/2/5 110/2/5 112/2/5
f 115/2/5 112/2/5 111/2/5
f 116/2/5 112/2/5 115/2/5
f 117/2/5 114/2/5 113/2/5
f 118/2/5 114/2/5 117/2/5
f 119/2/5 117/2/5 116/2/5
f 120/2/5 117/2/5 119/2/5
f 121/4/6 122/4/6 124/4/6
f 124/4/6 122/4/6 125/4/6
f 123/4/6 124/4/6 127/4/6
f 127/4/6 124/4/6 128/4/6
f 125/4/6 126/4/6 129/4/6
f 129/4/6 126/4/6 130/4/6
f 128/4/6 129/4/6 131/4/6
f 131/4/6 129/4/6 132/4/6
f 133/2/6 134/2/6 136/2/6
f 136/2/6 134/2/6 137/2/6
f 135/2/6 136/2/6 139/2/6
f 136/1/6 137/1/6 140/1/6
f 139/2/6 136/2/6 140/2/6
f 137/2/6 138/2/6 141/2/6
f 140/1/6 137/1/6 141/1/6
f 141/2/6 138/2/6 142/2/6
f 140/2/6 141/2/6 143/2/6
f 143/2/6 141/2/6 144/2/6
