# MagicaVoxel @ Ephtracy

# group
o 

# material
mtllib kitkat.mtl
usemtl palette

# normals
vn -1 0 0
vn 1 0 0
vn 0 0 1
vn 0 0 -1
vn 0 -1 0
vn 0 1 0

# texcoords
vt 0.208984 0.5
vt 0.212891 0.5
vt 0.216797 0.5
vt 0.994141 0.5

# verts
v -0.9 0 -0.5
v -0.9 0 -1
v -0.9 0 -1.2
v -0.9 0.1 -1
v -0.9 0.1 -1.2
v -0.9 0.4 -0.9
v -0.9 0.4 -1
v -0.9 0.5 -0.5
v -0.9 0.5 -0.9
v -0.7 0 -0.4
v -0.7 0 -0.5
v -0.7 0 -1.2
v -0.7 0 -1.5
v -0.7 0 -1.8
v -0.7 0.1 -1
v -0.7 0.1 -1.2
v -0.7 0.1 -1.5
v -0.7 0.1 -1.8
v -0.7 0.2 -1.5
v -0.7 0.2 -1.6
v -0.7 0.3 -1.6
v -0.7 0.3 -1.7
v -0.7 0.4 -0.9
v -0.7 0.4 -1
v -0.7 0.4 -1.7
v -0.7 0.4 -1.8
v -0.7 0.5 -0.4
v -0.7 0.5 -0.5
v -0.7 0.5 -0.9
v -0.7 0.6 -0.5
v -0.7 0.6 -0.6
v -0.7 0.6 -1.3
v -0.7 0.6 -1.4
v -0.7 0.6 -1.7
v -0.7 0.6 -1.8
v -0.7 0.7 -0.6
v -0.7 0.7 -1.3
v -0.7 0.8 -1.4
v -0.7 0.8 -1.8
v -0.6 0.8 -1.5
v -0.6 0.8 -1.7
v -0.6 0.9 -1.5
v -0.6 0.9 -1.6
v -0.6 1 -1.6
v -0.6 1 -1.7
v -0.5 0 -0.2
v -0.5 0 -0.4
v -0.5 0.1 0
v -0.5 0.1 -0.2
v -0.5 0.2 0.1
v -0.5 0.2 0
v -0.5 0.2 -0.2
v -0.5 0.2 -0.4
v -0.5 0.3 -0.1
v -0.5 0.3 -0.2
v -0.5 0.4 -1.8
v -0.5 0.4 -1.9
v -0.5 0.5 -0.1
v -0.5 0.5 -0.2
v -0.5 0.6 0.1
v -0.5 0.6 0
v -0.5 0.6 -0.2
v -0.5 0.6 -0.3
v -0.5 0.6 -1.8
v -0.5 0.6 -1.9
v -0.5 0.8 0
v -0.5 0.8 -0.3
v -0.3 0.8 -1.5
v -0.3 0.8 -1.7
v -0.3 0.9 -1.5
v -0.3 0.9 -1.6
v -0.3 1 -1.6
v -0.3 1 -1.7
v -0.2 0 -1.5
v -0.2 0 -1.8
v -0.2 0.1 -1.5
v -0.2 0.1 -1.8
v -0.5 0 -1.5
v -0.5 0 -1.8
v -0.5 0.1 -1.5
v -0.5 0.1 -1.8
v -0.4 0.8 -1.5
v -0.4 0.8 -1.7
v -0.4 0.9 -1.5
v -0.4 0.9 -1.6
v -0.4 1 -1.6
v -0.4 1 -1.7
v -0.2 0 -0.2
v -0.2 0 -0.4
v -0.2 0.1 0
v -0.2 0.1 -0.2
v -0.2 0.2 0.1
v -0.2 0.2 0
v -0.2 0.2 -0.2
v -0.2 0.2 -0.4
v -0.2 0.3 -0.1
v -0.2 0.3 -0.2
v -0.2 0.4 -1.8
v -0.2 0.4 -1.9
v -0.2 0.5 -0.1
v -0.2 0.5 -0.2
v -0.2 0.6 0.1
v -0.2 0.6 0
v -0.2 0.6 -0.2
v -0.2 0.6 -0.3
v -0.2 0.6 -1.8
v -0.2 0.6 -1.9
v -0.2 0.8 0
v -0.2 0.8 -0.3
v -0.1 0.8 -1.5
v -0.1 0.8 -1.7
v -0.1 0.9 -1.5
v -0.1 0.9 -1.6
v -0.1 1 -1.6
v -0.1 1 -1.7
v 0 0 -0.4
v 0 0 -0.5
v 0 0 -1.2
v 0 0 -1.5
v 0 0 -1.8
v 0 0.1 -1
v 0 0.1 -1.2
v 0 0.1 -1.5
v 0 0.1 -1.8
v 0 0.2 -1.5
v 0 0.2 -1.6
v 0 0.3 -1.6
v 0 0.3 -1.7
v 0 0.4 -0.9
v 0 0.4 -1
v 0 0.4 -1.7
v 0 0.4 -1.8
v 0 0.5 -0.4
v 0 0.5 -0.5
v 0 0.5 -0.9
v 0 0.6 -0.5
v 0 0.6 -0.6
v 0 0.6 -1.3
v 0 0.6 -1.4
v 0 0.6 -1.7
v 0 0.6 -1.8
v 0 0.7 -0.6
v 0 0.7 -1.3
v 0 0.8 -1.4
v 0 0.8 -1.8
v 0.2 0 -0.5
v 0.2 0 -1
v 0.2 0 -1.2
v 0.2 0.1 -1
v 0.2 0.1 -1.2
v 0.2 0.4 -0.9
v 0.2 0.4 -1
v 0.2 0.5 -0.5
v 0.2 0.5 -0.9
v -0.5 0.2 0.1
v -0.5 0.6 0.1
v -0.4 0.2 0.1
v -0.4 0.6 0.1
v -0.3 0.2 0.1
v -0.3 0.6 0.1
v -0.2 0.2 0.1
v -0.2 0.6 0.1
v -0.5 0.1 0
v -0.5 0.2 0
v -0.5 0.6 0
v -0.5 0.8 0
v -0.4 0.1 0
v -0.4 0.2 0
v -0.4 0.6 0
v -0.4 0.8 0
v -0.3 0.1 0
v -0.3 0.2 0
v -0.3 0.6 0
v -0.3 0.8 0
v -0.2 0.1 0
v -0.2 0.2 0
v -0.2 0.6 0
v -0.2 0.8 0
v -0.5 0 -0.2
v -0.5 0.1 -0.2
v -0.4 0 -0.2
v -0.4 0.1 -0.2
v -0.3 0 -0.2
v -0.3 0.1 -0.2
v -0.2 0 -0.2
v -0.2 0.1 -0.2
v -0.7 0 -0.4
v -0.7 0.5 -0.4
v -0.5 0 -0.4
v -0.5 0.2 -0.4
v -0.4 0.2 -0.4
v -0.3 0.2 -0.4
v -0.2 0 -0.4
v -0.2 0.2 -0.4
v 0 0 -0.4
v 0 0.5 -0.4
v -0.9 0 -0.5
v -0.9 0.5 -0.5
v -0.7 0 -0.5
v -0.7 0.5 -0.5
v -0.7 0.6 -0.5
v 0 0 -0.5
v 0 0.5 -0.5
v 0 0.6 -0.5
v 0.2 0 -0.5
v 0.2 0.5 -0.5
v -0.7 0.6 -0.6
v -0.7 0.7 -0.6
v 0 0.6 -0.6
v 0 0.7 -0.6
v -0.7 0.6 -1.4
v -0.7 0.8 -1.4
v 0 0.6 -1.4
v 0 0.8 -1.4
v -0.6 0.8 -1.5
v -0.6 0.9 -1.5
v -0.4 0.8 -1.5
v -0.4 0.9 -1.5
v -0.3 0.8 -1.5
v -0.3 0.9 -1.5
v -0.1 0.8 -1.5
v -0.1 0.9 -1.5
v -0.6 0.9 -1.6
v -0.6 1 -1.6
v -0.4 0.9 -1.6
v -0.4 1 -1.6
v -0.3 0.9 -1.6
v -0.3 1 -1.6
v -0.1 0.9 -1.6
v -0.1 1 -1.6
v -0.5 0.3 -0.1
v -0.5 0.5 -0.1
v -0.4 0.3 -0.1
v -0.4 0.5 -0.1
v -0.3 0.3 -0.1
v -0.3 0.5 -0.1
v -0.2 0.3 -0.1
v -0.2 0.5 -0.1
v -0.5 0.2 -0.2
v -0.5 0.3 -0.2
v -0.5 0.5 -0.2
v -0.5 0.6 -0.2
v -0.4 0.2 -0.2
v -0.4 0.3 -0.2
v -0.4 0.5 -0.2
v -0.4 0.6 -0.2
v -0.3 0.2 -0.2
v -0.3 0.3 -0.2
v -0.3 0.5 -0.2
v -0.3 0.6 -0.2
v -0.2 0.2 -0.2
v -0.2 0.3 -0.2
v -0.2 0.5 -0.2
v -0.2 0.6 -0.2
v -0.5 0.6 -0.3
v -0.5 0.8 -0.3
v -0.4 0.6 -0.3
v -0.4 0.8 -0.3
v -0.3 0.6 -0.3
v -0.3 0.8 -0.3
v -0.2 0.6 -0.3
v -0.2 0.8 -0.3
v -0.9 0.4 -0.9
v -0.9 0.5 -0.9
v -0.7 0.4 -0.9
v -0.7 0.5 -0.9
v 0 0.4 -0.9
v 0 0.5 -0.9
v 0.2 0.4 -0.9
v 0.2 0.5 -0.9
v -0.9 0.1 -1
v -0.9 0.4 -1
v -0.7 0.1 -1
v -0.7 0.4 -1
v 0 0.1 -1
v 0 0.4 -1
v 0.2 0.1 -1
v 0.2 0.4 -1
v -0.9 0 -1.2
v -0.9 0.1 -1.2
v -0.7 0 -1.2
v -0.7 0.1 -1.2
v 0 0 -1.2
v 0 0.1 -1.2
v 0.2 0 -1.2
v 0.2 0.1 -1.2
v -0.7 0.6 -1.3
v -0.7 0.7 -1.3
v 0 0.6 -1.3
v 0 0.7 -1.3
v -0.7 0.1 -1.5
v -0.7 0.2 -1.5
v -0.5 0 -1.5
v -0.5 0.1 -1.5
v -0.5 0.2 -1.5
v -0.2 0 -1.5
v -0.2 0.1 -1.5
v -0.2 0.2 -1.5
v 0 0.1 -1.5
v 0 0.2 -1.5
v -0.7 0.2 -1.6
v -0.7 0.3 -1.6
v -0.5 0.2 -1.6
v -0.5 0.3 -1.6
v -0.2 0.2 -1.6
v -0.2 0.3 -1.6
v 0 0.2 -1.6
v 0 0.3 -1.6
v -0.7 0.3 -1.7
v -0.7 0.4 -1.7
v -0.6 0.8 -1.7
v -0.6 1 -1.7
v -0.5 0.4 -1.7
v -0.4 0.8 -1.7
v -0.4 1 -1.7
v -0.3 0.8 -1.7
v -0.3 1 -1.7
v -0.2 0.4 -1.7
v -0.1 0.8 -1.7
v -0.1 1 -1.7
v 0 0.3 -1.7
v 0 0.4 -1.7
v -0.7 0 -1.8
v -0.7 0.1 -1.8
v -0.7 0.4 -1.8
v -0.7 0.6 -1.8
v -0.7 0.8 -1.8
v -0.6 0.6 -1.8
v -0.6 0.7 -1.8
v -0.5 0 -1.8
v -0.5 0.1 -1.8
v -0.5 0.4 -1.8
v -0.5 0.6 -1.8
v -0.5 0.7 -1.8
v -0.4 0.6 -1.8
v -0.3 0.6 -1.8
v -0.2 0 -1.8
v -0.2 0.1 -1.8
v -0.2 0.4 -1.8
v -0.2 0.6 -1.8
v -0.2 0.7 -1.8
v -0.1 0.6 -1.8
v -0.1 0.7 -1.8
v 0 0 -1.8
v 0 0.1 -1.8
v 0 0.4 -1.8
v 0 0.6 -1.8
v 0 0.8 -1.8
v -0.5 0.4 -1.9
v -0.5 0.6 -1.9
v -0.4 0.5 -1.9
v -0.4 0.6 -1.9
v -0.3 0.5 -1.9
v -0.3 0.6 -1.9
v -0.2 0.4 -1.9
v -0.2 0.6 -1.9
v -0.5 0 -0.2
v -0.4 0 -0.2
v -0.3 0 -0.2
v -0.2 0 -0.2
v -0.4 0 -0.3
v -0.3 0 -0.3
v -0.7 0 -0.4
v -0.5 0 -0.4
v -0.4 0 -0.4
v -0.3 0 -0.4
v -0.2 0 -0.4
v 0 0 -0.4
v -0.9 0 -0.5
v -0.7 0 -0.5
v 0 0 -0.5
v 0.2 0 -0.5
v 0 0 -0.6
v 0.1 0 -0.6
v -0.9 0 -1
v -0.7 0 -1
v 0 0 -1
v 0.1 0 -1
v 0.2 0 -1
v -0.9 0 -1.2
v -0.7 0 -1.2
v 0 0 -1.2
v 0.2 0 -1.2
v -0.5 0 -1.4
v -0.2 0 -1.4
v -0.7 0 -1.5
v -0.5 0 -1.5
v -0.2 0 -1.5
v 0 0 -1.5
v -0.7 0 -1.8
v -0.5 0 -1.8
v -0.2 0 -1.8
v 0 0 -1.8
v -0.5 0.1 0
v -0.4 0.1 0
v -0.3 0.1 0
v -0.2 0.1 0
v -0.5 0.1 -0.2
v -0.4 0.1 -0.2
v -0.3 0.1 -0.2
v -0.2 0.1 -0.2
v -0.5 0.2 0.1
v -0.4 0.2 0.1
v -0.3 0.2 0.1
v -0.2 0.2 0.1
v -0.5 0.2 0
v -0.4 0.2 0
v -0.3 0.2 0
v -0.2 0.2 0
v -0.7 0.2 -1.5
v -0.5 0.2 -1.5
v -0.2 0.2 -1.5
v 0 0.2 -1.5
v -0.7 0.2 -1.6
v -0.5 0.2 -1.6
v -0.2 0.2 -1.6
v 0 0.2 -1.6
v -0.7 0.3 -1.6
v -0.5 0.3 -1.6
v -0.2 0.3 -1.6
v 0 0.3 -1.6
v -0.7 0.3 -1.7
v 0 0.3 -1.7
v -0.7 0.4 -1.7
v -0.5 0.4 -1.7
v -0.2 0.4 -1.7
v 0 0.4 -1.7
v -0.7 0.4 -1.8
v -0.5 0.4 -1.8
v -0.2 0.4 -1.8
v 0 0.4 -1.8
v -0.5 0.4 -1.9
v -0.2 0.4 -1.9
v -0.5 0.5 -0.1
v -0.4 0.5 -0.1
v -0.3 0.5 -0.1
v -0.2 0.5 -0.1
v -0.5 0.5 -0.2
v -0.4 0.5 -0.2
v -0.3 0.5 -0.2
v -0.2 0.5 -0.2
v -0.5 0.6 -0.2
v -0.4 0.6 -0.2
v -0.3 0.6 -0.2
v -0.2 0.6 -0.2
v -0.5 0.6 -0.3
v -0.4 0.6 -0.3
v -0.3 0.6 -0.3
v -0.2 0.6 -0.3
v -0.9 0.1 -1
v -0.7 0.1 -1
v 0 0.1 -1
v 0.2 0.1 -1
v -0.9 0.1 -1.2
v -0.7 0.1 -1.2
v 0 0.1 -1.2
v 0.2 0.1 -1.2
v -0.7 0.1 -1.5
v -0.5 0.1 -1.5
v -0.2 0.1 -1.5
v 0 0.1 -1.5
v -0.7 0.1 -1.8
v -0.5 0.1 -1.8
v -0.2 0.1 -1.8
v 0 0.1 -1.8
v -0.5 0.2 -0.2
v -0.4 0.2 -0.2
v -0.3 0.2 -0.2
v -0.2 0.2 -0.2
v -0.5 0.2 -0.4
v -0.4 0.2 -0.4
v -0.3 0.2 -0.4
v -0.2 0.2 -0.4
v -0.5 0.3 -0.1
v -0.4 0.3 -0.1
v -0.3 0.3 -0.1
v -0.2 0.3 -0.1
v -0.5 0.3 -0.2
v -0.4 0.3 -0.2
v -0.3 0.3 -0.2
v -0.2 0.3 -0.2
v -0.9 0.4 -0.9
v -0.7 0.4 -0.9
v 0 0.4 -0.9
v 0.2 0.4 -0.9
v -0.9 0.4 -1
v -0.7 0.4 -1
v 0 0.4 -1
v 0.2 0.4 -1
v -0.7 0.5 -0.4
v 0 0.5 -0.4
v -0.9 0.5 -0.5
v -0.7 0.5 -0.5
v 0 0.5 -0.5
v 0.2 0.5 -0.5
v -0.9 0.5 -0.9
v -0.7 0.5 -0.9
v 0 0.5 -0.9
v 0.2 0.5 -0.9
v -0.5 0.6 0.1
v -0.4 0.6 0.1
v -0.3 0.6 0.1
v -0.2 0.6 0.1
v -0.5 0.6 0
v -0.4 0.6 0
v -0.3 0.6 0
v -0.2 0.6 0
v -0.7 0.6 -0.5
v 0 0.6 -0.5
v -0.7 0.6 -0.6
v 0 0.6 -0.6
v -0.7 0.6 -1.3
v 0 0.6 -1.3
v -0.7 0.6 -1.4
v 0 0.6 -1.4
v -0.5 0.6 -1.8
v -0.4 0.6 -1.8
v -0.3 0.6 -1.8
v -0.2 0.6 -1.8
v -0.5 0.6 -1.9
v -0.4 0.6 -1.9
v -0.3 0.6 -1.9
v -0.2 0.6 -1.9
v -0.7 0.7 -0.6
v 0 0.7 -0.6
v -0.7 0.7 -1.3
v 0 0.7 -1.3
v -0.5 0.8 0
v -0.4 0.8 0
v -0.3 0.8 0
v -0.2 0.8 0
v -0.5 0.8 -0.3
v -0.4 0.8 -0.3
v -0.3 0.8 -0.3
v -0.2 0.8 -0.3
v -0.7 0.8 -1.4
v 0 0.8 -1.4
v -0.6 0.8 -1.5
v -0.4 0.8 -1.5
v -0.3 0.8 -1.5
v -0.1 0.8 -1.5
v -0.6 0.8 -1.7
v -0.4 0.8 -1.7
v -0.3 0.8 -1.7
v -0.1 0.8 -1.7
v -0.7 0.8 -1.8
v 0 0.8 -1.8
v -0.6 0.9 -1.5
v -0.4 0.9 -1.5
v -0.3 0.9 -1.5
v -0.1 0.9 -1.5
v -0.6 0.9 -1.6
v -0.4 0.9 -1.6
v -0.3 0.9 -1.6
v -0.1 0.9 -1.6
v -0.6 1 -1.6
v -0.4 1 -1.6
v -0.3 1 -1.6
v -0.1 1 -1.6
v -0.6 1 -1.7
v -0.4 1 -1.7
v -0.3 1 -1.7
v -0.1 1 -1.7

# faces
f 4/3/1 2/3/1 1/3/1
f 4/1/1 3/1/1 2/1/1
f 5/1/1 3/1/1 4/1/1
f 6/3/1 4/3/1 1/3/1
f 7/3/1 4/3/1 6/3/1
f 8/3/1 6/3/1 1/3/1
f 9/3/1 6/3/1 8/3/1
f 16/2/1 13/2/1 12/2/1
f 17/1/1 14/1/1 13/1/1
f 17/2/1 13/2/1 16/2/1
f 18/1/1 14/1/1 17/1/1
f 19/2/1 16/2/1 15/2/1
f 19/2/1 17/2/1 16/2/1
f 21/2/1 20/2/1 19/2/1
f 24/2/1 19/2/1 15/2/1
f 24/2/1 22/2/1 21/2/1
f 24/2/1 21/2/1 19/2/1
f 25/2/1 22/2/1 24/2/1
f 27/2/1 11/2/1 10/2/1
f 28/2/1 11/2/1 27/2/1
f 29/2/1 24/2/1 23/2/1
f 29/2/1 25/2/1 24/2/1
f 30/2/1 29/2/1 28/2/1
f 31/2/1 29/2/1 30/2/1
f 32/2/1 25/2/1 29/2/1
f 32/2/1 29/2/1 31/2/1
f 33/2/1 25/2/1 32/2/1
f 34/3/1 26/3/1 25/3/1
f 34/2/1 25/2/1 33/2/1
f 35/3/1 26/3/1 34/3/1
f 36/2/1 32/2/1 31/2/1
f 37/2/1 32/2/1 36/2/1
f 38/2/1 35/2/1 34/2/1
f 38/2/1 34/2/1 33/2/1
f 39/2/1 35/2/1 38/2/1
f 42/3/1 41/3/1 40/3/1
f 43/3/1 41/3/1 42/3/1
f 44/3/1 41/3/1 43/3/1
f 45/3/1 41/3/1 44/3/1
f 49/3/1 47/3/1 46/3/1
f 51/3/1 49/3/1 48/3/1
f 52/3/1 47/3/1 49/3/1
f 52/3/1 49/3/1 51/3/1
f 53/3/1 47/3/1 52/3/1
f 54/3/1 51/3/1 50/3/1
f 54/3/1 52/3/1 51/3/1
f 55/3/1 52/3/1 54/3/1
f 58/3/1 54/3/1 50/3/1
f 60/3/1 58/3/1 50/3/1
f 60/3/1 59/3/1 58/3/1
f 61/3/1 59/3/1 60/3/1
f 62/3/1 59/3/1 61/3/1
f 64/2/1 57/2/1 56/2/1
f 65/2/1 57/2/1 64/2/1
f 66/3/1 63/3/1 62/3/1
f 66/3/1 62/3/1 61/3/1
f 67/3/1 63/3/1 66/3/1
f 70/3/1 69/3/1 68/3/1
f 71/3/1 69/3/1 70/3/1
f 72/3/1 69/3/1 71/3/1
f 73/3/1 69/3/1 72/3/1
f 76/1/1 75/1/1 74/1/1
f 77/1/1 75/1/1 76/1/1
f 78/1/2 79/1/2 80/1/2
f 80/1/2 79/1/2 81/1/2
f 82/3/2 83/3/2 84/3/2
f 84/3/2 83/3/2 85/3/2
f 85/3/2 83/3/2 86/3/2
f 86/3/2 83/3/2 87/3/2
f 88/3/2 89/3/2 91/3/2
f 90/3/2 91/3/2 93/3/2
f 91/3/2 89/3/2 94/3/2
f 93/3/2 91/3/2 94/3/2
f 94/3/2 89/3/2 95/3/2
f 92/3/2 93/3/2 96/3/2
f 93/3/2 94/3/2 96/3/2
f 96/3/2 94/3/2 97/3/2
f 92/3/2 96/3/2 100/3/2
f 92/3/2 100/3/2 102/3/2
f 100/3/2 101/3/2 102/3/2
f 102/3/2 101/3/2 103/3/2
f 103/3/2 101/3/2 104/3/2
f 98/2/2 99/2/2 106/2/2
f 106/2/2 99/2/2 107/2/2
f 104/3/2 105/3/2 108/3/2
f 103/3/2 104/3/2 108/3/2
f 108/3/2 105/3/2 109/3/2
f 110/3/2 111/3/2 112/3/2
f 112/3/2 111/3/2 113/3/2
f 113/3/2 111/3/2 114/3/2
f 114/3/2 111/3/2 115/3/2
f 118/2/2 119/2/2 122/2/2
f 119/1/2 120/1/2 123/1/2
f 122/2/2 119/2/2 123/2/2
f 123/1/2 120/1/2 124/1/2
f 121/2/2 122/2/2 125/2/2
f 122/2/2 123/2/2 125/2/2
f 125/2/2 126/2/2 127/2/2
f 121/2/2 125/2/2 130/2/2
f 127/2/2 128/2/2 130/2/2
f 125/2/2 127/2/2 130/2/2
f 130/2/2 128/2/2 131/2/2
f 116/2/2 117/2/2 133/2/2
f 133/2/2 117/2/2 134/2/2
f 129/2/2 130/2/2 135/2/2
f 130/2/2 131/2/2 135/2/2
f 134/2/2 135/2/2 136/2/2
f 136/2/2 135/2/2 137/2/2
f 135/2/2 131/2/2 138/2/2
f 137/2/2 135/2/2 138/2/2
f 138/2/2 131/2/2 139/2/2
f 131/3/2 132/3/2 140/3/2
f 139/2/2 131/2/2 140/2/2
f 140/3/2 132/3/2 141/3/2
f 137/2/2 138/2/2 142/2/2
f 142/2/2 138/2/2 143/2/2
f 140/2/2 141/2/2 144/2/2
f 139/2/2 140/2/2 144/2/2
f 144/2/2 141/2/2 145/2/2
f 146/3/2 147/3/2 149/3/2
f 147/1/2 148/1/2 149/1/2
f 149/1/2 148/1/2 150/1/2
f 146/3/2 149/3/2 151/3/2
f 151/3/2 149/3/2 152/3/2
f 146/3/2 151/3/2 153/3/2
f 153/3/2 151/3/2 154/3/2
f 157/3/3 156/3/3 155/3/3
f 158/3/3 156/3/3 157/3/3
f 159/1/3 158/1/3 157/1/3
f 160/1/3 158/1/3 159/1/3
f 161/3/3 160/3/3 159/3/3
f 162/3/3 160/3/3 161/3/3
f 167/3/3 164/3/3 163/3/3
f 168/3/3 164/3/3 167/3/3
f 169/3/3 166/3/3 165/3/3
f 170/3/3 166/3/3 169/3/3
f 171/1/3 168/1/3 167/1/3
f 172/1/3 168/1/3 171/1/3
f 173/1/3 170/1/3 169/1/3
f 174/1/3 170/1/3 173/1/3
f 175/3/3 172/3/3 171/3/3
f 176/3/3 172/3/3 175/3/3
f 177/3/3 174/3/3 173/3/3
f 178/3/3 174/3/3 177/3/3
f 181/3/3 180/3/3 179/3/3
f 182/3/3 180/3/3 181/3/3
f 183/1/3 182/1/3 181/1/3
f 184/1/3 182/1/3 183/1/3
f 185/3/3 184/3/3 183/3/3
f 186/3/3 184/3/3 185/3/3
f 189/2/3 188/2/3 187/2/3
f 190/2/3 188/2/3 189/2/3
f 191/2/3 188/2/3 190/2/3
f 192/2/3 188/2/3 191/2/3
f 194/2/3 188/2/3 192/2/3
f 195/2/3 194/2/3 193/2/3
f 196/2/3 188/2/3 194/2/3
f 196/2/3 194/2/3 195/2/3
f 199/3/3 198/3/3 197/3/3
f 200/3/3 198/3/3 199/3/3
f 203/2/3 201/2/3 200/2/3
f 204/2/3 201/2/3 203/2/3
f 205/3/3 203/3/3 202/3/3
f 206/3/3 203/3/3 205/3/3
f 209/2/3 208/2/3 207/2/3
f 210/2/3 208/2/3 209/2/3
f 213/2/3 212/2/3 211/2/3
f 214/2/3 212/2/3 213/2/3
f 217/3/3 216/3/3 215/3/3
f 218/3/3 216/3/3 217/3/3
f 221/3/3 220/3/3 219/3/3
f 222/3/3 220/3/3 221/3/3
f 225/3/3 224/3/3 223/3/3
f 226/3/3 224/3/3 225/3/3
f 229/3/3 228/3/3 227/3/3
f 230/3/3 228/3/3 229/3/3
f 231/3/4 232/3/4 233/3/4
f 233/3/4 232/3/4 234/3/4
f 233/1/4 234/1/4 235/1/4
f 235/1/4 234/1/4 236/1/4
f 235/3/4 236/3/4 237/3/4
f 237/3/4 236/3/4 238/3/4
f 239/3/4 240/3/4 243/3/4
f 243/3/4 240/3/4 244/3/4
f 241/3/4 242/3/4 245/3/4
f 245/3/4 242/3/4 246/3/4
f 243/1/4 244/1/4 247/1/4
f 247/1/4 244/1/4 248/1/4
f 245/1/4 246/1/4 249/1/4
f 249/1/4 246/1/4 250/1/4
f 247/3/4 248/3/4 251/3/4
f 251/3/4 248/3/4 252/3/4
f 249/3/4 250/3/4 253/3/4
f 253/3/4 250/3/4 254/3/4
f 255/3/4 256/3/4 257/3/4
f 257/3/4 256/3/4 258/3/4
f 257/1/4 258/1/4 259/1/4
f 259/1/4 258/1/4 260/1/4
f 259/3/4 260/3/4 261/3/4
f 261/3/4 260/3/4 262/3/4
f 263/3/4 264/3/4 265/3/4
f 265/3/4 264/3/4 266/3/4
f 267/3/4 268/3/4 269/3/4
f 269/3/4 268/3/4 270/3/4
f 271/3/4 272/3/4 273/3/4
f 273/3/4 272/3/4 274/3/4
f 275/3/4 276/3/4 277/3/4
f 277/3/4 276/3/4 278/3/4
f 279/1/4 280/1/4 281/1/4
f 281/1/4 280/1/4 282/1/4
f 283/1/4 284/1/4 285/1/4
f 285/1/4 284/1/4 286/1/4
f 287/2/4 288/2/4 289/2/4
f 289/2/4 288/2/4 290/2/4
f 291/2/4 292/2/4 294/2/4
f 294/2/4 292/2/4 295/2/4
f 293/3/4 294/3/4 296/3/4
f 294/3/4 295/3/4 296/3/4
f 296/3/4 295/3/4 297/3/4
f 297/3/4 295/3/4 298/3/4
f 297/2/4 298/2/4 299/2/4
f 299/2/4 298/2/4 300/2/4
f 301/2/4 302/2/4 303/2/4
f 303/2/4 302/2/4 304/2/4
f 303/3/4 304/3/4 305/3/4
f 305/3/4 304/3/4 306/3/4
f 305/2/4 306/2/4 307/2/4
f 307/2/4 306/2/4 308/2/4
f 309/2/4 310/2/4 313/2/4
f 311/3/4 312/3/4 314/3/4
f 314/3/4 312/3/4 315/3/4
f 309/2/4 313/2/4 318/2/4
f 316/3/4 317/3/4 319/3/4
f 319/3/4 317/3/4 320/3/4
f 309/2/4 318/2/4 321/2/4
f 321/2/4 318/2/4 322/2/4
f 325/3/4 326/3/4 328/3/4
f 326/2/4 327/2/4 328/2/4
f 328/2/4 327/2/4 329/2/4
f 323/1/4 324/1/4 330/1/4
f 330/1/4 324/1/4 331/1/4
f 325/3/4 328/3/4 332/3/4
f 328/4/4 329/4/4 333/4/4
f 332/3/4 328/3/4 333/3/4
f 329/2/4 327/2/4 334/2/4
f 333/4/4 329/4/4 334/4/4
f 333/2/4 334/2/4 335/2/4
f 335/2/4 334/2/4 336/2/4
f 336/2/4 334/2/4 340/2/4
f 334/2/4 327/2/4 341/2/4
f 340/2/4 334/2/4 341/2/4
f 339/3/4 340/3/4 342/3/4
f 340/4/4 341/4/4 342/4/4
f 341/2/4 327/2/4 343/2/4
f 342/4/4 341/4/4 343/4/4
f 337/1/4 338/1/4 344/1/4
f 344/1/4 338/1/4 345/1/4
f 339/3/4 342/3/4 346/3/4
f 342/2/4 343/2/4 347/2/4
f 346/3/4 342/3/4 347/3/4
f 343/2/4 327/2/4 348/2/4
f 347/2/4 343/2/4 348/2/4
f 349/2/4 350/2/4 351/2/4
f 351/2/4 350/2/4 352/2/4
f 349/2/4 351/2/4 353/2/4
f 351/4/4 352/4/4 353/4/4
f 353/4/4 352/4/4 354/4/4
f 349/2/4 353/2/4 355/2/4
f 353/2/4 354/2/4 355/2/4
f 355/2/4 354/2/4 356/2/4
f 361/3/5 358/3/5 357/3/5
f 361/1/5 359/1/5 358/1/5
f 362/3/5 360/3/5 359/3/5
f 362/1/5 359/1/5 361/1/5
f 364/3/5 361/3/5 357/3/5
f 365/2/5 362/2/5 361/2/5
f 365/3/5 361/3/5 364/3/5
f 366/3/5 360/3/5 362/3/5
f 366/2/5 362/2/5 365/2/5
f 367/3/5 360/3/5 366/3/5
f 370/2/5 365/2/5 364/2/5
f 370/2/5 368/2/5 367/2/5
f 370/2/5 367/2/5 366/2/5
f 370/2/5 366/2/5 365/2/5
f 370/2/5 364/2/5 363/2/5
f 371/2/5 368/2/5 370/2/5
f 373/2/5 371/2/5 370/2/5
f 373/3/5 372/3/5 371/3/5
f 374/3/5 372/3/5 373/3/5
f 375/3/5 370/3/5 369/3/5
f 376/2/5 373/2/5 370/2/5
f 376/3/5 370/3/5 375/3/5
f 376/2/5 374/2/5 373/2/5
f 377/2/5 374/2/5 376/2/5
f 378/3/5 372/3/5 374/3/5
f 378/2/5 374/2/5 377/2/5
f 379/3/5 372/3/5 378/3/5
f 380/1/5 376/1/5 375/1/5
f 381/2/5 377/2/5 376/2/5
f 381/1/5 376/1/5 380/1/5
f 382/1/5 378/1/5 377/1/5
f 382/2/5 377/2/5 381/2/5
f 382/1/5 379/1/5 378/1/5
f 383/1/5 379/1/5 382/1/5
f 384/2/5 382/2/5 381/2/5
f 385/2/5 382/2/5 384/2/5
f 386/2/5 384/2/5 381/2/5
f 387/3/5 385/3/5 384/3/5
f 387/2/5 384/2/5 386/2/5
f 388/2/5 382/2/5 385/2/5
f 388/3/5 385/3/5 387/3/5
f 389/2/5 382/2/5 388/2/5
f 390/1/5 387/1/5 386/1/5
f 391/1/5 387/1/5 390/1/5
f 392/1/5 389/1/5 388/1/5
f 393/1/5 389/1/5 392/1/5
f 398/3/5 395/3/5 394/3/5
f 399/1/5 396/1/5 395/1/5
f 399/3/5 395/3/5 398/3/5
f 400/3/5 397/3/5 396/3/5
f 400/1/5 396/1/5 399/1/5
f 401/3/5 397/3/5 400/3/5
f 406/3/5 403/3/5 402/3/5
f 407/1/5 404/1/5 403/1/5
f 407/3/5 403/3/5 406/3/5
f 408/3/5 405/3/5 404/3/5
f 408/1/5 404/1/5 407/1/5
f 409/3/5 405/3/5 408/3/5
f 414/2/5 411/2/5 410/2/5
f 415/3/5 412/3/5 411/3/5
f 415/2/5 411/2/5 414/2/5
f 416/2/5 413/2/5 412/2/5
f 416/3/5 412/3/5 415/3/5
f 417/2/5 413/2/5 416/2/5
f 422/2/5 419/2/5 418/2/5
f 422/2/5 421/2/5 420/2/5
f 422/2/5 420/2/5 419/2/5
f 423/2/5 421/2/5 422/2/5
f 428/3/5 425/3/5 424/3/5
f 429/2/5 426/2/5 425/2/5
f 429/3/5 425/3/5 428/3/5
f 430/3/5 427/3/5 426/3/5
f 430/2/5 426/2/5 429/2/5
f 431/3/5 427/3/5 430/3/5
f 432/2/5 430/2/5 429/2/5
f 433/2/5 430/2/5 432/2/5
f 438/3/5 435/3/5 434/3/5
f 439/1/5 436/1/5 435/1/5
f 439/3/5 435/3/5 438/3/5
f 440/3/5 437/3/5 436/3/5
f 440/1/5 436/1/5 439/1/5
f 441/3/5 437/3/5 440/3/5
f 446/3/5 443/3/5 442/3/5
f 447/1/5 444/1/5 443/1/5
f 447/3/5 443/3/5 446/3/5
f 448/3/5 445/3/5 444/3/5
f 448/1/5 444/1/5 447/1/5
f 449/3/5 445/3/5 448/3/5
f 450/1/6 451/1/6 454/1/6
f 454/1/6 451/1/6 455/1/6
f 452/1/6 453/1/6 456/1/6
f 456/1/6 453/1/6 457/1/6
f 458/1/6 459/1/6 462/1/6
f 462/1/6 459/1/6 463/1/6
f 460/1/6 461/1/6 464/1/6
f 464/1/6 461/1/6 465/1/6
f 466/3/6 467/3/6 470/3/6
f 467/1/6 468/1/6 471/1/6
f 470/3/6 467/3/6 471/3/6
f 468/3/6 469/3/6 472/3/6
f 471/1/6 468/1/6 472/1/6
f 472/3/6 469/3/6 473/3/6
f 474/3/6 475/3/6 478/3/6
f 475/1/6 476/1/6 479/1/6
f 478/3/6 475/3/6 479/3/6
f 476/3/6 477/3/6 480/3/6
f 479/1/6 476/1/6 480/1/6
f 480/3/6 477/3/6 481/3/6
f 482/3/6 483/3/6 486/3/6
f 486/3/6 483/3/6 487/3/6
f 484/3/6 485/3/6 488/3/6
f 488/3/6 485/3/6 489/3/6
f 490/2/6 491/2/6 493/2/6
f 493/2/6 491/2/6 494/2/6
f 492/3/6 493/3/6 496/3/6
f 496/3/6 493/3/6 497/3/6
f 494/3/6 495/3/6 498/3/6
f 498/3/6 495/3/6 499/3/6
f 500/3/6 501/3/6 504/3/6
f 501/1/6 502/1/6 505/1/6
f 504/3/6 501/3/6 505/3/6
f 502/3/6 503/3/6 506/3/6
f 505/1/6 502/1/6 506/1/6
f 506/3/6 503/3/6 507/3/6
f 508/2/6 509/2/6 510/2/6
f 510/2/6 509/2/6 511/2/6
f 512/2/6 513/2/6 514/2/6
f 514/2/6 513/2/6 515/2/6
f 516/2/6 517/2/6 520/2/6
f 517/4/6 518/4/6 521/4/6
f 520/2/6 517/2/6 521/2/6
f 518/2/6 519/2/6 522/2/6
f 521/4/6 518/4/6 522/4/6
f 522/2/6 519/2/6 523/2/6
f 524/2/6 525/2/6 526/2/6
f 526/2/6 525/2/6 527/2/6
f 528/3/6 529/3/6 532/3/6
f 529/1/6 530/1/6 533/1/6
f 532/3/6 529/3/6 533/3/6
f 530/3/6 531/3/6 534/3/6
f 533/1/6 530/1/6 534/1/6
f 534/3/6 531/3/6 535/3/6
f 536/2/6 537/2/6 538/2/6
f 538/2/6 537/2/6 539/2/6
f 539/2/6 537/2/6 540/2/6
f 540/2/6 537/2/6 541/2/6
f 536/2/6 538/2/6 542/2/6
f 539/2/6 540/2/6 543/2/6
f 543/2/6 540/2/6 544/2/6
f 541/2/6 537/2/6 545/2/6
f 543/2/6 544/2/6 546/2/6
f 544/2/6 545/2/6 546/2/6
f 536/2/6 542/2/6 546/2/6
f 542/2/6 543/2/6 546/2/6
f 545/2/6 537/2/6 547/2/6
f 546/2/6 545/2/6 547/2/6
f 548/3/6 549/3/6 552/3/6
f 552/3/6 549/3/6 553/3/6
f 550/3/6 551/3/6 554/3/6
f 554/3/6 551/3/6 555/3/6
f 556/3/6 557/3/6 560/3/6
f 560/3/6 557/3/6 561/3/6
f 558/3/6 559/3/6 562/3/6
f 562/3/6 559/3/6 563/3/6
