# MagicaVoxel @ Ephtracy

# group
o 

# material
mtllib Tissue.mtl
usemtl palette

# normals
vn -1 0 0
vn 1 0 0
vn 0 0 1
vn 0 0 -1
vn 0 -1 0
vn 0 1 0

# texcoords
vt 0.619141 0.5
vt 0.623047 0.5
vt 0.642578 0.5
vt 0.818359 0.5
vt 0.958984 0.5

# verts
v -1.1 0 1.6
v -1.1 0 -1.9
v -1.1 0.6 1.6
v -1.1 0.6 -1.9
v -1.1 1.1 1.6
v -1.1 1.1 -1.9
v -0.8 1.1 1.1
v -0.8 1.1 -1.4
v -0.8 1.2 1.1
v -0.8 1.2 -1.4
v -0.4 1.2 0.8
v -0.4 1.2 -1.1
v -0.4 1.3 0.8
v -0.4 1.3 -1.1
v -0.3 1.3 0.7
v -0.3 1.3 -1
v -0.3 1.5 0.7
v -0.3 1.5 -1
v -0.2 1.5 0.7
v -0.2 1.5 -1
v -0.2 1.8 0.7
v -0.2 1.8 -1
v 0 1.3 0.7
v 0 1.3 -1
v 0 1.4 0.7
v 0 1.4 -1
v 0.1 1.4 0.7
v 0.1 1.4 -1
v 0.1 1.5 0.7
v 0.1 1.5 -1
v 0.2 1.5 0.7
v 0.2 1.5 -1
v 0.2 1.6 0.7
v 0.2 1.6 -1
v -0.1 1.3 0.7
v -0.1 1.3 -1
v -0.1 1.8 0.7
v -0.1 1.8 -1
v 0.1 1.2 0.8
v 0.1 1.2 -1.1
v 0.1 1.3 0.8
v 0.1 1.3 0.7
v 0.1 1.3 -1
v 0.1 1.3 -1.1
v 0.2 1.3 0.7
v 0.2 1.3 -1
v 0.2 1.4 0.7
v 0.2 1.4 -1
v 0.3 1.4 0.7
v 0.3 1.4 -1
v 0.3 1.6 0.7
v 0.3 1.6 -1
v 0.4 1.1 1.1
v 0.4 1.1 -1.4
v 0.4 1.2 1.1
v 0.4 1.2 -1.4
v 0.7 0 1.6
v 0.7 0 -1.9
v 0.7 0.6 1.6
v 0.7 0.6 -1.9
v 0.7 1.1 1.6
v 0.7 1.1 -1.9
v -1.1 0 1.6
v -1.1 0.6 1.6
v -1.1 1.1 1.6
v 0.7 0 1.6
v 0.7 0.6 1.6
v 0.7 1.1 1.6
v -0.8 1.1 1.1
v -0.8 1.2 1.1
v 0.4 1.1 1.1
v 0.4 1.2 1.1
v -0.4 1.2 0.8
v -0.4 1.3 0.8
v 0.1 1.2 0.8
v 0.1 1.3 0.8
v -0.3 1.3 0.7
v -0.3 1.5 0.7
v -0.2 1.5 0.7
v -0.2 1.8 0.7
v -0.1 1.3 0.7
v -0.1 1.8 0.7
v 0 1.3 0.7
v 0 1.4 0.7
v 0.1 1.3 0.7
v 0.1 1.4 0.7
v 0.1 1.5 0.7
v 0.2 1.3 0.7
v 0.2 1.4 0.7
v 0.2 1.5 0.7
v 0.2 1.6 0.7
v 0.3 1.4 0.7
v 0.3 1.6 0.7
v -0.3 1.3 -1
v -0.3 1.5 -1
v -0.2 1.5 -1
v -0.2 1.8 -1
v -0.1 1.3 -1
v -0.1 1.8 -1
v 0 1.3 -1
v 0 1.4 -1
v 0.1 1.3 -1
v 0.1 1.4 -1
v 0.1 1.5 -1
v 0.2 1.3 -1
v 0.2 1.4 -1
v 0.2 1.5 -1
v 0.2 1.6 -1
v 0.3 1.4 -1
v 0.3 1.6 -1
v -0.4 1.2 -1.1
v -0.4 1.3 -1.1
v 0.1 1.2 -1.1
v 0.1 1.3 -1.1
v -0.8 1.1 -1.4
v -0.8 1.2 -1.4
v -0.7 1.1 -1.4
v -0.4 1.1 -1.4
v -0.3 1.1 -1.4
v 0 1.1 -1.4
v 0.1 1.1 -1.4
v 0.2 1.1 -1.4
v 0.4 1.1 -1.4
v 0.4 1.2 -1.4
v -1.1 0 -1.9
v -1.1 0.6 -1.9
v -1.1 1.1 -1.9
v 0.7 0 -1.9
v 0.7 0.6 -1.9
v 0.7 1.1 -1.9
v -1.1 0 1.6
v 0.7 0 1.6
v -1 0 0.7
v 0.6 0 0.7
v -1 0 -1.8
v 0.6 0 -1.8
v -1.1 0 -1.9
v 0.7 0 -1.9
v 0.1 1.3 0.7
v 0.2 1.3 0.7
v 0.1 1.3 -1
v 0.2 1.3 -1
v 0.2 1.4 0.7
v 0.3 1.4 0.7
v 0.2 1.4 -1
v 0.3 1.4 -1
v -1.1 1.1 1.6
v 0.7 1.1 1.6
v -0.8 1.1 1.1
v 0.4 1.1 1.1
v -0.8 1.1 -1.4
v -0.7 1.1 -1.4
v -0.4 1.1 -1.4
v -0.3 1.1 -1.4
v 0 1.1 -1.4
v 0.1 1.1 -1.4
v 0.2 1.1 -1.4
v 0.4 1.1 -1.4
v -0.6 1.1 -1.5
v -0.5 1.1 -1.5
v -0.2 1.1 -1.5
v -0.1 1.1 -1.5
v -0.6 1.1 -1.7
v -0.5 1.1 -1.7
v -0.2 1.1 -1.7
v -0.1 1.1 -1.7
v -0.7 1.1 -1.8
v -0.4 1.1 -1.8
v -0.3 1.1 -1.8
v 0 1.1 -1.8
v 0.1 1.1 -1.8
v 0.2 1.1 -1.8
v -1.1 1.1 -1.9
v 0.7 1.1 -1.9
v -0.8 1.2 1.1
v 0.4 1.2 1.1
v -0.4 1.2 0.8
v 0.1 1.2 0.8
v -0.4 1.2 -1.1
v 0.1 1.2 -1.1
v -0.8 1.2 -1.4
v 0.4 1.2 -1.4
v -0.4 1.3 0.8
v 0.1 1.3 0.8
v -0.3 1.3 0.7
v -0.1 1.3 0.7
v 0 1.3 0.7
v 0.1 1.3 0.7
v -0.3 1.3 -1
v -0.1 1.3 -1
v 0 1.3 -1
v 0.1 1.3 -1
v -0.4 1.3 -1.1
v 0.1 1.3 -1.1
v 0 1.4 0.7
v 0.1 1.4 0.7
v 0 1.4 -1
v 0.1 1.4 -1
v -0.3 1.5 0.7
v -0.2 1.5 0.7
v 0.1 1.5 0.7
v 0.2 1.5 0.7
v -0.3 1.5 -1
v -0.2 1.5 -1
v 0.1 1.5 -1
v 0.2 1.5 -1
v 0.2 1.6 0.7
v 0.3 1.6 0.7
v 0.2 1.6 -1
v 0.3 1.6 -1
v -0.2 1.8 0.7
v -0.1 1.8 0.7
v -0.2 1.8 -1
v -0.1 1.8 -1

# faces
f 3/3/1 2/3/1 1/3/1
f 4/3/1 2/3/1 3/3/1
f 5/1/1 4/1/1 3/1/1
f 6/1/1 4/1/1 5/1/1
f 9/2/1 8/2/1 7/2/1
f 10/2/1 8/2/1 9/2/1
f 13/4/1 12/4/1 11/4/1
f 14/4/1 12/4/1 13/4/1
f 17/5/1 16/5/1 15/5/1
f 18/5/1 16/5/1 17/5/1
f 21/5/1 20/5/1 19/5/1
f 22/5/1 20/5/1 21/5/1
f 25/4/1 24/4/1 23/4/1
f 26/4/1 24/4/1 25/4/1
f 29/4/1 28/4/1 27/4/1
f 30/4/1 28/4/1 29/4/1
f 33/4/1 32/4/1 31/4/1
f 34/4/1 32/4/1 33/4/1
f 35/5/2 36/5/2 37/5/2
f 37/5/2 36/5/2 38/5/2
f 39/4/2 40/4/2 41/4/2
f 41/4/2 40/4/2 42/4/2
f 42/4/2 40/4/2 43/4/2
f 43/4/2 40/4/2 44/4/2
f 45/4/2 46/4/2 47/4/2
f 47/4/2 46/4/2 48/4/2
f 49/4/2 50/4/2 51/4/2
f 51/4/2 50/4/2 52/4/2
f 53/2/2 54/2/2 55/2/2
f 55/2/2 54/2/2 56/2/2
f 57/3/2 58/3/2 59/3/2
f 59/3/2 58/3/2 60/3/2
f 59/1/2 60/1/2 61/1/2
f 61/1/2 60/1/2 62/1/2
f 66/3/3 64/3/3 63/3/3
f 67/1/3 65/1/3 64/1/3
f 67/3/3 64/3/3 66/3/3
f 68/1/3 65/1/3 67/1/3
f 71/2/3 70/2/3 69/2/3
f 72/2/3 70/2/3 71/2/3
f 75/4/3 74/4/3 73/4/3
f 76/4/3 74/4/3 75/4/3
f 79/5/3 78/5/3 77/5/3
f 81/5/3 79/5/3 77/5/3
f 81/5/3 80/5/3 79/5/3
f 82/5/3 80/5/3 81/5/3
f 85/4/3 84/4/3 83/4/3
f 86/4/3 84/4/3 85/4/3
f 88/4/3 86/4/3 85/4/3
f 88/4/3 87/4/3 86/4/3
f 89/4/3 87/4/3 88/4/3
f 90/4/3 87/4/3 89/4/3
f 92/4/3 91/4/3 90/4/3
f 92/4/3 90/4/3 89/4/3
f 93/4/3 91/4/3 92/4/3
f 94/5/4 95/5/4 96/5/4
f 94/5/4 96/5/4 98/5/4
f 96/5/4 97/5/4 98/5/4
f 98/5/4 97/5/4 99/5/4
f 100/4/4 101/4/4 102/4/4
f 102/4/4 101/4/4 103/4/4
f 102/4/4 103/4/4 105/4/4
f 103/4/4 104/4/4 105/4/4
f 105/4/4 104/4/4 106/4/4
f 106/4/4 104/4/4 107/4/4
f 107/4/4 108/4/4 109/4/4
f 106/4/4 107/4/4 109/4/4
f 109/4/4 108/4/4 110/4/4
f 111/4/4 112/4/4 113/4/4
f 113/4/4 112/4/4 114/4/4
f 115/2/4 116/2/4 117/2/4
f 117/2/4 116/2/4 118/2/4
f 118/2/4 116/2/4 119/2/4
f 119/2/4 116/2/4 120/2/4
f 120/2/4 116/2/4 121/2/4
f 121/2/4 116/2/4 122/2/4
f 122/2/4 116/2/4 123/2/4
f 123/2/4 116/2/4 124/2/4
f 125/3/4 126/3/4 128/3/4
f 126/1/4 127/1/4 129/1/4
f 128/3/4 126/3/4 129/3/4
f 129/1/4 127/1/4 130/1/4
f 133/3/5 132/3/5 131/3/5
f 134/3/5 132/3/5 133/3/5
f 135/3/5 133/3/5 131/3/5
f 135/1/5 134/1/5 133/1/5
f 136/3/5 132/3/5 134/3/5
f 136/1/5 134/1/5 135/1/5
f 137/3/5 135/3/5 131/3/5
f 137/3/5 136/3/5 135/3/5
f 138/3/5 132/3/5 136/3/5
f 138/3/5 136/3/5 137/3/5
f 141/4/5 140/4/5 139/4/5
f 142/4/5 140/4/5 141/4/5
f 145/4/5 144/4/5 143/4/5
f 146/4/5 144/4/5 145/4/5
f 147/1/6 148/1/6 149/1/6
f 149/1/6 148/1/6 150/1/6
f 147/1/6 149/1/6 151/1/6
f 150/1/6 148/1/6 158/1/6
f 152/5/6 153/5/6 159/5/6
f 159/5/6 153/5/6 160/5/6
f 154/5/6 155/5/6 161/5/6
f 161/5/6 155/5/6 162/5/6
f 152/5/6 159/5/6 163/5/6
f 159/1/6 160/1/6 163/1/6
f 160/5/6 153/5/6 164/5/6
f 163/1/6 160/1/6 164/1/6
f 161/1/6 162/1/6 165/1/6
f 154/5/6 161/5/6 165/5/6
f 162/5/6 155/5/6 166/5/6
f 165/1/6 162/1/6 166/1/6
f 151/1/6 152/1/6 167/1/6
f 152/5/6 163/5/6 167/5/6
f 163/5/6 164/5/6 167/5/6
f 153/1/6 154/1/6 168/1/6
f 167/5/6 164/5/6 168/5/6
f 164/5/6 153/5/6 168/5/6
f 165/5/6 166/5/6 169/5/6
f 168/1/6 154/1/6 169/1/6
f 154/5/6 165/5/6 169/5/6
f 166/5/6 155/5/6 170/5/6
f 169/5/6 166/5/6 170/5/6
f 155/1/6 156/1/6 170/1/6
f 156/5/6 157/5/6 171/5/6
f 170/1/6 156/1/6 171/1/6
f 157/1/6 158/1/6 172/1/6
f 171/5/6 157/5/6 172/5/6
f 169/1/6 170/1/6 173/1/6
f 147/1/6 151/1/6 173/1/6
f 171/1/6 172/1/6 173/1/6
f 168/1/6 169/1/6 173/1/6
f 170/1/6 171/1/6 173/1/6
f 167/1/6 168/1/6 173/1/6
f 151/1/6 167/1/6 173/1/6
f 172/1/6 158/1/6 174/1/6
f 173/1/6 172/1/6 174/1/6
f 158/1/6 148/1/6 174/1/6
f 175/2/6 176/2/6 177/2/6
f 177/2/6 176/2/6 178/2/6
f 175/2/6 177/2/6 179/2/6
f 178/2/6 176/2/6 180/2/6
f 175/2/6 179/2/6 181/2/6
f 179/2/6 180/2/6 181/2/6
f 180/2/6 176/2/6 182/2/6
f 181/2/6 180/2/6 182/2/6
f 183/4/6 184/4/6 185/4/6
f 185/4/6 184/4/6 186/4/6
f 186/4/6 184/4/6 187/4/6
f 187/4/6 184/4/6 188/4/6
f 183/4/6 185/4/6 189/4/6
f 186/5/6 187/5/6 190/5/6
f 190/5/6 187/5/6 191/5/6
f 183/4/6 189/4/6 193/4/6
f 191/4/6 192/4/6 193/4/6
f 190/4/6 191/4/6 193/4/6
f 189/4/6 190/4/6 193/4/6
f 193/4/6 192/4/6 194/4/6
f 195/4/6 196/4/6 197/4/6
f 197/4/6 196/4/6 198/4/6
f 199/5/6 200/5/6 203/5/6
f 203/5/6 200/5/6 204/5/6
f 201/4/6 202/4/6 205/4/6
f 205/4/6 202/4/6 206/4/6
f 207/4/6 208/4/6 209/4/6
f 209/4/6 208/4/6 210/4/6
f 211/5/6 212/5/6 213/5/6
f 213/5/6 212/5/6 214/5/6
