# MagicaVoxel @ Ephtracy

# group
o 

# material
mtllib grass-0.mtl
usemtl palette

# normals
vn -1 0 0
vn 1 0 0
vn 0 0 1
vn 0 0 -1
vn 0 -1 0
vn 0 1 0

# texcoords
vt 0.00976563 0.5
vt 0.626953 0.5
vt 0.650391 0.5

# verts
v 1.9 0 -0.1
v 1.9 0 -0.2
v 1.9 0.1 -0.1
v 1.9 0.1 -0.2
v 2 0 0.2
v 2 0 0.1
v 2 0 -0.3
v 2 0 -0.4
v 2 0.1 0.2
v 2 0.1 0.1
v 2 0.1 -0.3
v 2 0.1 -0.4
v 2 0.2 -0.3
v 2 0.2 -0.4
v 2.1 0 0
v 2.1 0 -0.1
v 2.1 0.1 0
v 2.1 0.1 -0.1
v 2.1 0.2 0
v 2.1 0.2 -0.1
v 2.1 0.3 0
v 2.1 0.3 -0.1
v 2.2 0 0.2
v 2.2 0 0.1
v 2.2 0.2 0.2
v 2.2 0.2 0.1
v 2.3 0 -0.2
v 2.3 0 -0.3
v 2.3 0.1 -0.2
v 2.3 0.1 -0.3
v 2.3 0.2 -0.2
v 2.3 0.2 -0.3
v 2.4 0 0.3
v 2.4 0 0.2
v 2.4 0 0
v 2.4 0 -0.1
v 2.4 0.1 0.3
v 2.4 0.1 0.2
v 2.4 0.1 0
v 2.4 0.1 -0.1
v 2.4 0.2 0.3
v 2.4 0.2 0.2
v 2.4 0.3 0
v 2.4 0.3 -0.1
v 2.5 0 -0.3
v 2.5 0 -0.4
v 2.5 0.1 -0.3
v 2.5 0.1 -0.4
v 2.5 0.2 -0.3
v 2.5 0.2 -0.4
v 2 0 -0.1
v 2 0 -0.2
v 2 0.1 -0.1
v 2 0.1 -0.2
v 2.1 0 0.2
v 2.1 0 0.1
v 2.1 0 -0.3
v 2.1 0 -0.4
v 2.1 0.1 0.2
v 2.1 0.1 0.1
v 2.1 0.1 -0.3
v 2.1 0.1 -0.4
v 2.1 0.2 -0.3
v 2.1 0.2 -0.4
v 2.2 0 0
v 2.2 0 -0.1
v 2.2 0.1 0
v 2.2 0.1 -0.1
v 2.2 0.2 0
v 2.2 0.2 -0.1
v 2.2 0.3 0
v 2.2 0.3 -0.1
v 2.3 0 0.2
v 2.3 0 0.1
v 2.3 0.2 0.2
v 2.3 0.2 0.1
v 2.4 0 -0.2
v 2.4 0 -0.3
v 2.4 0.1 -0.2
v 2.4 0.1 -0.3
v 2.4 0.2 -0.2
v 2.4 0.2 -0.3
v 2.5 0 0.3
v 2.5 0 0.2
v 2.5 0 0
v 2.5 0 -0.1
v 2.5 0.1 0.3
v 2.5 0.1 0.2
v 2.5 0.1 0
v 2.5 0.1 -0.1
v 2.5 0.2 0.3
v 2.5 0.2 0.2
v 2.5 0.3 0
v 2.5 0.3 -0.1
v 2.6 0 -0.3
v 2.6 0 -0.4
v 2.6 0.1 -0.3
v 2.6 0.1 -0.4
v 2.6 0.2 -0.3
v 2.6 0.2 -0.4
v 2.4 0 0.3
v 2.4 0.1 0.3
v 2.4 0.2 0.3
v 2.5 0 0.3
v 2.5 0.1 0.3
v 2.5 0.2 0.3
v 2 0 0.2
v 2 0.1 0.2
v 2.1 0 0.2
v 2.1 0.1 0.2
v 2.2 0 0.2
v 2.2 0.2 0.2
v 2.3 0 0.2
v 2.3 0.2 0.2
v 2.1 0 0
v 2.1 0.1 0
v 2.1 0.2 0
v 2.1 0.3 0
v 2.2 0 0
v 2.2 0.1 0
v 2.2 0.2 0
v 2.2 0.3 0
v 2.4 0 0
v 2.4 0.1 0
v 2.4 0.3 0
v 2.5 0 0
v 2.5 0.1 0
v 2.5 0.3 0
v 1.9 0 -0.1
v 1.9 0.1 -0.1
v 2 0 -0.1
v 2 0.1 -0.1
v 2.3 0 -0.2
v 2.3 0.1 -0.2
v 2.3 0.2 -0.2
v 2.4 0 -0.2
v 2.4 0.1 -0.2
v 2.4 0.2 -0.2
v 2 0 -0.3
v 2 0.1 -0.3
v 2 0.2 -0.3
v 2.1 0 -0.3
v 2.1 0.1 -0.3
v 2.1 0.2 -0.3
v 2.5 0 -0.3
v 2.5 0.1 -0.3
v 2.5 0.2 -0.3
v 2.6 0 -0.3
v 2.6 0.1 -0.3
v 2.6 0.2 -0.3
v 2.4 0 0.2
v 2.4 0.1 0.2
v 2.4 0.2 0.2
v 2.5 0 0.2
v 2.5 0.1 0.2
v 2.5 0.2 0.2
v 2 0 0.1
v 2 0.1 0.1
v 2.1 0 0.1
v 2.1 0.1 0.1
v 2.2 0 0.1
v 2.2 0.2 0.1
v 2.3 0 0.1
v 2.3 0.2 0.1
v 2.1 0 -0.1
v 2.1 0.1 -0.1
v 2.1 0.2 -0.1
v 2.1 0.3 -0.1
v 2.2 0 -0.1
v 2.2 0.1 -0.1
v 2.2 0.2 -0.1
v 2.2 0.3 -0.1
v 2.4 0 -0.1
v 2.4 0.1 -0.1
v 2.4 0.3 -0.1
v 2.5 0 -0.1
v 2.5 0.1 -0.1
v 2.5 0.3 -0.1
v 1.9 0 -0.2
v 1.9 0.1 -0.2
v 2 0 -0.2
v 2 0.1 -0.2
v 2.3 0 -0.3
v 2.3 0.1 -0.3
v 2.3 0.2 -0.3
v 2.4 0 -0.3
v 2.4 0.1 -0.3
v 2.4 0.2 -0.3
v 2 0 -0.4
v 2 0.1 -0.4
v 2 0.2 -0.4
v 2.1 0 -0.4
v 2.1 0.1 -0.4
v 2.1 0.2 -0.4
v 2.5 0 -0.4
v 2.5 0.1 -0.4
v 2.5 0.2 -0.4
v 2.6 0 -0.4
v 2.6 0.1 -0.4
v 2.6 0.2 -0.4
v 2.4 0 0.3
v 2.5 0 0.3
v 2 0 0.2
v 2.1 0 0.2
v 2.2 0 0.2
v 2.3 0 0.2
v 2.4 0 0.2
v 2.5 0 0.2
v 2 0 0.1
v 2.1 0 0.1
v 2.2 0 0.1
v 2.3 0 0.1
v 2.1 0 0
v 2.2 0 0
v 2.4 0 0
v 2.5 0 0
v 1.9 0 -0.1
v 2 0 -0.1
v 2.1 0 -0.1
v 2.2 0 -0.1
v 2.4 0 -0.1
v 2.5 0 -0.1
v 1.9 0 -0.2
v 2 0 -0.2
v 2.3 0 -0.2
v 2.4 0 -0.2
v 2 0 -0.3
v 2.1 0 -0.3
v 2.3 0 -0.3
v 2.4 0 -0.3
v 2.5 0 -0.3
v 2.6 0 -0.3
v 2 0 -0.4
v 2.1 0 -0.4
v 2.5 0 -0.4
v 2.6 0 -0.4
v 2 0.1 0.2
v 2.1 0.1 0.2
v 2 0.1 0.1
v 2.1 0.1 0.1
v 1.9 0.1 -0.1
v 2 0.1 -0.1
v 1.9 0.1 -0.2
v 2 0.1 -0.2
v 2.4 0.2 0.3
v 2.5 0.2 0.3
v 2.2 0.2 0.2
v 2.3 0.2 0.2
v 2.4 0.2 0.2
v 2.5 0.2 0.2
v 2.2 0.2 0.1
v 2.3 0.2 0.1
v 2.3 0.2 -0.2
v 2.4 0.2 -0.2
v 2 0.2 -0.3
v 2.1 0.2 -0.3
v 2.3 0.2 -0.3
v 2.4 0.2 -0.3
v 2.5 0.2 -0.3
v 2.6 0.2 -0.3
v 2 0.2 -0.4
v 2.1 0.2 -0.4
v 2.5 0.2 -0.4
v 2.6 0.2 -0.4
v 2.1 0.3 0
v 2.2 0.3 0
v 2.4 0.3 0
v 2.5 0.3 0
v 2.1 0.3 -0.1
v 2.2 0.3 -0.1
v 2.4 0.3 -0.1
v 2.5 0.3 -0.1

# faces
f 3/3/1 2/3/1 1/3/1
f 4/3/1 2/3/1 3/3/1
f 9/2/1 6/2/1 5/2/1
f 10/2/1 6/2/1 9/2/1
f 11/2/1 8/2/1 7/2/1
f 12/2/1 8/2/1 11/2/1
f 13/1/1 12/1/1 11/1/1
f 14/1/1 12/1/1 13/1/1
f 17/3/1 16/3/1 15/3/1
f 18/3/1 16/3/1 17/3/1
f 19/2/1 18/2/1 17/2/1
f 20/2/1 18/2/1 19/2/1
f 21/1/1 20/1/1 19/1/1
f 22/1/1 20/1/1 21/1/1
f 25/3/1 24/3/1 23/3/1
f 26/3/1 24/3/1 25/3/1
f 29/2/1 28/2/1 27/2/1
f 30/2/1 28/2/1 29/2/1
f 31/3/1 30/3/1 29/3/1
f 32/3/1 30/3/1 31/3/1
f 37/2/1 34/2/1 33/2/1
f 38/2/1 34/2/1 37/2/1
f 39/3/1 36/3/1 35/3/1
f 40/3/1 36/3/1 39/3/1
f 41/1/1 38/1/1 37/1/1
f 42/1/1 38/1/1 41/1/1
f 43/2/1 40/2/1 39/2/1
f 44/2/1 40/2/1 43/2/1
f 47/3/1 46/3/1 45/3/1
f 48/3/1 46/3/1 47/3/1
f 49/1/1 48/1/1 47/1/1
f 50/1/1 48/1/1 49/1/1
f 51/3/2 52/3/2 53/3/2
f 53/3/2 52/3/2 54/3/2
f 55/2/2 56/2/2 59/2/2
f 59/2/2 56/2/2 60/2/2
f 57/2/2 58/2/2 61/2/2
f 61/2/2 58/2/2 62/2/2
f 61/1/2 62/1/2 63/1/2
f 63/1/2 62/1/2 64/1/2
f 65/3/2 66/3/2 67/3/2
f 67/3/2 66/3/2 68/3/2
f 67/2/2 68/2/2 69/2/2
f 69/2/2 68/2/2 70/2/2
f 69/1/2 70/1/2 71/1/2
f 71/1/2 70/1/2 72/1/2
f 73/3/2 74/3/2 75/3/2
f 75/3/2 74/3/2 76/3/2
f 77/2/2 78/2/2 79/2/2
f 79/2/2 78/2/2 80/2/2
f 79/3/2 80/3/2 81/3/2
f 81/3/2 80/3/2 82/3/2
f 83/2/2 84/2/2 87/2/2
f 87/2/2 84/2/2 88/2/2
f 85/3/2 86/3/2 89/3/2
f 89/3/2 86/3/2 90/3/2
f 87/1/2 88/1/2 91/1/2
f 91/1/2 88/1/2 92/1/2
f 89/2/2 90/2/2 93/2/2
f 93/2/2 90/2/2 94/2/2
f 95/3/2 96/3/2 97/3/2
f 97/3/2 96/3/2 98/3/2
f 97/1/2 98/1/2 99/1/2
f 99/1/2 98/1/2 100/1/2
f 104/2/3 102/2/3 101/2/3
f 105/1/3 103/1/3 102/1/3
f 105/2/3 102/2/3 104/2/3
f 106/1/3 103/1/3 105/1/3
f 109/2/3 108/2/3 107/2/3
f 110/2/3 108/2/3 109/2/3
f 113/3/3 112/3/3 111/3/3
f 114/3/3 112/3/3 113/3/3
f 119/3/3 116/3/3 115/3/3
f 120/2/3 117/2/3 116/2/3
f 120/3/3 116/3/3 119/3/3
f 121/1/3 118/1/3 117/1/3
f 121/2/3 117/2/3 120/2/3
f 122/1/3 118/1/3 121/1/3
f 126/3/3 124/3/3 123/3/3
f 127/2/3 125/2/3 124/2/3
f 127/3/3 124/3/3 126/3/3
f 128/2/3 125/2/3 127/2/3
f 131/3/3 130/3/3 129/3/3
f 132/3/3 130/3/3 131/3/3
f 136/2/3 134/2/3 133/2/3
f 137/3/3 135/3/3 134/3/3
f 137/2/3 134/2/3 136/2/3
f 138/3/3 135/3/3 137/3/3
f 142/2/3 140/2/3 139/2/3
f 143/1/3 141/1/3 140/1/3
f 143/2/3 140/2/3 142/2/3
f 144/1/3 141/1/3 143/1/3
f 148/3/3 146/3/3 145/3/3
f 149/1/3 147/1/3 146/1/3
f 149/3/3 146/3/3 148/3/3
f 150/1/3 147/1/3 149/1/3
f 151/2/4 152/2/4 154/2/4
f 152/1/4 153/1/4 155/1/4
f 154/2/4 152/2/4 155/2/4
f 155/1/4 153/1/4 156/1/4
f 157/2/4 158/2/4 159/2/4
f 159/2/4 158/2/4 160/2/4
f 161/3/4 162/3/4 163/3/4
f 163/3/4 162/3/4 164/3/4
f 165/3/4 166/3/4 169/3/4
f 166/2/4 167/2/4 170/2/4
f 169/3/4 166/3/4 170/3/4
f 167/1/4 168/1/4 171/1/4
f 170/2/4 167/2/4 171/2/4
f 171/1/4 168/1/4 172/1/4
f 173/3/4 174/3/4 176/3/4
f 174/2/4 175/2/4 177/2/4
f 176/3/4 174/3/4 177/3/4
f 177/2/4 175/2/4 178/2/4
f 179/3/4 180/3/4 181/3/4
f 181/3/4 180/3/4 182/3/4
f 183/2/4 184/2/4 186/2/4
f 184/3/4 185/3/4 187/3/4
f 186/2/4 184/2/4 187/2/4
f 187/3/4 185/3/4 188/3/4
f 189/2/4 190/2/4 192/2/4
f 190/1/4 191/1/4 193/1/4
f 192/2/4 190/2/4 193/2/4
f 193/1/4 191/1/4 194/1/4
f 195/3/4 196/3/4 198/3/4
f 196/1/4 197/1/4 199/1/4
f 198/3/4 196/3/4 199/3/4
f 199/1/4 197/1/4 200/1/4
f 207/2/5 202/2/5 201/2/5
f 208/2/5 202/2/5 207/2/5
f 209/2/5 204/2/5 203/2/5
f 210/2/5 204/2/5 209/2/5
f 211/3/5 206/3/5 205/3/5
f 212/3/5 206/3/5 211/3/5
f 219/3/5 214/3/5 213/3/5
f 220/3/5 214/3/5 219/3/5
f 221/3/5 216/3/5 215/3/5
f 222/3/5 216/3/5 221/3/5
f 223/3/5 218/3/5 217/3/5
f 224/3/5 218/3/5 223/3/5
f 229/2/5 226/2/5 225/2/5
f 230/2/5 226/2/5 229/2/5
f 233/2/5 228/2/5 227/2/5
f 234/2/5 228/2/5 233/2/5
f 235/3/5 232/3/5 231/3/5
f 236/3/5 232/3/5 235/3/5
f 237/2/6 238/2/6 239/2/6
f 239/2/6 238/2/6 240/2/6
f 241/3/6 242/3/6 243/3/6
f 243/3/6 242/3/6 244/3/6
f 245/1/6 246/1/6 249/1/6
f 249/1/6 246/1/6 250/1/6
f 247/3/6 248/3/6 251/3/6
f 251/3/6 248/3/6 252/3/6
f 253/3/6 254/3/6 257/3/6
f 257/3/6 254/3/6 258/3/6
f 255/1/6 256/1/6 261/1/6
f 261/1/6 256/1/6 262/1/6
f 259/1/6 260/1/6 263/1/6
f 263/1/6 260/1/6 264/1/6
f 265/1/6 266/1/6 269/1/6
f 269/1/6 266/1/6 270/1/6
f 267/2/6 268/2/6 271/2/6
f 271/2/6 268/2/6 272/2/6
