# MagicaVoxel @ Ephtracy

# group
o 

# material
mtllib grass-4.mtl
usemtl palette

# normals
vn -1 0 0
vn 1 0 0
vn 0 0 1
vn 0 0 -1
vn 0 -1 0
vn 0 1 0

# texcoords
vt 0.00976563 0.5
vt 0.474609 0.5
vt 0.626953 0.5
vt 0.642578 0.5
vt 0.650391 0.5

# verts
v 3 0 -0.1
v 3 0 -0.2
v 3 0.1 -0.1
v 3 0.1 -0.2
v 3 0.2 -0.1
v 3 0.2 -0.2
v 3.1 0 0.2
v 3.1 0 0.1
v 3.1 0 -0.3
v 3.1 0 -0.4
v 3.1 0.1 0.2
v 3.1 0.1 0.1
v 3.1 0.1 -0.3
v 3.1 0.1 -0.4
v 3.1 0.2 0.2
v 3.1 0.2 0.1
v 3.1 0.2 -0.3
v 3.1 0.2 -0.4
v 3.2 0 0
v 3.2 0 -0.1
v 3.2 0.1 0
v 3.2 0.1 -0.1
v 3.2 0.2 0
v 3.2 0.2 -0.1
v 3.2 0.3 0
v 3.2 0.3 -0.1
v 3.3 0 0.2
v 3.3 0 0.1
v 3.3 0.2 0.2
v 3.3 0.2 0.1
v 3.4 0 -0.2
v 3.4 0 -0.3
v 3.4 0.1 -0.2
v 3.4 0.1 -0.3
v 3.4 0.2 -0.2
v 3.4 0.2 -0.3
v 3.4 0.3 -0.2
v 3.4 0.3 -0.3
v 3.5 0 0.3
v 3.5 0 0.2
v 3.5 0 0
v 3.5 0 -0.1
v 3.5 0.1 0.3
v 3.5 0.1 0.2
v 3.5 0.1 0
v 3.5 0.1 -0.1
v 3.5 0.2 0.3
v 3.5 0.2 0.2
v 3.5 0.3 0
v 3.5 0.3 -0.1
v 3.6 0 -0.3
v 3.6 0 -0.4
v 3.6 0.1 -0.3
v 3.6 0.1 -0.4
v 3.6 0.2 -0.3
v 3.6 0.2 -0.4
v 3.1 0 -0.1
v 3.1 0 -0.2
v 3.1 0.1 -0.1
v 3.1 0.1 -0.2
v 3.1 0.2 -0.1
v 3.1 0.2 -0.2
v 3.2 0 0.2
v 3.2 0 0.1
v 3.2 0 -0.3
v 3.2 0 -0.4
v 3.2 0.1 0.2
v 3.2 0.1 0.1
v 3.2 0.1 -0.3
v 3.2 0.1 -0.4
v 3.2 0.2 0.2
v 3.2 0.2 0.1
v 3.2 0.2 -0.3
v 3.2 0.2 -0.4
v 3.3 0 0
v 3.3 0 -0.1
v 3.3 0.1 0
v 3.3 0.1 -0.1
v 3.3 0.2 0
v 3.3 0.2 -0.1
v 3.3 0.3 0
v 3.3 0.3 -0.1
v 3.4 0 0.2
v 3.4 0 0.1
v 3.4 0.2 0.2
v 3.4 0.2 0.1
v 3.5 0 -0.2
v 3.5 0 -0.3
v 3.5 0.1 -0.2
v 3.5 0.1 -0.3
v 3.5 0.2 -0.2
v 3.5 0.2 -0.3
v 3.5 0.3 -0.2
v 3.5 0.3 -0.3
v 3.6 0 0.3
v 3.6 0 0.2
v 3.6 0 0
v 3.6 0 -0.1
v 3.6 0.1 0.3
v 3.6 0.1 0.2
v 3.6 0.1 0
v 3.6 0.1 -0.1
v 3.6 0.2 0.3
v 3.6 0.2 0.2
v 3.6 0.3 0
v 3.6 0.3 -0.1
v 3.7 0 -0.3
v 3.7 0 -0.4
v 3.7 0.1 -0.3
v 3.7 0.1 -0.4
v 3.7 0.2 -0.3
v 3.7 0.2 -0.4
v 3.5 0 0.3
v 3.5 0.1 0.3
v 3.5 0.2 0.3
v 3.6 0 0.3
v 3.6 0.1 0.3
v 3.6 0.2 0.3
v 3.1 0 0.2
v 3.1 0.1 0.2
v 3.1 0.2 0.2
v 3.2 0 0.2
v 3.2 0.1 0.2
v 3.2 0.2 0.2
v 3.3 0 0.2
v 3.3 0.2 0.2
v 3.4 0 0.2
v 3.4 0.2 0.2
v 3.2 0 0
v 3.2 0.1 0
v 3.2 0.2 0
v 3.2 0.3 0
v 3.3 0 0
v 3.3 0.1 0
v 3.3 0.2 0
v 3.3 0.3 0
v 3.5 0 0
v 3.5 0.1 0
v 3.5 0.3 0
v 3.6 0 0
v 3.6 0.1 0
v 3.6 0.3 0
v 3 0 -0.1
v 3 0.1 -0.1
v 3 0.2 -0.1
v 3.1 0 -0.1
v 3.1 0.1 -0.1
v 3.1 0.2 -0.1
v 3.4 0 -0.2
v 3.4 0.1 -0.2
v 3.4 0.2 -0.2
v 3.4 0.3 -0.2
v 3.5 0 -0.2
v 3.5 0.1 -0.2
v 3.5 0.2 -0.2
v 3.5 0.3 -0.2
v 3.1 0 -0.3
v 3.1 0.1 -0.3
v 3.1 0.2 -0.3
v 3.2 0 -0.3
v 3.2 0.1 -0.3
v 3.2 0.2 -0.3
v 3.6 0 -0.3
v 3.6 0.1 -0.3
v 3.6 0.2 -0.3
v 3.7 0 -0.3
v 3.7 0.1 -0.3
v 3.7 0.2 -0.3
v 3.5 0 0.2
v 3.5 0.1 0.2
v 3.5 0.2 0.2
v 3.6 0 0.2
v 3.6 0.1 0.2
v 3.6 0.2 0.2
v 3.1 0 0.1
v 3.1 0.1 0.1
v 3.1 0.2 0.1
v 3.2 0 0.1
v 3.2 0.1 0.1
v 3.2 0.2 0.1
v 3.3 0 0.1
v 3.3 0.2 0.1
v 3.4 0 0.1
v 3.4 0.2 0.1
v 3.2 0 -0.1
v 3.2 0.1 -0.1
v 3.2 0.2 -0.1
v 3.2 0.3 -0.1
v 3.3 0 -0.1
v 3.3 0.1 -0.1
v 3.3 0.2 -0.1
v 3.3 0.3 -0.1
v 3.5 0 -0.1
v 3.5 0.1 -0.1
v 3.5 0.3 -0.1
v 3.6 0 -0.1
v 3.6 0.1 -0.1
v 3.6 0.3 -0.1
v 3 0 -0.2
v 3 0.1 -0.2
v 3 0.2 -0.2
v 3.1 0 -0.2
v 3.1 0.1 -0.2
v 3.1 0.2 -0.2
v 3.4 0 -0.3
v 3.4 0.1 -0.3
v 3.4 0.2 -0.3
v 3.4 0.3 -0.3
v 3.5 0 -0.3
v 3.5 0.1 -0.3
v 3.5 0.2 -0.3
v 3.5 0.3 -0.3
v 3.1 0 -0.4
v 3.1 0.1 -0.4
v 3.1 0.2 -0.4
v 3.2 0 -0.4
v 3.2 0.1 -0.4
v 3.2 0.2 -0.4
v 3.6 0 -0.4
v 3.6 0.1 -0.4
v 3.6 0.2 -0.4
v 3.7 0 -0.4
v 3.7 0.1 -0.4
v 3.7 0.2 -0.4
v 3.5 0 0.3
v 3.6 0 0.3
v 3.1 0 0.2
v 3.2 0 0.2
v 3.3 0 0.2
v 3.4 0 0.2
v 3.5 0 0.2
v 3.6 0 0.2
v 3.1 0 0.1
v 3.2 0 0.1
v 3.3 0 0.1
v 3.4 0 0.1
v 3.2 0 0
v 3.3 0 0
v 3.5 0 0
v 3.6 0 0
v 3 0 -0.1
v 3.1 0 -0.1
v 3.2 0 -0.1
v 3.3 0 -0.1
v 3.5 0 -0.1
v 3.6 0 -0.1
v 3 0 -0.2
v 3.1 0 -0.2
v 3.4 0 -0.2
v 3.5 0 -0.2
v 3.1 0 -0.3
v 3.2 0 -0.3
v 3.4 0 -0.3
v 3.5 0 -0.3
v 3.6 0 -0.3
v 3.7 0 -0.3
v 3.1 0 -0.4
v 3.2 0 -0.4
v 3.6 0 -0.4
v 3.7 0 -0.4
v 3.5 0.2 0.3
v 3.6 0.2 0.3
v 3.1 0.2 0.2
v 3.2 0.2 0.2
v 3.3 0.2 0.2
v 3.4 0.2 0.2
v 3.5 0.2 0.2
v 3.6 0.2 0.2
v 3.1 0.2 0.1
v 3.2 0.2 0.1
v 3.3 0.2 0.1
v 3.4 0.2 0.1
v 3 0.2 -0.1
v 3.1 0.2 -0.1
v 3 0.2 -0.2
v 3.1 0.2 -0.2
v 3.1 0.2 -0.3
v 3.2 0.2 -0.3
v 3.6 0.2 -0.3
v 3.7 0.2 -0.3
v 3.1 0.2 -0.4
v 3.2 0.2 -0.4
v 3.6 0.2 -0.4
v 3.7 0.2 -0.4
v 3.2 0.3 0
v 3.3 0.3 0
v 3.5 0.3 0
v 3.6 0.3 0
v 3.2 0.3 -0.1
v 3.3 0.3 -0.1
v 3.5 0.3 -0.1
v 3.6 0.3 -0.1
v 3.4 0.3 -0.2
v 3.5 0.3 -0.2
v 3.4 0.3 -0.3
v 3.5 0.3 -0.3

# faces
f 3/5/1 2/5/1 1/5/1
f 4/5/1 2/5/1 3/5/1
f 5/1/1 4/1/1 3/1/1
f 6/1/1 4/1/1 5/1/1
f 11/3/1 8/3/1 7/3/1
f 12/3/1 8/3/1 11/3/1
f 13/3/1 10/3/1 9/3/1
f 14/3/1 10/3/1 13/3/1
f 15/2/1 12/2/1 11/2/1
f 16/2/1 12/2/1 15/2/1
f 17/2/1 14/2/1 13/2/1
f 18/2/1 14/2/1 17/2/1
f 21/5/1 20/5/1 19/5/1
f 22/5/1 20/5/1 21/5/1
f 23/3/1 22/3/1 21/3/1
f 24/3/1 22/3/1 23/3/1
f 25/4/1 24/4/1 23/4/1
f 26/4/1 24/4/1 25/4/1
f 29/5/1 28/5/1 27/5/1
f 30/5/1 28/5/1 29/5/1
f 33/3/1 32/3/1 31/3/1
f 34/3/1 32/3/1 33/3/1
f 35/5/1 34/5/1 33/5/1
f 36/5/1 34/5/1 35/5/1
f 37/1/1 36/1/1 35/1/1
f 38/1/1 36/1/1 37/1/1
f 43/3/1 40/3/1 39/3/1
f 44/3/1 40/3/1 43/3/1
f 45/5/1 42/5/1 41/5/1
f 46/5/1 42/5/1 45/5/1
f 47/1/1 44/1/1 43/1/1
f 48/1/1 44/1/1 47/1/1
f 49/3/1 46/3/1 45/3/1
f 50/3/1 46/3/1 49/3/1
f 53/5/1 52/5/1 51/5/1
f 54/5/1 52/5/1 53/5/1
f 55/4/1 54/4/1 53/4/1
f 56/4/1 54/4/1 55/4/1
f 57/5/2 58/5/2 59/5/2
f 59/5/2 58/5/2 60/5/2
f 59/1/2 60/1/2 61/1/2
f 61/1/2 60/1/2 62/1/2
f 63/3/2 64/3/2 67/3/2
f 67/3/2 64/3/2 68/3/2
f 65/3/2 66/3/2 69/3/2
f 69/3/2 66/3/2 70/3/2
f 67/2/2 68/2/2 71/2/2
f 71/2/2 68/2/2 72/2/2
f 69/2/2 70/2/2 73/2/2
f 73/2/2 70/2/2 74/2/2
f 75/5/2 76/5/2 77/5/2
f 77/5/2 76/5/2 78/5/2
f 77/3/2 78/3/2 79/3/2
f 79/3/2 78/3/2 80/3/2
f 79/4/2 80/4/2 81/4/2
f 81/4/2 80/4/2 82/4/2
f 83/5/2 84/5/2 85/5/2
f 85/5/2 84/5/2 86/5/2
f 87/3/2 88/3/2 89/3/2
f 89/3/2 88/3/2 90/3/2
f 89/5/2 90/5/2 91/5/2
f 91/5/2 90/5/2 92/5/2
f 91/1/2 92/1/2 93/1/2
f 93/1/2 92/1/2 94/1/2
f 95/3/2 96/3/2 99/3/2
f 99/3/2 96/3/2 100/3/2
f 97/5/2 98/5/2 101/5/2
f 101/5/2 98/5/2 102/5/2
f 99/1/2 100/1/2 103/1/2
f 103/1/2 100/1/2 104/1/2
f 101/3/2 102/3/2 105/3/2
f 105/3/2 102/3/2 106/3/2
f 107/5/2 108/5/2 109/5/2
f 109/5/2 108/5/2 110/5/2
f 109/4/2 110/4/2 111/4/2
f 111/4/2 110/4/2 112/4/2
f 116/3/3 114/3/3 113/3/3
f 117/1/3 115/1/3 114/1/3
f 117/3/3 114/3/3 116/3/3
f 118/1/3 115/1/3 117/1/3
f 122/3/3 120/3/3 119/3/3
f 123/2/3 121/2/3 120/2/3
f 123/3/3 120/3/3 122/3/3
f 124/2/3 121/2/3 123/2/3
f 127/5/3 126/5/3 125/5/3
f 128/5/3 126/5/3 127/5/3
f 133/5/3 130/5/3 129/5/3
f 134/3/3 131/3/3 130/3/3
f 134/5/3 130/5/3 133/5/3
f 135/4/3 132/4/3 131/4/3
f 135/3/3 131/3/3 134/3/3
f 136/4/3 132/4/3 135/4/3
f 140/5/3 138/5/3 137/5/3
f 141/3/3 139/3/3 138/3/3
f 141/5/3 138/5/3 140/5/3
f 142/3/3 139/3/3 141/3/3
f 146/5/3 144/5/3 143/5/3
f 147/1/3 145/1/3 144/1/3
f 147/5/3 144/5/3 146/5/3
f 148/1/3 145/1/3 147/1/3
f 153/3/3 150/3/3 149/3/3
f 154/5/3 151/5/3 150/5/3
f 154/3/3 150/3/3 153/3/3
f 155/1/3 152/1/3 151/1/3
f 155/5/3 151/5/3 154/5/3
f 156/1/3 152/1/3 155/1/3
f 160/3/3 158/3/3 157/3/3
f 161/2/3 159/2/3 158/2/3
f 161/3/3 158/3/3 160/3/3
f 162/2/3 159/2/3 161/2/3
f 166/5/3 164/5/3 163/5/3
f 167/4/3 165/4/3 164/4/3
f 167/5/3 164/5/3 166/5/3
f 168/4/3 165/4/3 167/4/3
f 169/3/4 170/3/4 172/3/4
f 170/1/4 171/1/4 173/1/4
f 172/3/4 170/3/4 173/3/4
f 173/1/4 171/1/4 174/1/4
f 175/3/4 176/3/4 178/3/4
f 176/2/4 177/2/4 179/2/4
f 178/3/4 176/3/4 179/3/4
f 179/2/4 177/2/4 180/2/4
f 181/5/4 182/5/4 183/5/4
f 183/5/4 182/5/4 184/5/4
f 185/5/4 186/5/4 189/5/4
f 186/3/4 187/3/4 190/3/4
f 189/5/4 186/5/4 190/5/4
f 187/4/4 188/4/4 191/4/4
f 190/3/4 187/3/4 191/3/4
f 191/4/4 188/4/4 192/4/4
f 193/5/4 194/5/4 196/5/4
f 194/3/4 195/3/4 197/3/4
f 196/5/4 194/5/4 197/5/4
f 197/3/4 195/3/4 198/3/4
f 199/5/4 200/5/4 202/5/4
f 200/1/4 201/1/4 203/1/4
f 202/5/4 200/5/4 203/5/4
f 203/1/4 201/1/4 204/1/4
f 205/3/4 206/3/4 209/3/4
f 206/5/4 207/5/4 210/5/4
f 209/3/4 206/3/4 210/3/4
f 207/1/4 208/1/4 211/1/4
f 210/5/4 207/5/4 211/5/4
f 211/1/4 208/1/4 212/1/4
f 213/3/4 214/3/4 216/3/4
f 214/2/4 215/2/4 217/2/4
f 216/3/4 214/3/4 217/3/4
f 217/2/4 215/2/4 218/2/4
f 219/5/4 220/5/4 222/5/4
f 220/4/4 221/4/4 223/4/4
f 222/5/4 220/5/4 223/5/4
f 223/4/4 221/4/4 224/4/4
f 231/3/5 226/3/5 225/3/5
f 232/3/5 226/3/5 231/3/5
f 233/3/5 228/3/5 227/3/5
f 234/3/5 228/3/5 233/3/5
f 235/5/5 230/5/5 229/5/5
f 236/5/5 230/5/5 235/5/5
f 243/5/5 238/5/5 237/5/5
f 244/5/5 238/5/5 243/5/5
f 245/5/5 240/5/5 239/5/5
f 246/5/5 240/5/5 245/5/5
f 247/5/5 242/5/5 241/5/5
f 248/5/5 242/5/5 247/5/5
f 253/3/5 250/3/5 249/3/5
f 254/3/5 250/3/5 253/3/5
f 257/3/5 252/3/5 251/3/5
f 258/3/5 252/3/5 257/3/5
f 259/5/5 256/5/5 255/5/5
f 260/5/5 256/5/5 259/5/5
f 261/1/6 262/1/6 267/1/6
f 267/1/6 262/1/6 268/1/6
f 263/2/6 264/2/6 269/2/6
f 269/2/6 264/2/6 270/2/6
f 265/5/6 266/5/6 271/5/6
f 271/5/6 266/5/6 272/5/6
f 273/1/6 274/1/6 275/1/6
f 275/1/6 274/1/6 276/1/6
f 277/2/6 278/2/6 281/2/6
f 281/2/6 278/2/6 282/2/6
f 279/4/6 280/4/6 283/4/6
f 283/4/6 280/4/6 284/4/6
f 285/4/6 286/4/6 289/4/6
f 289/4/6 286/4/6 290/4/6
f 287/3/6 288/3/6 291/3/6
f 291/3/6 288/3/6 292/3/6
f 293/1/6 294/1/6 295/1/6
f 295/1/6 294/1/6 296/1/6
