# MagicaVoxel @ Ephtracy

# group
o 

# material
mtllib market_cashier_male.mtl
usemtl palette

# normals
vn -1 0 0
vn 1 0 0
vn 0 0 1
vn 0 0 -1
vn 0 -1 0
vn 0 1 0

# texcoords
vt 0.0253906 0.5
vt 0.0332031 0.5
vt 0.236328 0.5
vt 0.244141 0.5
vt 0.958984 0.5
vt 0.974609 0.5
vt 0.994141 0.5

# verts
v -1 1.3 -0.1
v -1 1.3 -0.3
v -1 1.4 -0.1
v -1 1.4 -0.3
v -0.9 1.2 -0.1
v -0.9 1.2 -0.3
v -0.9 1.3 -0.1
v -0.9 1.3 -0.3
v -0.4 1.7 -0.1
v -0.4 1.7 -0.2
v -0.4 1.8 -2.98023e-08
v -0.4 1.8 -0.1
v -0.4 1.8 -0.2
v -0.4 1.8 -0.6
v -0.4 2.1 -2.98023e-08
v -0.4 2.1 -0.6
v -0.3 0 0.1
v -0.3 0 -0.3
v -0.3 0.1 0.1
v -0.3 0.1 -0.1
v -0.3 0.2 -0.1
v -0.3 0.2 -0.3
v -0.3 0.7 -2.98023e-08
v -0.3 0.7 -0.1
v -0.3 0.7 -0.3
v -0.3 0.7 -0.4
v -0.3 1.2 -0.1
v -0.3 1.2 -0.3
v -0.3 1.4 -2.98023e-08
v -0.3 1.4 -0.1
v -0.3 1.4 -0.3
v -0.3 1.4 -0.4
v -0.3 1.5 -2.98023e-08
v -0.3 1.5 -0.5
v -0.3 1.7 -0.1
v -0.3 1.7 -0.2
v -0.3 1.8 0.3
v -0.3 1.8 -2.98023e-08
v -0.3 1.8 -0.1
v -0.3 1.8 -0.2
v -0.3 1.8 -0.5
v -0.3 1.9 0.3
v -0.3 1.9 0.2
v -0.3 2 0.2
v -0.3 2 0.1
v -0.3 2.1 0.1
v -0.3 2.1 -2.98023e-08
v -0.3 2.1 -0.5
v -0.3 2.2 -2.98023e-08
v -0.3 2.2 -0.5
v -0.0999999 1.4 -0.1
v -0.0999999 1.4 -0.3
v -0.0999999 1.5 -0.1
v -0.0999999 1.5 -0.3
v 0.1 0 0.1
v 0.1 0 -0.3
v 0.1 0.1 0.1
v 0.1 0.1 -0.1
v 0.1 0.2 -0.1
v 0.1 0.2 -0.3
v 0.1 0.7 -0.1
v 0.1 0.7 -0.3
v -0.0999999 0 0.1
v -0.0999999 0 -0.3
v -0.0999999 0.1 0.1
v -0.0999999 0.1 -0.1
v -0.0999999 0.2 -0.1
v -0.0999999 0.2 -0.3
v -0.0999999 0.7 -0.1
v -0.0999999 0.7 -0.3
v 0.1 1.4 -0.1
v 0.1 1.4 -0.3
v 0.1 1.5 -0.1
v 0.1 1.5 -0.3
v 0.3 0 0.1
v 0.3 0 -0.3
v 0.3 0.1 0.1
v 0.3 0.1 -0.1
v 0.3 0.2 -0.1
v 0.3 0.2 -0.3
v 0.3 0.7 -2.98023e-08
v 0.3 0.7 -0.1
v 0.3 0.7 -0.3
v 0.3 0.7 -0.4
v 0.3 1.2 -0.1
v 0.3 1.2 -0.3
v 0.3 1.4 -2.98023e-08
v 0.3 1.4 -0.1
v 0.3 1.4 -0.3
v 0.3 1.4 -0.4
v 0.3 1.5 -2.98023e-08
v 0.3 1.5 -0.5
v 0.3 1.7 -0.1
v 0.3 1.7 -0.2
v 0.3 1.8 0.3
v 0.3 1.8 -2.98023e-08
v 0.3 1.8 -0.1
v 0.3 1.8 -0.2
v 0.3 1.8 -0.5
v 0.3 1.9 0.3
v 0.3 1.9 0.2
v 0.3 2 0.2
v 0.3 2 0.1
v 0.3 2.1 0.1
v 0.3 2.1 -2.98023e-08
v 0.3 2.1 -0.5
v 0.3 2.2 -2.98023e-08
v 0.3 2.2 -0.5
v 0.4 1.7 -0.1
v 0.4 1.7 -0.2
v 0.4 1.8 -2.98023e-08
v 0.4 1.8 -0.1
v 0.4 1.8 -0.2
v 0.4 1.8 -0.6
v 0.4 2.1 -2.98023e-08
v 0.4 2.1 -0.6
v 0.9 1.2 -0.1
v 0.9 1.2 -0.3
v 0.9 1.3 -0.1
v 0.9 1.3 -0.3
v 1 1.3 -0.1
v 1 1.3 -0.3
v 1 1.4 -0.1
v 1 1.4 -0.3
v -0.3 1.8 0.3
v -0.3 1.9 0.3
v -0.2 1.8 0.3
v -0.2 1.9 0.3
v -0.0999999 1.8 0.3
v -0.0999999 1.9 0.3
v 0.1 1.8 0.3
v 0.1 1.9 0.3
v 0.2 1.8 0.3
v 0.2 1.9 0.3
v 0.3 1.8 0.3
v 0.3 1.9 0.3
v -0.3 1.9 0.2
v -0.3 2 0.2
v -0.2 1.9 0.2
v -0.2 2 0.2
v -0.0999999 1.9 0.2
v -0.0999999 2 0.2
v 0.1 1.9 0.2
v 0.1 2 0.2
v 0.2 1.9 0.2
v 0.2 2 0.2
v 0.3 1.9 0.2
v 0.3 2 0.2
v -0.3 0 0.1
v -0.3 0.1 0.1
v -0.3 2 0.1
v -0.3 2.1 0.1
v -0.2 2 0.1
v -0.2 2.1 0.1
v -0.0999999 0 0.1
v -0.0999999 0.1 0.1
v -0.0999999 2 0.1
v -0.0999999 2.1 0.1
v 0.1 0 0.1
v 0.1 0.1 0.1
v 0.1 2 0.1
v 0.1 2.1 0.1
v 0.2 2 0.1
v 0.2 2.1 0.1
v 0.3 0 0.1
v 0.3 0.1 0.1
v 0.3 2 0.1
v 0.3 2.1 0.1
v -0.4 1.8 -2.98023e-08
v -0.4 2.1 -2.98023e-08
v -0.3 0.7 -2.98023e-08
v -0.3 1.4 -2.98023e-08
v -0.3 1.5 -2.98023e-08
v -0.3 1.8 -2.98023e-08
v -0.3 2.1 -2.98023e-08
v -0.3 2.2 -2.98023e-08
v -0.2 0.7 -2.98023e-08
v -0.2 1.4 -2.98023e-08
v -0.2 1.7 -2.98023e-08
v -0.2 1.8 -2.98023e-08
v -0.2 2.1 -2.98023e-08
v -0.2 2.2 -2.98023e-08
v -0.0999999 0.7 -2.98023e-08
v -0.0999999 1.3 -2.98023e-08
v -0.0999999 1.4 -2.98023e-08
v -0.0999999 1.7 -2.98023e-08
v -0.0999999 1.8 -2.98023e-08
v -0.0999999 2.1 -2.98023e-08
v -0.0999999 2.2 -2.98023e-08
v 1.19209e-07 0.7 -2.98023e-08
v 1.19209e-07 1.3 -2.98023e-08
v 0.1 0.7 -2.98023e-08
v 0.1 1.3 -2.98023e-08
v 0.1 1.4 -2.98023e-08
v 0.1 1.7 -2.98023e-08
v 0.1 1.8 -2.98023e-08
v 0.1 2.1 -2.98023e-08
v 0.1 2.2 -2.98023e-08
v 0.2 0.7 -2.98023e-08
v 0.2 1.4 -2.98023e-08
v 0.2 1.7 -2.98023e-08
v 0.2 1.8 -2.98023e-08
v 0.2 2.1 -2.98023e-08
v 0.2 2.2 -2.98023e-08
v 0.3 0.7 -2.98023e-08
v 0.3 1.4 -2.98023e-08
v 0.3 1.5 -2.98023e-08
v 0.3 1.8 -2.98023e-08
v 0.3 2.1 -2.98023e-08
v 0.3 2.2 -2.98023e-08
v 0.4 1.8 -2.98023e-08
v 0.4 2.1 -2.98023e-08
v -1 1.3 -0.1
v -1 1.4 -0.1
v -0.9 1.2 -0.1
v -0.9 1.3 -0.1
v -0.8 1.2 -0.1
v -0.8 1.4 -0.1
v -0.7 1.2 -0.1
v -0.7 1.4 -0.1
v -0.6 1.2 -0.1
v -0.6 1.4 -0.1
v -0.5 1.2 -0.1
v -0.5 1.4 -0.1
v -0.4 1.2 -0.1
v -0.4 1.4 -0.1
v -0.4 1.7 -0.1
v -0.4 1.8 -0.1
v -0.3 0.1 -0.1
v -0.3 0.2 -0.1
v -0.3 0.7 -0.1
v -0.3 1.2 -0.1
v -0.3 1.4 -0.1
v -0.3 1.7 -0.1
v -0.3 1.8 -0.1
v -0.2 0.7 -0.1
v -0.0999999 0.1 -0.1
v -0.0999999 0.2 -0.1
v -0.0999999 0.7 -0.1
v -0.0999999 1.4 -0.1
v -0.0999999 1.5 -0.1
v 0.1 0.1 -0.1
v 0.1 0.2 -0.1
v 0.1 0.7 -0.1
v 0.1 1.4 -0.1
v 0.1 1.5 -0.1
v 0.2 0.7 -0.1
v 0.3 0.1 -0.1
v 0.3 0.2 -0.1
v 0.3 0.7 -0.1
v 0.3 1.2 -0.1
v 0.3 1.4 -0.1
v 0.3 1.7 -0.1
v 0.3 1.8 -0.1
v 0.4 1.2 -0.1
v 0.4 1.4 -0.1
v 0.4 1.7 -0.1
v 0.4 1.8 -0.1
v 0.5 1.2 -0.1
v 0.5 1.4 -0.1
v 0.6 1.2 -0.1
v 0.6 1.4 -0.1
v 0.7 1.2 -0.1
v 0.7 1.4 -0.1
v 0.8 1.2 -0.1
v 0.8 1.4 -0.1
v 0.9 1.2 -0.1
v 0.9 1.3 -0.1
v 1 1.3 -0.1
v 1 1.4 -0.1
v -0.4 1.7 -0.2
v -0.4 1.8 -0.2
v -0.3 1.7 -0.2
v -0.3 1.8 -0.2
v 0.3 1.7 -0.2
v 0.3 1.8 -0.2
v 0.4 1.7 -0.2
v 0.4 1.8 -0.2
v -1 1.3 -0.3
v -1 1.4 -0.3
v -0.9 1.2 -0.3
v -0.9 1.3 -0.3
v -0.8 1.2 -0.3
v -0.8 1.4 -0.3
v -0.7 1.2 -0.3
v -0.7 1.4 -0.3
v -0.6 1.2 -0.3
v -0.6 1.4 -0.3
v -0.5 1.2 -0.3
v -0.5 1.4 -0.3
v -0.4 1.2 -0.3
v -0.4 1.4 -0.3
v -0.3 0 -0.3
v -0.3 0.2 -0.3
v -0.3 0.7 -0.3
v -0.3 1.2 -0.3
v -0.3 1.4 -0.3
v -0.2 0.7 -0.3
v -0.0999999 0 -0.3
v -0.0999999 0.2 -0.3
v -0.0999999 0.7 -0.3
v -0.0999999 1.4 -0.3
v -0.0999999 1.5 -0.3
v 1.19209e-07 1.4 -0.3
v 0.1 0 -0.3
v 0.1 0.2 -0.3
v 0.1 0.7 -0.3
v 0.1 1.4 -0.3
v 0.1 1.5 -0.3
v 0.2 0.7 -0.3
v 0.3 0 -0.3
v 0.3 0.2 -0.3
v 0.3 0.7 -0.3
v 0.3 1.2 -0.3
v 0.3 1.4 -0.3
v 0.4 1.2 -0.3
v 0.4 1.4 -0.3
v 0.5 1.2 -0.3
v 0.5 1.4 -0.3
v 0.6 1.2 -0.3
v 0.6 1.4 -0.3
v 0.7 1.2 -0.3
v 0.7 1.4 -0.3
v 0.8 1.2 -0.3
v 0.8 1.4 -0.3
v 0.9 1.2 -0.3
v 0.9 1.3 -0.3
v 1 1.3 -0.3
v 1 1.4 -0.3
v -0.3 0.7 -0.4
v -0.3 1.4 -0.4
v -0.2 0.7 -0.4
v -0.2 1.4 -0.4
v -0.0999999 0.7 -0.4
v -0.0999999 1.4 -0.4
v 1.19209e-07 0.7 -0.4
v 1.19209e-07 1.4 -0.4
v 0.1 0.7 -0.4
v 0.1 1.4 -0.4
v 0.2 0.7 -0.4
v 0.2 1.4 -0.4
v 0.3 0.7 -0.4
v 0.3 1.4 -0.4
v -0.3 1.5 -0.5
v -0.3 1.8 -0.5
v -0.3 2.1 -0.5
v -0.3 2.2 -0.5
v -0.2 1.8 -0.5
v -0.0999999 1.8 -0.5
v 0.1 1.8 -0.5
v 0.2 1.8 -0.5
v 0.3 1.5 -0.5
v 0.3 1.8 -0.5
v 0.3 2.1 -0.5
v 0.3 2.2 -0.5
v -0.4 1.8 -0.6
v -0.4 2.1 -0.6
v -0.3 1.8 -0.6
v -0.3 2 -0.6
v -0.2 1.8 -0.6
v -0.2 2 -0.6
v -0.0999999 1.8 -0.6
v -0.0999999 2 -0.6
v 0.1 1.8 -0.6
v 0.1 2 -0.6
v 0.2 1.8 -0.6
v 0.2 2 -0.6
v 0.3 1.8 -0.6
v 0.3 2 -0.6
v 0.4 1.8 -0.6
v 0.4 2.1 -0.6
v -0.3 0 0.1
v -0.0999999 0 0.1
v 0.1 0 0.1
v 0.3 0 0.1
v -0.3 0 -0.3
v -0.0999999 0 -0.3
v 0.1 0 -0.3
v 0.3 0 -0.3
v -0.3 0.7 -2.98023e-08
v -0.2 0.7 -2.98023e-08
v -0.0999999 0.7 -2.98023e-08
v 1.19209e-07 0.7 -2.98023e-08
v 0.1 0.7 -2.98023e-08
v 0.2 0.7 -2.98023e-08
v 0.3 0.7 -2.98023e-08
v -0.3 0.7 -0.1
v -0.2 0.7 -0.1
v -0.0999999 0.7 -0.1
v 0.1 0.7 -0.1
v 0.2 0.7 -0.1
v 0.3 0.7 -0.1
v -0.3 0.7 -0.3
v -0.2 0.7 -0.3
v -0.0999999 0.7 -0.3
v 0.1 0.7 -0.3
v 0.2 0.7 -0.3
v 0.3 0.7 -0.3
v -0.3 0.7 -0.4
v -0.2 0.7 -0.4
v -0.0999999 0.7 -0.4
v 1.19209e-07 0.7 -0.4
v 0.1 0.7 -0.4
v 0.2 0.7 -0.4
v 0.3 0.7 -0.4
v -0.9 1.2 -0.1
v -0.8 1.2 -0.1
v -0.7 1.2 -0.1
v -0.6 1.2 -0.1
v -0.5 1.2 -0.1
v -0.4 1.2 -0.1
v -0.3 1.2 -0.1
v 0.3 1.2 -0.1
v 0.4 1.2 -0.1
v 0.5 1.2 -0.1
v 0.6 1.2 -0.1
v 0.7 1.2 -0.1
v 0.8 1.2 -0.1
v 0.9 1.2 -0.1
v -0.9 1.2 -0.3
v -0.8 1.2 -0.3
v -0.7 1.2 -0.3
v -0.6 1.2 -0.3
v -0.5 1.2 -0.3
v -0.4 1.2 -0.3
v -0.3 1.2 -0.3
v 0.3 1.2 -0.3
v 0.4 1.2 -0.3
v 0.5 1.2 -0.3
v 0.6 1.2 -0.3
v 0.7 1.2 -0.3
v 0.8 1.2 -0.3
v 0.9 1.2 -0.3
v -1 1.3 -0.1
v -0.9 1.3 -0.1
v 0.9 1.3 -0.1
v 1 1.3 -0.1
v -1 1.3 -0.3
v -0.9 1.3 -0.3
v 0.9 1.3 -0.3
v 1 1.3 -0.3
v -0.3 1.5 -2.98023e-08
v 0.3 1.5 -2.98023e-08
v -0.0999999 1.5 -0.1
v 0.1 1.5 -0.1
v -0.0999999 1.5 -0.3
v 0.1 1.5 -0.3
v -0.3 1.5 -0.5
v 0.3 1.5 -0.5
v -0.4 1.7 -0.1
v -0.3 1.7 -0.1
v 0.3 1.7 -0.1
v 0.4 1.7 -0.1
v -0.4 1.7 -0.2
v -0.3 1.7 -0.2
v 0.3 1.7 -0.2
v 0.4 1.7 -0.2
v -0.3 1.8 0.3
v -0.2 1.8 0.3
v -0.0999999 1.8 0.3
v 0.1 1.8 0.3
v 0.2 1.8 0.3
v 0.3 1.8 0.3
v -0.4 1.8 -2.98023e-08
v -0.3 1.8 -2.98023e-08
v -0.2 1.8 -2.98023e-08
v -0.0999999 1.8 -2.98023e-08
v 0.1 1.8 -2.98023e-08
v 0.2 1.8 -2.98023e-08
v 0.3 1.8 -2.98023e-08
v 0.4 1.8 -2.98023e-08
v -0.4 1.8 -0.1
v -0.3 1.8 -0.1
v 0.3 1.8 -0.1
v 0.4 1.8 -0.1
v -0.4 1.8 -0.2
v -0.3 1.8 -0.2
v 0.3 1.8 -0.2
v 0.4 1.8 -0.2
v -0.3 1.8 -0.5
v -0.2 1.8 -0.5
v -0.0999999 1.8 -0.5
v 0.1 1.8 -0.5
v 0.2 1.8 -0.5
v 0.3 1.8 -0.5
v -0.4 1.8 -0.6
v -0.3 1.8 -0.6
v -0.2 1.8 -0.6
v -0.0999999 1.8 -0.6
v 0.1 1.8 -0.6
v 0.2 1.8 -0.6
v 0.3 1.8 -0.6
v 0.4 1.8 -0.6
v -0.3 0.1 0.1
v -0.0999999 0.1 0.1
v 0.1 0.1 0.1
v 0.3 0.1 0.1
v -0.3 0.1 -0.1
v -0.0999999 0.1 -0.1
v 0.1 0.1 -0.1
v 0.3 0.1 -0.1
v -0.3 1.4 -2.98023e-08
v -0.2 1.4 -2.98023e-08
v -0.0999999 1.4 -2.98023e-08
v 0.1 1.4 -2.98023e-08
v 0.2 1.4 -2.98023e-08
v 0.3 1.4 -2.98023e-08
v -1 1.4 -0.1
v -0.8 1.4 -0.1
v -0.7 1.4 -0.1
v -0.6 1.4 -0.1
v -0.5 1.4 -0.1
v -0.4 1.4 -0.1
v -0.3 1.4 -0.1
v -0.0999999 1.4 -0.1
v 0.1 1.4 -0.1
v 0.3 1.4 -0.1
v 0.4 1.4 -0.1
v 0.5 1.4 -0.1
v 0.6 1.4 -0.1
v 0.7 1.4 -0.1
v 0.8 1.4 -0.1
v 1 1.4 -0.1
v -1 1.4 -0.3
v -0.8 1.4 -0.3
v -0.7 1.4 -0.3
v -0.6 1.4 -0.3
v -0.5 1.4 -0.3
v -0.4 1.4 -0.3
v -0.3 1.4 -0.3
v -0.0999999 1.4 -0.3
v 1.19209e-07 1.4 -0.3
v 0.1 1.4 -0.3
v 0.3 1.4 -0.3
v 0.4 1.4 -0.3
v 0.5 1.4 -0.3
v 0.6 1.4 -0.3
v 0.7 1.4 -0.3
v 0.8 1.4 -0.3
v 1 1.4 -0.3
v -0.3 1.4 -0.4
v -0.2 1.4 -0.4
v -0.0999999 1.4 -0.4
v 1.19209e-07 1.4 -0.4
v 0.1 1.4 -0.4
v 0.2 1.4 -0.4
v 0.3 1.4 -0.4
v -0.3 1.9 0.3
v -0.2 1.9 0.3
v -0.0999999 1.9 0.3
v 0.1 1.9 0.3
v 0.2 1.9 0.3
v 0.3 1.9 0.3
v -0.3 1.9 0.2
v -0.2 1.9 0.2
v -0.0999999 1.9 0.2
v 0.1 1.9 0.2
v 0.2 1.9 0.2
v 0.3 1.9 0.2
v -0.3 2 0.2
v -0.2 2 0.2
v -0.0999999 2 0.2
v 0.1 2 0.2
v 0.2 2 0.2
v 0.3 2 0.2
v -0.3 2 0.1
v -0.2 2 0.1
v -0.0999999 2 0.1
v 0.1 2 0.1
v 0.2 2 0.1
v 0.3 2 0.1
v -0.3 2.1 0.1
v -0.2 2.1 0.1
v -0.0999999 2.1 0.1
v 0.1 2.1 0.1
v 0.2 2.1 0.1
v 0.3 2.1 0.1
v -0.4 2.1 -2.98023e-08
v -0.3 2.1 -2.98023e-08
v -0.2 2.1 -2.98023e-08
v -0.0999999 2.1 -2.98023e-08
v 0.1 2.1 -2.98023e-08
v 0.2 2.1 -2.98023e-08
v 0.3 2.1 -2.98023e-08
v 0.4 2.1 -2.98023e-08
v -0.3 2.1 -0.5
v 0.3 2.1 -0.5
v -0.4 2.1 -0.6
v 0.4 2.1 -0.6
v -0.3 2.2 -2.98023e-08
v -0.2 2.2 -2.98023e-08
v -0.0999999 2.2 -2.98023e-08
v 0.1 2.2 -2.98023e-08
v 0.2 2.2 -2.98023e-08
v 0.3 2.2 -2.98023e-08
v -0.0999999 2.2 -0.3
v 0.1 2.2 -0.3
v -0.2 2.2 -0.4
v 0.2 2.2 -0.4
v -0.3 2.2 -0.5
v 0.3 2.2 -0.5

# faces
f 3/3/1 2/3/1 1/3/1
f 4/3/1 2/3/1 3/3/1
f 7/3/1 6/3/1 5/3/1
f 8/3/1 6/3/1 7/3/1
f 12/3/1 10/3/1 9/3/1
f 13/3/1 10/3/1 12/3/1
f 15/5/1 12/5/1 11/5/1
f 15/5/1 14/5/1 13/5/1
f 15/5/1 13/5/1 12/5/1
f 16/5/1 14/5/1 15/5/1
f 19/7/1 18/7/1 17/7/1
f 20/7/1 18/7/1 19/7/1
f 21/7/1 18/7/1 20/7/1
f 22/7/1 18/7/1 21/7/1
f 24/1/1 22/1/1 21/1/1
f 25/1/1 22/1/1 24/1/1
f 27/5/1 25/5/1 24/5/1
f 27/5/1 26/5/1 25/5/1
f 27/5/1 24/5/1 23/5/1
f 28/5/1 26/5/1 27/5/1
f 29/5/1 27/5/1 23/5/1
f 30/5/1 27/5/1 29/5/1
f 31/5/1 26/5/1 28/5/1
f 32/5/1 26/5/1 31/5/1
f 35/3/1 34/3/1 33/3/1
f 36/3/1 34/3/1 35/3/1
f 38/3/1 35/3/1 33/3/1
f 39/3/1 35/3/1 38/3/1
f 40/3/1 34/3/1 36/3/1
f 41/3/1 34/3/1 40/3/1
f 42/4/1 38/4/1 37/4/1
f 43/4/1 38/4/1 42/4/1
f 44/4/1 38/4/1 43/4/1
f 45/4/1 38/4/1 44/4/1
f 46/4/1 38/4/1 45/4/1
f 47/4/1 38/4/1 46/4/1
f 49/4/1 48/4/1 47/4/1
f 50/4/1 48/4/1 49/4/1
f 53/3/1 52/3/1 51/3/1
f 54/3/1 52/3/1 53/3/1
f 57/7/1 56/7/1 55/7/1
f 58/7/1 56/7/1 57/7/1
f 59/7/1 56/7/1 58/7/1
f 60/7/1 56/7/1 59/7/1
f 61/1/1 60/1/1 59/1/1
f 62/1/1 60/1/1 61/1/1
f 63/7/2 64/7/2 65/7/2
f 65/7/2 64/7/2 66/7/2
f 66/7/2 64/7/2 67/7/2
f 67/7/2 64/7/2 68/7/2
f 67/1/2 68/1/2 69/1/2
f 69/1/2 68/1/2 70/1/2
f 71/3/2 72/3/2 73/3/2
f 73/3/2 72/3/2 74/3/2
f 75/7/2 76/7/2 77/7/2
f 77/7/2 76/7/2 78/7/2
f 78/7/2 76/7/2 79/7/2
f 79/7/2 76/7/2 80/7/2
f 79/1/2 80/1/2 82/1/2
f 82/1/2 80/1/2 83/1/2
f 82/4/2 83/4/2 85/4/2
f 83/4/2 84/4/2 85/4/2
f 81/4/2 82/4/2 85/4/2
f 85/4/2 84/4/2 86/4/2
f 81/4/2 85/4/2 87/4/2
f 87/4/2 85/4/2 88/4/2
f 86/4/2 84/4/2 89/4/2
f 89/4/2 84/4/2 90/4/2
f 91/3/2 92/3/2 93/3/2
f 93/3/2 92/3/2 94/3/2
f 91/3/2 93/3/2 96/3/2
f 96/3/2 93/3/2 97/3/2
f 94/3/2 92/3/2 98/3/2
f 98/3/2 92/3/2 99/3/2
f 95/4/2 96/4/2 100/4/2
f 100/4/2 96/4/2 101/4/2
f 101/4/2 96/4/2 102/4/2
f 102/4/2 96/4/2 103/4/2
f 103/4/2 96/4/2 104/4/2
f 104/4/2 96/4/2 105/4/2
f 105/4/2 106/4/2 107/4/2
f 107/4/2 106/4/2 108/4/2
f 109/3/2 110/3/2 112/3/2
f 112/3/2 110/3/2 113/3/2
f 111/5/2 112/5/2 115/5/2
f 113/5/2 114/5/2 115/5/2
f 112/5/2 113/5/2 115/5/2
f 115/5/2 114/5/2 116/5/2
f 117/3/2 118/3/2 119/3/2
f 119/3/2 118/3/2 120/3/2
f 121/3/2 122/3/2 123/3/2
f 123/3/2 122/3/2 124/3/2
f 127/4/3 126/4/3 125/4/3
f 128/4/3 126/4/3 127/4/3
f 129/5/3 128/5/3 127/5/3
f 130/5/3 128/5/3 129/5/3
f 131/4/3 130/4/3 129/4/3
f 132/4/3 130/4/3 131/4/3
f 133/5/3 132/5/3 131/5/3
f 134/5/3 132/5/3 133/5/3
f 135/4/3 134/4/3 133/4/3
f 136/4/3 134/4/3 135/4/3
f 139/4/3 138/4/3 137/4/3
f 140/4/3 138/4/3 139/4/3
f 141/5/3 140/5/3 139/5/3
f 142/5/3 140/5/3 141/5/3
f 143/4/3 142/4/3 141/4/3
f 144/4/3 142/4/3 143/4/3
f 145/5/3 144/5/3 143/5/3
f 146/5/3 144/5/3 145/5/3
f 147/4/3 146/4/3 145/4/3
f 148/4/3 146/4/3 147/4/3
f 153/4/3 152/4/3 151/4/3
f 154/4/3 152/4/3 153/4/3
f 155/7/3 150/7/3 149/7/3
f 156/7/3 150/7/3 155/7/3
f 157/5/3 154/5/3 153/5/3
f 158/5/3 154/5/3 157/5/3
f 161/4/3 158/4/3 157/4/3
f 162/4/3 158/4/3 161/4/3
f 163/5/3 162/5/3 161/5/3
f 164/5/3 162/5/3 163/5/3
f 165/7/3 160/7/3 159/7/3
f 166/7/3 160/7/3 165/7/3
f 167/4/3 164/4/3 163/4/3
f 168/4/3 164/4/3 167/4/3
f 174/5/3 170/5/3 169/5/3
f 175/5/3 170/5/3 174/5/3
f 177/5/3 172/5/3 171/5/3
f 178/5/3 172/5/3 177/5/3
f 179/3/3 174/3/3 173/3/3
f 180/3/3 174/3/3 179/3/3
f 181/4/3 176/4/3 175/4/3
f 182/4/3 176/4/3 181/4/3
f 183/4/3 178/4/3 177/4/3
f 184/4/3 178/4/3 183/4/3
f 185/4/3 178/4/3 184/4/3
f 186/7/3 180/7/3 179/7/3
f 186/3/3 179/3/3 173/3/3
f 187/7/3 180/7/3 186/7/3
f 188/5/3 182/5/3 181/5/3
f 189/5/3 182/5/3 188/5/3
f 190/5/3 184/5/3 183/5/3
f 191/6/3 185/6/3 184/6/3
f 191/5/3 184/5/3 190/5/3
f 192/4/3 191/4/3 190/4/3
f 193/6/3 185/6/3 191/6/3
f 193/4/3 191/4/3 192/4/3
f 194/6/3 185/6/3 193/6/3
f 195/3/3 187/3/3 186/3/3
f 195/3/3 186/3/3 173/3/3
f 196/3/3 187/3/3 195/3/3
f 197/4/3 189/4/3 188/4/3
f 198/4/3 189/4/3 197/4/3
f 199/5/3 194/5/3 193/5/3
f 199/5/3 193/5/3 192/5/3
f 200/5/3 194/5/3 199/5/3
f 201/7/3 196/7/3 195/7/3
f 201/3/3 195/3/3 173/3/3
f 202/7/3 196/7/3 201/7/3
f 203/5/3 198/5/3 197/5/3
f 204/5/3 198/5/3 203/5/3
f 205/4/3 200/4/3 199/4/3
f 206/4/3 200/4/3 205/4/3
f 207/3/3 202/3/3 201/3/3
f 207/3/3 201/3/3 173/3/3
f 208/3/3 202/3/3 207/3/3
f 209/4/3 204/4/3 203/4/3
f 210/4/3 204/4/3 209/4/3
f 211/5/3 209/5/3 208/5/3
f 212/5/3 209/5/3 211/5/3
f 216/3/3 214/3/3 213/3/3
f 217/3/3 216/3/3 215/3/3
f 218/3/3 214/3/3 216/3/3
f 218/3/3 216/3/3 217/3/3
f 219/4/3 218/4/3 217/4/3
f 220/4/3 218/4/3 219/4/3
f 221/5/3 220/5/3 219/5/3
f 222/5/3 220/5/3 221/5/3
f 223/4/3 222/4/3 221/4/3
f 224/4/3 222/4/3 223/4/3
f 225/5/3 224/5/3 223/5/3
f 226/5/3 224/5/3 225/5/3
f 232/4/3 226/4/3 225/4/3
f 233/4/3 226/4/3 232/4/3
f 234/3/3 228/3/3 227/3/3
f 235/3/3 228/3/3 234/3/3
f 236/1/3 231/1/3 230/1/3
f 237/7/3 230/7/3 229/7/3
f 238/1/3 236/1/3 230/1/3
f 238/7/3 230/7/3 237/7/3
f 239/1/3 236/1/3 238/1/3
f 245/3/3 241/3/3 240/3/3
f 246/3/3 241/3/3 245/3/3
f 247/1/3 244/1/3 243/1/3
f 248/7/3 243/7/3 242/7/3
f 249/1/3 247/1/3 243/1/3
f 249/7/3 243/7/3 248/7/3
f 250/1/3 247/1/3 249/1/3
f 255/5/3 252/5/3 251/5/3
f 256/5/3 252/5/3 255/5/3
f 257/3/3 254/3/3 253/3/3
f 258/3/3 254/3/3 257/3/3
f 259/4/3 256/4/3 255/4/3
f 260/4/3 256/4/3 259/4/3
f 261/5/3 260/5/3 259/5/3
f 262/5/3 260/5/3 261/5/3
f 263/4/3 262/4/3 261/4/3
f 264/4/3 262/4/3 263/4/3
f 265/5/3 264/5/3 263/5/3
f 266/5/3 264/5/3 265/5/3
f 267/3/3 266/3/3 265/3/3
f 268/3/3 266/3/3 267/3/3
f 269/3/3 266/3/3 268/3/3
f 270/3/3 266/3/3 269/3/3
f 271/3/4 272/3/4 273/3/4
f 273/3/4 272/3/4 274/3/4
f 275/3/4 276/3/4 277/3/4
f 277/3/4 276/3/4 278/3/4
f 279/3/4 280/3/4 282/3/4
f 281/3/4 282/3/4 283/3/4
f 282/3/4 280/3/4 284/3/4
f 283/3/4 282/3/4 284/3/4
f 283/4/4 284/4/4 285/4/4
f 285/4/4 284/4/4 286/4/4
f 285/5/4 286/5/4 287/5/4
f 287/5/4 286/5/4 288/5/4
f 287/4/4 288/4/4 289/4/4
f 289/4/4 288/4/4 290/4/4
f 289/5/4 290/5/4 291/5/4
f 291/5/4 290/5/4 292/5/4
f 291/4/4 292/4/4 296/4/4
f 296/4/4 292/4/4 297/4/4
f 294/1/4 295/1/4 298/1/4
f 293/7/4 294/7/4 299/7/4
f 294/1/4 298/1/4 300/1/4
f 299/7/4 294/7/4 300/7/4
f 300/1/4 298/1/4 301/1/4
f 302/3/4 303/3/4 304/3/4
f 304/3/4 303/3/4 308/3/4
f 308/3/4 303/3/4 309/3/4
f 306/1/4 307/1/4 310/1/4
f 305/7/4 306/7/4 311/7/4
f 306/1/4 310/1/4 312/1/4
f 311/7/4 306/7/4 312/7/4
f 312/1/4 310/1/4 313/1/4
f 314/5/4 315/5/4 316/5/4
f 316/5/4 315/5/4 317/5/4
f 316/4/4 317/4/4 318/4/4
f 318/4/4 317/4/4 319/4/4
f 318/5/4 319/5/4 320/5/4
f 320/5/4 319/5/4 321/5/4
f 320/4/4 321/4/4 322/4/4
f 322/4/4 321/4/4 323/4/4
f 322/5/4 323/5/4 324/5/4
f 324/5/4 323/5/4 325/5/4
f 324/3/4 325/3/4 326/3/4
f 326/3/4 325/3/4 327/3/4
f 327/3/4 325/3/4 328/3/4
f 328/3/4 325/3/4 329/3/4
f 330/5/4 331/5/4 332/5/4
f 332/5/4 331/5/4 333/5/4
f 332/4/4 333/4/4 334/4/4
f 334/4/4 333/4/4 335/4/4
f 334/5/4 335/5/4 336/5/4
f 336/5/4 335/5/4 337/5/4
f 336/4/4 337/4/4 338/4/4
f 338/4/4 337/4/4 339/4/4
f 338/5/4 339/5/4 340/5/4
f 340/5/4 339/5/4 341/5/4
f 340/4/4 341/4/4 342/4/4
f 342/4/4 341/4/4 343/4/4
f 344/3/4 345/3/4 348/3/4
f 344/3/4 348/3/4 349/3/4
f 344/3/4 349/3/4 350/3/4
f 344/3/4 350/3/4 351/3/4
f 344/3/4 351/3/4 352/3/4
f 352/3/4 351/3/4 353/3/4
f 346/4/4 347/4/4 354/4/4
f 354/4/4 347/4/4 355/4/4
f 356/5/4 357/5/4 358/5/4
f 358/5/4 357/5/4 359/5/4
f 358/4/4 359/4/4 360/4/4
f 359/5/4 357/5/4 361/5/4
f 360/4/4 359/4/4 361/4/4
f 360/5/4 361/5/4 362/5/4
f 361/5/4 357/5/4 363/5/4
f 362/5/4 361/5/4 363/5/4
f 362/4/4 363/4/4 364/4/4
f 363/5/4 357/5/4 365/5/4
f 364/4/4 363/4/4 365/4/4
f 364/5/4 365/5/4 366/5/4
f 365/5/4 357/5/4 367/5/4
f 366/5/4 365/5/4 367/5/4
f 366/4/4 367/4/4 368/4/4
f 367/5/4 357/5/4 369/5/4
f 368/4/4 367/4/4 369/4/4
f 368/5/4 369/5/4 370/5/4
f 369/5/4 357/5/4 371/5/4
f 370/5/4 369/5/4 371/5/4
f 376/7/5 373/7/5 372/7/5
f 377/7/5 373/7/5 376/7/5
f 378/7/5 375/7/5 374/7/5
f 379/7/5 375/7/5 378/7/5
f 387/5/5 381/5/5 380/5/5
f 388/4/5 382/4/5 381/4/5
f 388/5/5 381/5/5 387/5/5
f 389/5/5 383/5/5 382/5/5
f 389/4/5 382/4/5 388/4/5
f 390/4/5 384/4/5 383/4/5
f 390/5/5 385/5/5 384/5/5
f 391/4/5 386/4/5 385/4/5
f 391/5/5 385/5/5 390/5/5
f 392/4/5 386/4/5 391/4/5
f 395/5/5 383/5/5 389/5/5
f 396/4/5 390/4/5 383/4/5
f 399/5/5 394/5/5 393/5/5
f 400/4/5 395/4/5 394/4/5
f 400/5/5 394/5/5 399/5/5
f 401/5/5 383/5/5 395/5/5
f 401/4/5 395/4/5 400/4/5
f 402/4/5 396/4/5 383/4/5
f 402/5/5 383/5/5 401/5/5
f 403/5/5 397/5/5 396/5/5
f 403/4/5 396/4/5 402/4/5
f 404/4/5 398/4/5 397/4/5
f 404/5/5 397/5/5 403/5/5
f 405/4/5 398/4/5 404/4/5
f 420/3/5 407/3/5 406/3/5
f 421/4/5 408/4/5 407/4/5
f 421/3/5 407/3/5 420/3/5
f 422/5/5 409/5/5 408/5/5
f 422/4/5 408/4/5 421/4/5
f 423/4/5 410/4/5 409/4/5
f 423/5/5 409/5/5 422/5/5
f 424/5/5 411/5/5 410/5/5
f 424/4/5 410/4/5 423/4/5
f 425/4/5 412/4/5 411/4/5
f 425/5/5 411/5/5 424/5/5
f 426/4/5 412/4/5 425/4/5
f 427/5/5 414/5/5 413/5/5
f 428/4/5 415/4/5 414/4/5
f 428/5/5 414/5/5 427/5/5
f 429/5/5 416/5/5 415/5/5
f 429/4/5 415/4/5 428/4/5
f 430/4/5 417/4/5 416/4/5
f 430/5/5 416/5/5 429/5/5
f 431/5/5 418/5/5 417/5/5
f 431/4/5 417/4/5 430/4/5
f 432/3/5 419/3/5 418/3/5
f 432/5/5 418/5/5 431/5/5
f 433/3/5 419/3/5 432/3/5
f 438/3/5 435/3/5 434/3/5
f 439/3/5 435/3/5 438/3/5
f 440/3/5 437/3/5 436/3/5
f 441/3/5 437/3/5 440/3/5
f 444/3/5 443/3/5 442/3/5
f 445/3/5 443/3/5 444/3/5
f 446/3/5 444/3/5 442/3/5
f 447/3/5 443/3/5 445/3/5
f 448/3/5 446/3/5 442/3/5
f 448/3/5 447/3/5 446/3/5
f 449/3/5 443/3/5 447/3/5
f 449/3/5 447/3/5 448/3/5
f 454/3/5 451/3/5 450/3/5
f 455/3/5 451/3/5 454/3/5
f 456/3/5 453/3/5 452/3/5
f 457/3/5 453/3/5 456/3/5
f 465/4/5 459/4/5 458/4/5
f 466/5/5 460/5/5 459/5/5
f 466/4/5 459/4/5 465/4/5
f 467/4/5 461/4/5 460/4/5
f 467/5/5 460/5/5 466/5/5
f 468/5/5 462/5/5 461/5/5
f 468/4/5 461/4/5 467/4/5
f 469/4/5 463/4/5 462/4/5
f 469/5/5 462/5/5 468/5/5
f 470/4/5 463/4/5 469/4/5
f 472/5/5 465/5/5 464/5/5
f 473/5/5 465/5/5 472/5/5
f 474/5/5 471/5/5 470/5/5
f 475/5/5 471/5/5 474/5/5
f 480/5/5 477/5/5 476/5/5
f 485/5/5 479/5/5 478/5/5
f 486/5/5 480/5/5 476/5/5
f 487/4/5 481/4/5 480/4/5
f 487/5/5 480/5/5 486/5/5
f 488/5/5 482/5/5 481/5/5
f 488/4/5 481/4/5 487/4/5
f 489/4/5 483/4/5 482/4/5
f 489/5/5 482/5/5 488/5/5
f 490/5/5 484/5/5 483/5/5
f 490/4/5 483/4/5 489/4/5
f 491/4/5 485/4/5 484/4/5
f 491/5/5 484/5/5 490/5/5
f 492/5/5 479/5/5 485/5/5
f 492/4/5 485/4/5 491/4/5
f 493/5/5 479/5/5 492/5/5
f 494/7/6 495/7/6 498/7/6
f 498/7/6 495/7/6 499/7/6
f 496/7/6 497/7/6 500/7/6
f 500/7/6 497/7/6 501/7/6
f 502/5/6 503/5/6 514/5/6
f 503/4/6 504/4/6 515/4/6
f 504/6/6 505/6/6 515/6/6
f 505/5/6 506/5/6 516/5/6
f 515/6/6 505/6/6 516/6/6
f 506/4/6 507/4/6 517/4/6
f 508/3/6 509/3/6 524/3/6
f 509/4/6 510/4/6 525/4/6
f 524/3/6 509/3/6 525/3/6
f 510/5/6 511/5/6 526/5/6
f 525/4/6 510/4/6 526/4/6
f 511/4/6 512/4/6 527/4/6
f 526/5/6 511/5/6 527/5/6
f 512/5/6 513/5/6 528/5/6
f 527/4/6 512/4/6 528/4/6
f 513/4/6 514/4/6 529/4/6
f 528/5/6 513/5/6 529/5/6
f 514/5/6 503/5/6 530/5/6
f 529/4/6 514/4/6 530/4/6
f 503/4/6 515/4/6 531/4/6
f 516/5/6 506/5/6 533/5/6
f 506/4/6 517/4/6 534/4/6
f 517/5/6 518/5/6 534/5/6
f 518/4/6 519/4/6 535/4/6
f 534/5/6 518/5/6 535/5/6
f 519/5/6 520/5/6 536/5/6
f 535/4/6 519/4/6 536/4/6
f 520/4/6 521/4/6 537/4/6
f 536/5/6 520/5/6 537/5/6
f 521/5/6 522/5/6 538/5/6
f 537/4/6 521/4/6 538/4/6
f 522/3/6 523/3/6 539/3/6
f 538/5/6 522/5/6 539/5/6
f 539/3/6 523/3/6 540/3/6
f 530/5/6 503/5/6 541/5/6
f 503/4/6 531/4/6 542/4/6
f 541/5/6 503/5/6 542/5/6
f 531/5/6 532/5/6 543/5/6
f 542/4/6 531/4/6 543/4/6
f 532/4/6 533/4/6 544/4/6
f 543/5/6 532/5/6 544/5/6
f 533/5/6 506/5/6 545/5/6
f 544/4/6 533/4/6 545/4/6
f 506/4/6 534/4/6 546/4/6
f 545/5/6 506/5/6 546/5/6
f 546/4/6 534/4/6 547/4/6
f 548/4/6 549/4/6 554/4/6
f 549/5/6 550/5/6 555/5/6
f 554/4/6 549/4/6 555/4/6
f 550/4/6 551/4/6 556/4/6
f 555/5/6 550/5/6 556/5/6
f 551/5/6 552/5/6 557/5/6
f 556/4/6 551/4/6 557/4/6
f 552/4/6 553/4/6 558/4/6
f 557/5/6 552/5/6 558/5/6
f 558/4/6 553/4/6 559/4/6
f 560/4/6 561/4/6 566/4/6
f 561/5/6 562/5/6 567/5/6
f 566/4/6 561/4/6 567/4/6
f 562/4/6 563/4/6 568/4/6
f 567/5/6 562/5/6 568/5/6
f 563/5/6 564/5/6 569/5/6
f 568/4/6 563/4/6 569/4/6
f 564/4/6 565/4/6 570/4/6
f 569/5/6 564/5/6 570/5/6
f 570/4/6 565/4/6 571/4/6
f 572/4/6 573/4/6 579/4/6
f 573/5/6 574/5/6 580/5/6
f 579/4/6 573/4/6 580/4/6
f 574/4/6 575/4/6 581/4/6
f 580/5/6 574/5/6 581/5/6
f 575/5/6 576/5/6 582/5/6
f 581/4/6 575/4/6 582/4/6
f 576/4/6 577/4/6 583/4/6
f 582/5/6 576/5/6 583/5/6
f 583/4/6 577/4/6 584/4/6
f 578/5/6 579/5/6 586/5/6
f 584/5/6 585/5/6 587/5/6
f 578/5/6 586/5/6 588/5/6
f 586/5/6 587/5/6 588/5/6
f 587/5/6 585/5/6 589/5/6
f 588/5/6 587/5/6 589/5/6
f 591/5/6 592/5/6 596/5/6
f 592/4/6 593/4/6 596/4/6
f 593/5/6 594/5/6 597/5/6
f 596/4/6 593/4/6 597/4/6
f 590/4/6 591/4/6 598/4/6
f 591/5/6 596/5/6 598/5/6
f 596/5/6 597/5/6 598/5/6
f 597/5/6 594/5/6 599/5/6
f 598/5/6 597/5/6 599/5/6
f 594/4/6 595/4/6 599/4/6
f 590/4/6 598/4/6 600/4/6
f 598/4/6 599/4/6 600/4/6
f 599/4/6 595/4/6 601/4/6
f 600/4/6 599/4/6 601/4/6
