# MagicaVoxel @ Ephtracy

# group
o 

# material
mtllib npc_male_1.mtl
usemtl palette

# normals
vn -1 0 0
vn 1 0 0
vn 0 0 1
vn 0 0 -1
vn 0 -1 0
vn 0 1 0

# texcoords
vt 0.0175781 0.5
vt 0.0214844 0.5
vt 0.0253906 0.5
vt 0.0292969 0.5
vt 0.0332031 0.5
vt 0.236328 0.5
vt 0.310547 0.5
vt 0.994141 0.5

# verts
v -1 1.3 -0.1
v -1 1.3 -0.3
v -1 1.4 -0.1
v -1 1.4 -0.3
v -0.9 1.2 -0.1
v -0.9 1.2 -0.3
v -0.9 1.3 -0.1
v -0.9 1.3 -0.3
v -0.4 1.5 -0.2
v -0.4 1.5 -0.5
v -0.4 1.7 -0.1
v -0.4 1.7 -0.2
v -0.4 1.8 -7.45058e-08
v -0.4 1.8 -0.1
v -0.4 1.8 -0.2
v -0.4 2 -7.45058e-08
v -0.4 2 -0.5
v -0.3 0 0.0999999
v -0.3 0 -0.3
v -0.3 0.1 0.0999999
v -0.3 0.1 -0.1
v -0.3 0.2 -0.1
v -0.3 0.2 -0.3
v -0.3 0.4 -0.3
v -0.3 0.4 -0.4
v -0.3 0.5 -7.45058e-08
v -0.3 0.5 -0.1
v -0.3 0.5 -0.3
v -0.3 1.2 -0.1
v -0.3 1.2 -0.3
v -0.3 1.4 -7.45058e-08
v -0.3 1.4 -0.1
v -0.3 1.4 -0.3
v -0.3 1.4 -0.4
v -0.3 1.5 -7.45058e-08
v -0.3 1.5 -0.2
v -0.3 1.5 -0.5
v -0.3 1.5 -0.6
v -0.3 1.7 -7.45058e-08
v -0.3 1.7 -0.1
v -0.3 1.7 -0.2
v -0.3 1.8 -7.45058e-08
v -0.3 1.8 -0.1
v -0.3 2 -7.45058e-08
v -0.3 2 -0.5
v -0.3 2 -0.6
v -0.3 2.1 -7.45058e-08
v -0.3 2.1 -0.5
v -0.0999999 1.4 -0.1
v -0.0999999 1.4 -0.3
v -0.0999999 1.5 -0.1
v -0.0999999 1.5 -0.3
v 0.1 0 0.0999999
v 0.1 0 -0.3
v 0.1 0.1 0.0999999
v 0.1 0.1 -0.1
v 0.1 0.2 -0.1
v 0.1 0.2 -0.3
v 0.1 0.4 -0.3
v 0.1 0.5 -7.45058e-08
v 0.1 0.5 -0.1
v 0.1 0.7 -7.45058e-08
v 0.1 0.7 -0.1
v 0.1 0.7 -0.3
v -0.0999999 0 0.0999999
v -0.0999999 0 -0.3
v -0.0999999 0.1 0.0999999
v -0.0999999 0.1 -0.1
v -0.0999999 0.2 -0.1
v -0.0999999 0.2 -0.3
v -0.0999999 0.4 -0.3
v -0.0999999 0.5 -7.45058e-08
v -0.0999999 0.5 -0.1
v -0.0999999 0.7 -7.45058e-08
v -0.0999999 0.7 -0.1
v -0.0999999 0.7 -0.3
v 0.1 1.4 -0.1
v 0.1 1.4 -0.3
v 0.1 1.5 -0.1
v 0.1 1.5 -0.3
v 0.3 0 0.0999999
v 0.3 0 -0.3
v 0.3 0.1 0.0999999
v 0.3 0.1 -0.1
v 0.3 0.2 -0.1
v 0.3 0.2 -0.3
v 0.3 0.4 -0.3
v 0.3 0.4 -0.4
v 0.3 0.5 -7.45058e-08
v 0.3 0.5 -0.1
v 0.3 0.5 -0.3
v 0.3 1.2 -0.1
v 0.3 1.2 -0.3
v 0.3 1.4 -7.45058e-08
v 0.3 1.4 -0.1
v 0.3 1.4 -0.3
v 0.3 1.4 -0.4
v 0.3 1.5 -7.45058e-08
v 0.3 1.5 -0.2
v 0.3 1.5 -0.5
v 0.3 1.5 -0.6
v 0.3 1.7 -7.45058e-08
v 0.3 1.7 -0.1
v 0.3 1.7 -0.2
v 0.3 1.8 -7.45058e-08
v 0.3 1.8 -0.1
v 0.3 2 -7.45058e-08
v 0.3 2 -0.5
v 0.3 2 -0.6
v 0.3 2.1 -7.45058e-08
v 0.3 2.1 -0.5
v 0.4 1.5 -0.2
v 0.4 1.5 -0.5
v 0.4 1.7 -0.1
v 0.4 1.7 -0.2
v 0.4 1.8 -7.45058e-08
v 0.4 1.8 -0.1
v 0.4 1.8 -0.2
v 0.4 2 -7.45058e-08
v 0.4 2 -0.5
v 0.9 1.2 -0.1
v 0.9 1.2 -0.3
v 0.9 1.3 -0.1
v 0.9 1.3 -0.3
v 1 1.3 -0.1
v 1 1.3 -0.3
v 1 1.4 -0.1
v 1 1.4 -0.3
v -0.3 0 0.0999999
v -0.3 0.1 0.0999999
v -0.0999999 0 0.0999999
v -0.0999999 0.1 0.0999999
v 0.1 0 0.0999999
v 0.1 0.1 0.0999999
v 0.3 0 0.0999999
v 0.3 0.1 0.0999999
v -0.4 1.8 -7.45058e-08
v -0.4 2 -7.45058e-08
v -0.3 0.5 -7.45058e-08
v -0.3 1.4 -7.45058e-08
v -0.3 1.5 -7.45058e-08
v -0.3 1.7 -7.45058e-08
v -0.3 1.8 -7.45058e-08
v -0.3 1.9 -7.45058e-08
v -0.3 2 -7.45058e-08
v -0.3 2.1 -7.45058e-08
v -0.2 1.7 -7.45058e-08
v -0.2 1.8 -7.45058e-08
v -0.0999999 0.5 -7.45058e-08
v -0.0999999 0.7 -7.45058e-08
v -0.0999999 1.4 -7.45058e-08
v -0.0999999 1.6 -7.45058e-08
v -0.0999999 1.7 -7.45058e-08
v -0.0999999 1.8 -7.45058e-08
v -0.0999999 1.9 -7.45058e-08
v 0.1 0.5 -7.45058e-08
v 0.1 0.7 -7.45058e-08
v 0.1 1.4 -7.45058e-08
v 0.1 1.6 -7.45058e-08
v 0.1 1.7 -7.45058e-08
v 0.1 1.8 -7.45058e-08
v 0.1 1.9 -7.45058e-08
v 0.2 1.7 -7.45058e-08
v 0.2 1.8 -7.45058e-08
v 0.3 0.5 -7.45058e-08
v 0.3 1.4 -7.45058e-08
v 0.3 1.5 -7.45058e-08
v 0.3 1.7 -7.45058e-08
v 0.3 1.8 -7.45058e-08
v 0.3 1.9 -7.45058e-08
v 0.3 2 -7.45058e-08
v 0.3 2.1 -7.45058e-08
v 0.4 1.8 -7.45058e-08
v 0.4 2 -7.45058e-08
v -1 1.3 -0.1
v -1 1.4 -0.1
v -0.9 1.2 -0.1
v -0.9 1.3 -0.1
v -0.8 1.2 -0.1
v -0.8 1.4 -0.1
v -0.7 1.2 -0.1
v -0.7 1.4 -0.1
v -0.4 1.7 -0.1
v -0.4 1.8 -0.1
v -0.3 0.1 -0.1
v -0.3 0.2 -0.1
v -0.3 0.5 -0.1
v -0.3 1.2 -0.1
v -0.3 1.4 -0.1
v -0.3 1.7 -0.1
v -0.3 1.8 -0.1
v -0.0999999 0.1 -0.1
v -0.0999999 0.2 -0.1
v -0.0999999 0.5 -0.1
v -0.0999999 1.4 -0.1
v -0.0999999 1.5 -0.1
v 0.1 0.1 -0.1
v 0.1 0.2 -0.1
v 0.1 0.5 -0.1
v 0.1 1.4 -0.1
v 0.1 1.5 -0.1
v 0.3 0.1 -0.1
v 0.3 0.2 -0.1
v 0.3 0.5 -0.1
v 0.3 1.2 -0.1
v 0.3 1.4 -0.1
v 0.3 1.7 -0.1
v 0.3 1.8 -0.1
v 0.4 1.7 -0.1
v 0.4 1.8 -0.1
v 0.7 1.2 -0.1
v 0.7 1.4 -0.1
v 0.8 1.2 -0.1
v 0.8 1.4 -0.1
v 0.9 1.2 -0.1
v 0.9 1.3 -0.1
v 1 1.3 -0.1
v 1 1.4 -0.1
v -0.4 1.5 -0.2
v -0.4 1.7 -0.2
v -0.3 1.5 -0.2
v -0.3 1.7 -0.2
v 0.3 1.5 -0.2
v 0.3 1.7 -0.2
v 0.4 1.5 -0.2
v 0.4 1.7 -0.2
v -0.0999999 0.4 -0.3
v -0.0999999 0.7 -0.3
v 0.1 0.4 -0.3
v 0.1 0.7 -0.3
v -1 1.3 -0.3
v -1 1.4 -0.3
v -0.9 1.2 -0.3
v -0.9 1.3 -0.3
v -0.8 1.2 -0.3
v -0.8 1.4 -0.3
v -0.7 1.2 -0.3
v -0.7 1.4 -0.3
v -0.3 0 -0.3
v -0.3 0.2 -0.3
v -0.3 0.4 -0.3
v -0.3 1.2 -0.3
v -0.3 1.4 -0.3
v -0.0999999 0 -0.3
v -0.0999999 0.2 -0.3
v -0.0999999 0.4 -0.3
v -0.0999999 1.4 -0.3
v -0.0999999 1.5 -0.3
v 0.1 0 -0.3
v 0.1 0.2 -0.3
v 0.1 0.4 -0.3
v 0.1 1.4 -0.3
v 0.1 1.5 -0.3
v 0.3 0 -0.3
v 0.3 0.2 -0.3
v 0.3 0.4 -0.3
v 0.3 1.2 -0.3
v 0.3 1.4 -0.3
v 0.7 1.2 -0.3
v 0.7 1.4 -0.3
v 0.8 1.2 -0.3
v 0.8 1.4 -0.3
v 0.9 1.2 -0.3
v 0.9 1.3 -0.3
v 1 1.3 -0.3
v 1 1.4 -0.3
v -0.3 0.4 -0.4
v -0.3 1.4 -0.4
v 0.3 0.4 -0.4
v 0.3 1.4 -0.4
v -0.4 1.5 -0.5
v -0.4 2 -0.5
v -0.3 1.5 -0.5
v -0.3 2 -0.5
v -0.3 2.1 -0.5
v 0.3 1.5 -0.5
v 0.3 2 -0.5
v 0.3 2.1 -0.5
v 0.4 1.5 -0.5
v 0.4 2 -0.5
v -0.3 1.5 -0.6
v -0.3 2 -0.6
v 0.3 1.5 -0.6
v 0.3 2 -0.6
v -0.3 0 0.0999999
v -0.0999999 0 0.0999999
v 0.1 0 0.0999999
v 0.3 0 0.0999999
v -0.3 0 -0.3
v -0.0999999 0 -0.3
v 0.1 0 -0.3
v 0.3 0 -0.3
v -0.3 0.4 -0.3
v -0.0999999 0.4 -0.3
v 0.1 0.4 -0.3
v 0.3 0.4 -0.3
v -0.3 0.4 -0.4
v 0.3 0.4 -0.4
v -0.3 0.5 -7.45058e-08
v -0.0999999 0.5 -7.45058e-08
v 0.1 0.5 -7.45058e-08
v 0.3 0.5 -7.45058e-08
v -0.3 0.5 -0.1
v -0.0999999 0.5 -0.1
v 0.1 0.5 -0.1
v 0.3 0.5 -0.1
v -0.0999999 0.7 -7.45058e-08
v 0.1 0.7 -7.45058e-08
v -0.0999999 0.7 -0.1
v 0.1 0.7 -0.1
v -0.0999999 0.7 -0.3
v 0.1 0.7 -0.3
v -0.9 1.2 -0.1
v -0.8 1.2 -0.1
v -0.7 1.2 -0.1
v -0.3 1.2 -0.1
v 0.3 1.2 -0.1
v 0.7 1.2 -0.1
v 0.8 1.2 -0.1
v 0.9 1.2 -0.1
v -0.9 1.2 -0.3
v -0.8 1.2 -0.3
v -0.7 1.2 -0.3
v -0.3 1.2 -0.3
v 0.3 1.2 -0.3
v 0.7 1.2 -0.3
v 0.8 1.2 -0.3
v 0.9 1.2 -0.3
v -1 1.3 -0.1
v -0.9 1.3 -0.1
v 0.9 1.3 -0.1
v 1 1.3 -0.1
v -1 1.3 -0.3
v -0.9 1.3 -0.3
v 0.9 1.3 -0.3
v 1 1.3 -0.3
v -0.3 1.5 -7.45058e-08
v 0.3 1.5 -7.45058e-08
v -0.2 1.5 -0.1
v -0.0999999 1.5 -0.1
v 0.1 1.5 -0.1
v 0.2 1.5 -0.1
v -0.4 1.5 -0.2
v -0.3 1.5 -0.2
v -0.2 1.5 -0.2
v 0.2 1.5 -0.2
v 0.3 1.5 -0.2
v 0.4 1.5 -0.2
v -0.0999999 1.5 -0.3
v 0.1 1.5 -0.3
v -0.4 1.5 -0.5
v -0.3 1.5 -0.5
v 0.3 1.5 -0.5
v 0.4 1.5 -0.5
v -0.3 1.5 -0.6
v 0.3 1.5 -0.6
v -0.4 1.7 -0.1
v -0.3 1.7 -0.1
v 0.3 1.7 -0.1
v 0.4 1.7 -0.1
v -0.4 1.7 -0.2
v -0.3 1.7 -0.2
v 0.3 1.7 -0.2
v 0.4 1.7 -0.2
v -0.4 1.8 -7.45058e-08
v -0.3 1.8 -7.45058e-08
v 0.3 1.8 -7.45058e-08
v 0.4 1.8 -7.45058e-08
v -0.4 1.8 -0.1
v -0.3 1.8 -0.1
v 0.3 1.8 -0.1
v 0.4 1.8 -0.1
v -0.3 0.1 0.0999999
v -0.0999999 0.1 0.0999999
v 0.1 0.1 0.0999999
v 0.3 0.1 0.0999999
v -0.3 0.1 -0.1
v -0.0999999 0.1 -0.1
v 0.1 0.1 -0.1
v 0.3 0.1 -0.1
v -0.3 1.4 -7.45058e-08
v -0.0999999 1.4 -7.45058e-08
v 0.1 1.4 -7.45058e-08
v 0.3 1.4 -7.45058e-08
v -1 1.4 -0.1
v -0.8 1.4 -0.1
v -0.7 1.4 -0.1
v -0.3 1.4 -0.1
v -0.0999999 1.4 -0.1
v 0.1 1.4 -0.1
v 0.3 1.4 -0.1
v 0.7 1.4 -0.1
v 0.8 1.4 -0.1
v 1 1.4 -0.1
v -1 1.4 -0.3
v -0.8 1.4 -0.3
v -0.7 1.4 -0.3
v -0.3 1.4 -0.3
v -0.0999999 1.4 -0.3
v 0.1 1.4 -0.3
v 0.3 1.4 -0.3
v 0.7 1.4 -0.3
v 0.8 1.4 -0.3
v 1 1.4 -0.3
v -0.3 1.4 -0.4
v 0.3 1.4 -0.4
v -0.4 2 -7.45058e-08
v -0.3 2 -7.45058e-08
v 0.3 2 -7.45058e-08
v 0.4 2 -7.45058e-08
v -0.4 2 -0.5
v -0.3 2 -0.5
v 0.3 2 -0.5
v 0.4 2 -0.5
v -0.3 2 -0.6
v 0.3 2 -0.6
v -0.3 2.1 -7.45058e-08
v 0.3 2.1 -7.45058e-08
v -0.3 2.1 -0.5
v 0.3 2.1 -0.5

# faces
f 3/6/1 2/6/1 1/6/1
f 4/6/1 2/6/1 3/6/1
f 7/6/1 6/6/1 5/6/1
f 8/6/1 6/6/1 7/6/1
f 12/1/1 10/1/1 9/1/1
f 14/6/1 12/6/1 11/6/1
f 15/1/1 10/1/1 12/1/1
f 15/6/1 12/6/1 14/6/1
f 16/1/1 14/1/1 13/1/1
f 16/1/1 15/1/1 14/1/1
f 17/1/1 10/1/1 15/1/1
f 17/1/1 15/1/1 16/1/1
f 20/8/1 19/8/1 18/8/1
f 21/8/1 19/8/1 20/8/1
f 22/8/1 19/8/1 21/8/1
f 23/8/1 19/8/1 22/8/1
f 24/7/1 23/7/1 22/7/1
f 27/7/1 24/7/1 22/7/1
f 28/4/1 25/4/1 24/4/1
f 28/7/1 24/7/1 27/7/1
f 29/4/1 27/4/1 26/4/1
f 29/4/1 28/4/1 27/4/1
f 30/4/1 25/4/1 28/4/1
f 30/4/1 28/4/1 29/4/1
f 31/4/1 29/4/1 26/4/1
f 32/4/1 29/4/1 31/4/1
f 33/4/1 25/4/1 30/4/1
f 34/4/1 25/4/1 33/4/1
f 39/2/1 36/2/1 35/2/1
f 40/2/1 36/2/1 39/2/1
f 41/2/1 36/2/1 40/2/1
f 42/6/1 40/6/1 39/6/1
f 43/6/1 40/6/1 42/6/1
f 45/1/1 38/1/1 37/1/1
f 46/1/1 38/1/1 45/1/1
f 47/1/1 45/1/1 44/1/1
f 48/1/1 45/1/1 47/1/1
f 51/6/1 50/6/1 49/6/1
f 52/6/1 50/6/1 51/6/1
f 55/8/1 54/8/1 53/8/1
f 56/8/1 54/8/1 55/8/1
f 57/8/1 54/8/1 56/8/1
f 58/8/1 54/8/1 57/8/1
f 59/7/1 58/7/1 57/7/1
f 61/7/1 59/7/1 57/7/1
f 62/4/1 61/4/1 60/4/1
f 63/7/1 59/7/1 61/7/1
f 63/4/1 61/4/1 62/4/1
f 64/7/1 59/7/1 63/7/1
f 65/8/2 66/8/2 67/8/2
f 67/8/2 66/8/2 68/8/2
f 68/8/2 66/8/2 69/8/2
f 69/8/2 66/8/2 70/8/2
f 69/7/2 70/7/2 71/7/2
f 69/7/2 71/7/2 73/7/2
f 72/4/2 73/4/2 74/4/2
f 73/7/2 71/7/2 75/7/2
f 74/4/2 73/4/2 75/4/2
f 75/7/2 71/7/2 76/7/2
f 77/6/2 78/6/2 79/6/2
f 79/6/2 78/6/2 80/6/2
f 81/8/2 82/8/2 83/8/2
f 83/8/2 82/8/2 84/8/2
f 84/8/2 82/8/2 85/8/2
f 85/8/2 82/8/2 86/8/2
f 85/7/2 86/7/2 87/7/2
f 85/7/2 87/7/2 90/7/2
f 87/4/2 88/4/2 91/4/2
f 90/7/2 87/7/2 91/7/2
f 89/4/2 90/4/2 92/4/2
f 90/4/2 91/4/2 92/4/2
f 91/4/2 88/4/2 93/4/2
f 92/4/2 91/4/2 93/4/2
f 89/4/2 92/4/2 94/4/2
f 94/4/2 92/4/2 95/4/2
f 93/4/2 88/4/2 96/4/2
f 96/4/2 88/4/2 97/4/2
f 98/2/2 99/2/2 102/2/2
f 102/2/2 99/2/2 103/2/2
f 103/2/2 99/2/2 104/2/2
f 102/6/2 103/6/2 105/6/2
f 105/6/2 103/6/2 106/6/2
f 100/1/2 101/1/2 108/1/2
f 108/1/2 101/1/2 109/1/2
f 107/1/2 108/1/2 110/1/2
f 110/1/2 108/1/2 111/1/2
f 112/1/2 113/1/2 115/1/2
f 114/6/2 115/6/2 117/6/2
f 115/1/2 113/1/2 118/1/2
f 117/6/2 115/6/2 118/6/2
f 116/1/2 117/1/2 119/1/2
f 117/1/2 118/1/2 119/1/2
f 118/1/2 113/1/2 120/1/2
f 119/1/2 118/1/2 120/1/2
f 121/6/2 122/6/2 123/6/2
f 123/6/2 122/6/2 124/6/2
f 125/6/2 126/6/2 127/6/2
f 127/6/2 126/6/2 128/6/2
f 131/8/3 130/8/3 129/8/3
f 132/8/3 130/8/3 131/8/3
f 135/8/3 134/8/3 133/8/3
f 136/8/3 134/8/3 135/8/3
f 143/1/3 138/1/3 137/1/3
f 144/1/3 138/1/3 143/1/3
f 145/1/3 138/1/3 144/1/3
f 147/2/3 142/2/3 141/2/3
f 147/6/3 143/6/3 142/6/3
f 148/2/3 144/2/3 143/2/3
f 148/6/3 143/6/3 147/6/3
f 149/4/3 140/4/3 139/4/3
f 150/4/3 140/4/3 149/4/3
f 151/4/3 140/4/3 150/4/3
f 152/2/3 147/2/3 141/2/3
f 153/8/3 148/8/3 147/8/3
f 153/2/3 147/2/3 152/2/3
f 154/2/3 144/2/3 148/2/3
f 154/8/3 148/8/3 153/8/3
f 155/6/3 145/6/3 144/6/3
f 155/2/3 144/2/3 154/2/3
f 157/3/3 151/3/3 150/3/3
f 158/3/3 151/3/3 157/3/3
f 159/6/3 153/6/3 152/6/3
f 159/6/3 154/6/3 153/6/3
f 159/6/3 155/6/3 154/6/3
f 159/2/3 152/2/3 141/2/3
f 160/6/3 155/6/3 159/6/3
f 161/6/3 155/6/3 160/6/3
f 162/6/3 145/6/3 155/6/3
f 162/6/3 155/6/3 161/6/3
f 163/8/3 161/8/3 160/8/3
f 163/2/3 160/2/3 159/2/3
f 164/2/3 162/2/3 161/2/3
f 164/8/3 161/8/3 163/8/3
f 165/4/3 158/4/3 157/4/3
f 165/4/3 157/4/3 156/4/3
f 166/4/3 158/4/3 165/4/3
f 167/2/3 159/2/3 141/2/3
f 167/2/3 163/2/3 159/2/3
f 168/6/3 164/6/3 163/6/3
f 168/2/3 163/2/3 167/2/3
f 169/2/3 162/2/3 164/2/3
f 169/6/3 164/6/3 168/6/3
f 170/6/3 145/6/3 162/6/3
f 170/2/3 162/2/3 169/2/3
f 171/1/3 146/1/3 145/1/3
f 171/6/3 145/6/3 170/6/3
f 172/1/3 146/1/3 171/1/3
f 173/1/3 170/1/3 169/1/3
f 173/1/3 171/1/3 170/1/3
f 174/1/3 171/1/3 173/1/3
f 178/6/3 176/6/3 175/6/3
f 179/6/3 178/6/3 177/6/3
f 180/6/3 176/6/3 178/6/3
f 180/6/3 178/6/3 179/6/3
f 181/8/3 180/8/3 179/8/3
f 182/8/3 180/8/3 181/8/3
f 188/4/3 182/4/3 181/4/3
f 189/4/3 182/4/3 188/4/3
f 190/6/3 184/6/3 183/6/3
f 191/6/3 184/6/3 190/6/3
f 192/8/3 186/8/3 185/8/3
f 193/7/3 187/7/3 186/7/3
f 193/8/3 186/8/3 192/8/3
f 194/7/3 187/7/3 193/7/3
f 200/6/3 196/6/3 195/6/3
f 201/6/3 196/6/3 200/6/3
f 202/8/3 198/8/3 197/8/3
f 203/7/3 199/7/3 198/7/3
f 203/8/3 198/8/3 202/8/3
f 204/7/3 199/7/3 203/7/3
f 209/6/3 208/6/3 207/6/3
f 210/6/3 208/6/3 209/6/3
f 211/4/3 206/4/3 205/4/3
f 212/4/3 206/4/3 211/4/3
f 213/8/3 212/8/3 211/8/3
f 214/8/3 212/8/3 213/8/3
f 215/6/3 214/6/3 213/6/3
f 216/6/3 214/6/3 215/6/3
f 217/6/3 214/6/3 216/6/3
f 218/6/3 214/6/3 217/6/3
f 221/1/3 220/1/3 219/1/3
f 222/1/3 220/1/3 221/1/3
f 225/1/3 224/1/3 223/1/3
f 226/1/3 224/1/3 225/1/3
f 229/4/3 228/4/3 227/4/3
f 230/4/3 228/4/3 229/4/3
f 231/6/4 232/6/4 234/6/4
f 233/6/4 234/6/4 235/6/4
f 234/6/4 232/6/4 236/6/4
f 235/6/4 234/6/4 236/6/4
f 235/8/4 236/8/4 237/8/4
f 237/8/4 236/8/4 238/8/4
f 237/4/4 238/4/4 242/4/4
f 242/4/4 238/4/4 243/4/4
f 239/8/4 240/8/4 244/8/4
f 240/7/4 241/7/4 245/7/4
f 244/8/4 240/8/4 245/8/4
f 245/7/4 241/7/4 246/7/4
f 247/6/4 248/6/4 252/6/4
f 252/6/4 248/6/4 253/6/4
f 249/8/4 250/8/4 254/8/4
f 250/7/4 251/7/4 255/7/4
f 254/8/4 250/8/4 255/8/4
f 255/7/4 251/7/4 256/7/4
f 257/4/4 258/4/4 259/4/4
f 259/4/4 258/4/4 260/4/4
f 259/8/4 260/8/4 261/8/4
f 261/8/4 260/8/4 262/8/4
f 261/6/4 262/6/4 263/6/4
f 263/6/4 262/6/4 264/6/4
f 264/6/4 262/6/4 265/6/4
f 265/6/4 262/6/4 266/6/4
f 267/4/4 268/4/4 269/4/4
f 269/4/4 268/4/4 270/4/4
f 271/1/4 272/1/4 273/1/4
f 273/1/4 272/1/4 274/1/4
f 274/1/4 275/1/4 277/1/4
f 277/1/4 275/1/4 278/1/4
f 276/1/4 277/1/4 279/1/4
f 279/1/4 277/1/4 280/1/4
f 281/1/4 282/1/4 283/1/4
f 283/1/4 282/1/4 284/1/4
f 289/8/5 286/8/5 285/8/5
f 290/8/5 286/8/5 289/8/5
f 291/8/5 288/8/5 287/8/5
f 292/8/5 288/8/5 291/8/5
f 297/4/5 294/4/5 293/4/5
f 297/4/5 296/4/5 295/4/5
f 297/4/5 295/4/5 294/4/5
f 298/4/5 296/4/5 297/4/5
f 303/4/5 300/4/5 299/4/5
f 304/4/5 300/4/5 303/4/5
f 305/4/5 302/4/5 301/4/5
f 306/4/5 302/4/5 305/4/5
f 309/3/5 308/3/5 307/3/5
f 310/3/5 308/3/5 309/3/5
f 311/4/5 310/4/5 309/4/5
f 312/4/5 310/4/5 311/4/5
f 321/6/5 314/6/5 313/6/5
f 322/8/5 315/8/5 314/8/5
f 322/6/5 314/6/5 321/6/5
f 323/4/5 316/4/5 315/4/5
f 323/8/5 315/8/5 322/8/5
f 324/4/5 316/4/5 323/4/5
f 325/4/5 318/4/5 317/4/5
f 326/8/5 319/8/5 318/8/5
f 326/4/5 318/4/5 325/4/5
f 327/6/5 320/6/5 319/6/5
f 327/8/5 319/8/5 326/8/5
f 328/6/5 320/6/5 327/6/5
f 333/6/5 330/6/5 329/6/5
f 334/6/5 330/6/5 333/6/5
f 335/6/5 332/6/5 331/6/5
f 336/6/5 332/6/5 335/6/5
f 339/2/5 338/2/5 337/2/5
f 340/2/5 338/2/5 339/2/5
f 341/2/5 338/2/5 340/2/5
f 342/2/5 338/2/5 341/2/5
f 344/2/5 339/2/5 337/2/5
f 345/6/5 340/6/5 339/6/5
f 345/2/5 339/2/5 344/2/5
f 346/6/5 342/6/5 341/6/5
f 346/2/5 338/2/5 342/2/5
f 347/2/5 338/2/5 346/2/5
f 349/6/5 340/6/5 345/6/5
f 349/6/5 345/6/5 344/6/5
f 350/6/5 347/6/5 346/6/5
f 350/6/5 346/6/5 341/6/5
f 351/1/5 344/1/5 343/1/5
f 352/6/5 350/6/5 349/6/5
f 352/1/5 344/1/5 351/1/5
f 352/6/5 349/6/5 344/6/5
f 353/1/5 348/1/5 347/1/5
f 353/6/5 350/6/5 352/6/5
f 353/6/5 347/6/5 350/6/5
f 354/1/5 348/1/5 353/1/5
f 355/1/5 353/1/5 352/1/5
f 356/1/5 353/1/5 355/1/5
f 361/6/5 358/6/5 357/6/5
f 362/6/5 358/6/5 361/6/5
f 363/6/5 360/6/5 359/6/5
f 364/6/5 360/6/5 363/6/5
f 369/1/5 366/1/5 365/1/5
f 370/1/5 366/1/5 369/1/5
f 371/1/5 368/1/5 367/1/5
f 372/1/5 368/1/5 371/1/5
f 373/8/6 374/8/6 377/8/6
f 377/8/6 374/8/6 378/8/6
f 375/8/6 376/8/6 379/8/6
f 379/8/6 376/8/6 380/8/6
f 381/4/6 382/4/6 388/4/6
f 382/3/6 383/3/6 389/3/6
f 388/4/6 382/4/6 389/4/6
f 383/4/6 384/4/6 390/4/6
f 389/3/6 383/3/6 390/3/6
f 390/4/6 384/4/6 391/4/6
f 385/6/6 386/6/6 395/6/6
f 386/8/6 387/8/6 396/8/6
f 395/6/6 386/6/6 396/6/6
f 387/4/6 388/4/6 397/4/6
f 396/8/6 387/8/6 397/8/6
f 388/4/6 389/4/6 397/4/6
f 397/4/6 389/4/6 398/4/6
f 398/4/6 389/4/6 399/4/6
f 391/4/6 392/4/6 400/4/6
f 390/4/6 391/4/6 400/4/6
f 400/4/6 392/4/6 401/4/6
f 392/8/6 393/8/6 402/8/6
f 401/4/6 392/4/6 402/4/6
f 393/6/6 394/6/6 403/6/6
f 402/8/6 393/8/6 403/8/6
f 403/6/6 394/6/6 404/6/6
f 398/4/6 399/4/6 405/4/6
f 399/4/6 400/4/6 405/4/6
f 400/4/6 401/4/6 405/4/6
f 405/4/6 401/4/6 406/4/6
f 407/1/6 408/1/6 411/1/6
f 411/1/6 408/1/6 412/1/6
f 409/1/6 410/1/6 413/1/6
f 413/1/6 410/1/6 414/1/6
f 412/1/6 413/1/6 415/1/6
f 415/1/6 413/1/6 416/1/6
f 417/1/6 418/1/6 419/1/6
f 419/1/6 418/1/6 420/1/6
