# MagicaVoxel @ Ephtracy

# group
o 

# material
mtllib old_man.mtl
usemtl palette

# normals
vn -1 0 0
vn 1 0 0
vn 0 0 1
vn 0 0 -1
vn 0 -1 0
vn 0 1 0

# texcoords
vt 0.0332031 0.5
vt 0.236328 0.5
vt 0.310547 0.5
vt 0.365234 0.5
vt 0.369141 0.5
vt 0.958984 0.5
vt 0.982422 0.5
vt 0.994141 0.5

# verts
v -1 1.3 -0.1
v -1 1.3 -0.3
v -1 1.4 -0.1
v -1 1.4 -0.3
v -0.9 1.2 -0.1
v -0.9 1.2 -0.3
v -0.9 1.3 -0.1
v -0.9 1.3 -0.3
v -0.4 1.7 -0.1
v -0.4 1.7 -0.2
v -0.4 1.8 -0.1
v -0.4 1.8 -0.2
v -0.3 0 0.0999999
v -0.3 0 -0.3
v -0.3 0.1 0.0999999
v -0.3 0.1 -0.1
v -0.3 0.2 -0.1
v -0.3 0.2 -0.3
v -0.3 0.7 -7.45058e-08
v -0.3 0.7 -0.1
v -0.3 0.7 -0.3
v -0.3 0.7 -0.4
v -0.3 0.8 -7.45058e-08
v -0.3 0.8 -0.4
v -0.3 0.9 -7.45058e-08
v -0.3 0.9 -0.4
v -0.3 1 -7.45058e-08
v -0.3 1 -0.4
v -0.3 1.1 -7.45058e-08
v -0.3 1.1 -0.4
v -0.3 1.2 -7.45058e-08
v -0.3 1.2 -0.1
v -0.3 1.2 -0.3
v -0.3 1.2 -0.4
v -0.3 1.3 -7.45058e-08
v -0.3 1.3 -0.1
v -0.3 1.3 -0.3
v -0.3 1.3 -0.4
v -0.3 1.4 -7.45058e-08
v -0.3 1.4 -0.1
v -0.3 1.4 -0.3
v -0.3 1.4 -0.4
v -0.3 1.5 -7.45058e-08
v -0.3 1.5 -0.5
v -0.3 1.7 -0.1
v -0.3 1.7 -0.2
v -0.3 1.7 -0.5
v -0.3 1.8 -0.1
v -0.3 1.8 -0.2
v -0.3 2 -7.45058e-08
v -0.3 2 -0.1
v -0.3 2 -0.5
v -0.0999999 1.4 -0.1
v -0.0999999 1.4 -0.3
v -0.0999999 1.5 -0.1
v -0.0999999 1.5 -0.3
v 0.1 0 0.0999999
v 0.1 0 -0.3
v 0.1 0.1 0.0999999
v 0.1 0.1 -0.1
v 0.1 0.2 -0.1
v 0.1 0.2 -0.3
v 0.1 0.7 -0.1
v 0.1 0.7 -0.3
v -0.0999999 0 0.0999999
v -0.0999999 0 -0.3
v -0.0999999 0.1 0.0999999
v -0.0999999 0.1 -0.1
v -0.0999999 0.2 -0.1
v -0.0999999 0.2 -0.3
v -0.0999999 0.7 -0.1
v -0.0999999 0.7 -0.3
v 0.1 1.4 -0.1
v 0.1 1.4 -0.3
v 0.1 1.5 -0.1
v 0.1 1.5 -0.3
v 0.3 0 0.0999999
v 0.3 0 -0.3
v 0.3 0.1 0.0999999
v 0.3 0.1 -0.1
v 0.3 0.2 -0.1
v 0.3 0.2 -0.3
v 0.3 0.7 -7.45058e-08
v 0.3 0.7 -0.1
v 0.3 0.7 -0.3
v 0.3 0.7 -0.4
v 0.3 0.8 -7.45058e-08
v 0.3 0.8 -0.4
v 0.3 0.9 -7.45058e-08
v 0.3 0.9 -0.4
v 0.3 1 -7.45058e-08
v 0.3 1 -0.4
v 0.3 1.1 -7.45058e-08
v 0.3 1.1 -0.4
v 0.3 1.2 -7.45058e-08
v 0.3 1.2 -0.1
v 0.3 1.2 -0.3
v 0.3 1.2 -0.4
v 0.3 1.3 -7.45058e-08
v 0.3 1.3 -0.1
v 0.3 1.3 -0.3
v 0.3 1.3 -0.4
v 0.3 1.4 -7.45058e-08
v 0.3 1.4 -0.1
v 0.3 1.4 -0.3
v 0.3 1.4 -0.4
v 0.3 1.5 -7.45058e-08
v 0.3 1.5 -0.5
v 0.3 1.7 -0.1
v 0.3 1.7 -0.2
v 0.3 1.7 -0.3
v 0.3 1.7 -0.5
v 0.3 1.8 -0.1
v 0.3 1.8 -0.2
v 0.3 1.8 -0.3
v 0.3 2 -7.45058e-08
v 0.3 2 -0.1
v 0.3 2 -0.5
v 0.4 1.7 -0.1
v 0.4 1.7 -0.2
v 0.4 1.8 -0.1
v 0.4 1.8 -0.2
v 0.9 1.2 -0.1
v 0.9 1.2 -0.3
v 0.9 1.3 -0.1
v 0.9 1.3 -0.3
v 1 1.3 -0.1
v 1 1.3 -0.3
v 1 1.4 -0.1
v 1 1.4 -0.3
v -0.3 0 0.0999999
v -0.3 0.1 0.0999999
v -0.0999999 0 0.0999999
v -0.0999999 0.1 0.0999999
v 0.1 0 0.0999999
v 0.1 0.1 0.0999999
v 0.3 0 0.0999999
v 0.3 0.1 0.0999999
v -0.3 0.7 -7.45058e-08
v -0.3 0.8 -7.45058e-08
v -0.3 0.9 -7.45058e-08
v -0.3 1 -7.45058e-08
v -0.3 1.1 -7.45058e-08
v -0.3 1.2 -7.45058e-08
v -0.3 1.3 -7.45058e-08
v -0.3 1.4 -7.45058e-08
v -0.3 1.5 -7.45058e-08
v -0.3 2 -7.45058e-08
v -0.2 1.7 -7.45058e-08
v -0.2 1.8 -7.45058e-08
v -0.2 1.9 -7.45058e-08
v -0.0999999 1.6 -7.45058e-08
v -0.0999999 1.7 -7.45058e-08
v -0.0999999 1.8 -7.45058e-08
v -0.0999999 1.9 -7.45058e-08
v 0.1 1.6 -7.45058e-08
v 0.1 1.7 -7.45058e-08
v 0.1 1.8 -7.45058e-08
v 0.1 1.9 -7.45058e-08
v 0.2 1.7 -7.45058e-08
v 0.2 1.8 -7.45058e-08
v 0.2 1.9 -7.45058e-08
v 0.3 0.7 -7.45058e-08
v 0.3 0.8 -7.45058e-08
v 0.3 0.9 -7.45058e-08
v 0.3 1 -7.45058e-08
v 0.3 1.1 -7.45058e-08
v 0.3 1.2 -7.45058e-08
v 0.3 1.3 -7.45058e-08
v 0.3 1.4 -7.45058e-08
v 0.3 1.5 -7.45058e-08
v 0.3 2 -7.45058e-08
v -1 1.3 -0.1
v -1 1.4 -0.1
v -0.9 1.2 -0.1
v -0.9 1.3 -0.1
v -0.8 1.2 -0.1
v -0.8 1.4 -0.1
v -0.7 1.2 -0.1
v -0.7 1.4 -0.1
v -0.4 1.7 -0.1
v -0.4 1.8 -0.1
v -0.3 0.1 -0.1
v -0.3 0.2 -0.1
v -0.3 0.7 -0.1
v -0.3 1.2 -0.1
v -0.3 1.3 -0.1
v -0.3 1.4 -0.1
v -0.3 1.7 -0.1
v -0.3 1.8 -0.1
v -0.0999999 0.1 -0.1
v -0.0999999 0.2 -0.1
v -0.0999999 0.7 -0.1
v -0.0999999 1.4 -0.1
v -0.0999999 1.5 -0.1
v 0.1 0.1 -0.1
v 0.1 0.2 -0.1
v 0.1 0.7 -0.1
v 0.1 1.4 -0.1
v 0.1 1.5 -0.1
v 0.3 0.1 -0.1
v 0.3 0.2 -0.1
v 0.3 0.7 -0.1
v 0.3 1.2 -0.1
v 0.3 1.3 -0.1
v 0.3 1.4 -0.1
v 0.3 1.7 -0.1
v 0.3 1.8 -0.1
v 0.4 1.7 -0.1
v 0.4 1.8 -0.1
v 0.7 1.2 -0.1
v 0.7 1.4 -0.1
v 0.8 1.2 -0.1
v 0.8 1.4 -0.1
v 0.9 1.2 -0.1
v 0.9 1.3 -0.1
v 1 1.3 -0.1
v 1 1.4 -0.1
v -0.4 1.7 -0.2
v -0.4 1.8 -0.2
v -0.3 1.7 -0.2
v -0.3 1.8 -0.2
v 0.3 1.7 -0.2
v 0.3 1.8 -0.2
v 0.4 1.7 -0.2
v 0.4 1.8 -0.2
v -1 1.3 -0.3
v -1 1.4 -0.3
v -0.9 1.2 -0.3
v -0.9 1.3 -0.3
v -0.8 1.2 -0.3
v -0.8 1.4 -0.3
v -0.7 1.2 -0.3
v -0.7 1.4 -0.3
v -0.3 0 -0.3
v -0.3 0.2 -0.3
v -0.3 0.7 -0.3
v -0.3 1.2 -0.3
v -0.3 1.3 -0.3
v -0.3 1.4 -0.3
v -0.0999999 0 -0.3
v -0.0999999 0.2 -0.3
v -0.0999999 0.7 -0.3
v -0.0999999 1.4 -0.3
v -0.0999999 1.5 -0.3
v 0.1 0 -0.3
v 0.1 0.2 -0.3
v 0.1 0.7 -0.3
v 0.1 1.4 -0.3
v 0.1 1.5 -0.3
v 0.3 0 -0.3
v 0.3 0.2 -0.3
v 0.3 0.7 -0.3
v 0.3 1.2 -0.3
v 0.3 1.3 -0.3
v 0.3 1.4 -0.3
v 0.7 1.2 -0.3
v 0.7 1.4 -0.3
v 0.8 1.2 -0.3
v 0.8 1.4 -0.3
v 0.9 1.2 -0.3
v 0.9 1.3 -0.3
v 1 1.3 -0.3
v 1 1.4 -0.3
v -0.3 0.7 -0.4
v -0.3 0.8 -0.4
v -0.3 0.9 -0.4
v -0.3 1 -0.4
v -0.3 1.1 -0.4
v -0.3 1.2 -0.4
v -0.3 1.3 -0.4
v -0.3 1.4 -0.4
v 0.3 0.7 -0.4
v 0.3 0.8 -0.4
v 0.3 0.9 -0.4
v 0.3 1 -0.4
v 0.3 1.1 -0.4
v 0.3 1.2 -0.4
v 0.3 1.3 -0.4
v 0.3 1.4 -0.4
v -0.3 1.5 -0.5
v -0.3 1.7 -0.5
v -0.3 2 -0.5
v -0.2 1.7 -0.5
v -0.2 2 -0.5
v 0.2 1.7 -0.5
v 0.2 2 -0.5
v 0.3 1.5 -0.5
v 0.3 1.7 -0.5
v 0.3 2 -0.5
v -0.3 0 0.0999999
v -0.0999999 0 0.0999999
v 0.1 0 0.0999999
v 0.3 0 0.0999999
v -0.3 0 -0.3
v -0.0999999 0 -0.3
v 0.1 0 -0.3
v 0.3 0 -0.3
v -0.3 0.7 -7.45058e-08
v 0.3 0.7 -7.45058e-08
v -0.3 0.7 -0.1
v -0.0999999 0.7 -0.1
v 0.1 0.7 -0.1
v 0.3 0.7 -0.1
v -0.3 0.7 -0.3
v -0.0999999 0.7 -0.3
v 0.1 0.7 -0.3
v 0.3 0.7 -0.3
v -0.3 0.7 -0.4
v 0.3 0.7 -0.4
v -0.9 1.2 -0.1
v -0.8 1.2 -0.1
v -0.7 1.2 -0.1
v -0.3 1.2 -0.1
v 0.3 1.2 -0.1
v 0.7 1.2 -0.1
v 0.8 1.2 -0.1
v 0.9 1.2 -0.1
v -0.9 1.2 -0.3
v -0.8 1.2 -0.3
v -0.7 1.2 -0.3
v -0.3 1.2 -0.3
v 0.3 1.2 -0.3
v 0.7 1.2 -0.3
v 0.8 1.2 -0.3
v 0.9 1.2 -0.3
v -1 1.3 -0.1
v -0.9 1.3 -0.1
v 0.9 1.3 -0.1
v 1 1.3 -0.1
v -1 1.3 -0.3
v -0.9 1.3 -0.3
v 0.9 1.3 -0.3
v 1 1.3 -0.3
v -0.3 1.5 -7.45058e-08
v 0.3 1.5 -7.45058e-08
v -0.0999999 1.5 -0.1
v 0.1 1.5 -0.1
v -0.0999999 1.5 -0.3
v 0.1 1.5 -0.3
v -0.3 1.5 -0.5
v 0.3 1.5 -0.5
v -0.4 1.7 -0.1
v -0.3 1.7 -0.1
v 0.3 1.7 -0.1
v 0.4 1.7 -0.1
v -0.4 1.7 -0.2
v -0.3 1.7 -0.2
v 0.3 1.7 -0.2
v 0.4 1.7 -0.2
v -0.3 0.1 0.0999999
v -0.0999999 0.1 0.0999999
v 0.1 0.1 0.0999999
v 0.3 0.1 0.0999999
v -0.3 0.1 -0.1
v -0.0999999 0.1 -0.1
v 0.1 0.1 -0.1
v 0.3 0.1 -0.1
v -0.3 1.4 -7.45058e-08
v 0.3 1.4 -7.45058e-08
v -1 1.4 -0.1
v -0.8 1.4 -0.1
v -0.7 1.4 -0.1
v -0.3 1.4 -0.1
v -0.0999999 1.4 -0.1
v 0.1 1.4 -0.1
v 0.3 1.4 -0.1
v 0.7 1.4 -0.1
v 0.8 1.4 -0.1
v 1 1.4 -0.1
v -1 1.4 -0.3
v -0.8 1.4 -0.3
v -0.7 1.4 -0.3
v -0.3 1.4 -0.3
v -0.0999999 1.4 -0.3
v 0.1 1.4 -0.3
v 0.3 1.4 -0.3
v 0.7 1.4 -0.3
v 0.8 1.4 -0.3
v 1 1.4 -0.3
v -0.3 1.4 -0.4
v 0.3 1.4 -0.4
v -0.4 1.8 -0.1
v -0.3 1.8 -0.1
v 0.3 1.8 -0.1
v 0.4 1.8 -0.1
v -0.4 1.8 -0.2
v -0.3 1.8 -0.2
v 0.3 1.8 -0.2
v 0.4 1.8 -0.2
v -0.3 2 -7.45058e-08
v 0.3 2 -7.45058e-08
v -0.3 2 -0.1
v -0.2 2 -0.1
v 0.2 2 -0.1
v 0.3 2 -0.1
v -0.3 2 -0.5
v -0.2 2 -0.5
v 0.2 2 -0.5
v 0.3 2 -0.5

# faces
f 3/2/1 2/2/1 1/2/1
f 4/2/1 2/2/1 3/2/1
f 7/2/1 6/2/1 5/2/1
f 8/2/1 6/2/1 7/2/1
f 11/2/1 10/2/1 9/2/1
f 12/2/1 10/2/1 11/2/1
f 15/8/1 14/8/1 13/8/1
f 16/8/1 14/8/1 15/8/1
f 17/8/1 14/8/1 16/8/1
f 18/8/1 14/8/1 17/8/1
f 20/3/1 18/3/1 17/3/1
f 21/3/1 18/3/1 20/3/1
f 23/4/1 21/4/1 20/4/1
f 23/4/1 22/4/1 21/4/1
f 23/4/1 20/4/1 19/4/1
f 24/4/1 22/4/1 23/4/1
f 25/5/1 24/5/1 23/5/1
f 26/5/1 24/5/1 25/5/1
f 27/4/1 26/4/1 25/4/1
f 28/4/1 26/4/1 27/4/1
f 29/5/1 28/5/1 27/5/1
f 30/5/1 28/5/1 29/5/1
f 31/4/1 30/4/1 29/4/1
f 32/4/1 30/4/1 31/4/1
f 33/4/1 30/4/1 32/4/1
f 34/4/1 30/4/1 33/4/1
f 35/5/1 32/5/1 31/5/1
f 36/5/1 32/5/1 35/5/1
f 37/5/1 34/5/1 33/5/1
f 38/5/1 34/5/1 37/5/1
f 39/4/1 36/4/1 35/4/1
f 40/4/1 36/4/1 39/4/1
f 41/4/1 38/4/1 37/4/1
f 42/4/1 38/4/1 41/4/1
f 45/2/1 44/2/1 43/2/1
f 46/2/1 44/2/1 45/2/1
f 47/2/1 44/2/1 46/2/1
f 48/2/1 45/2/1 43/2/1
f 49/7/1 47/7/1 46/7/1
f 50/2/1 48/2/1 43/2/1
f 51/7/1 49/7/1 48/7/1
f 51/2/1 48/2/1 50/2/1
f 52/7/1 47/7/1 49/7/1
f 52/7/1 49/7/1 51/7/1
f 55/2/1 54/2/1 53/2/1
f 56/2/1 54/2/1 55/2/1
f 59/8/1 58/8/1 57/8/1
f 60/8/1 58/8/1 59/8/1
f 61/8/1 58/8/1 60/8/1
f 62/8/1 58/8/1 61/8/1
f 63/3/1 62/3/1 61/3/1
f 64/3/1 62/3/1 63/3/1
f 65/8/2 66/8/2 67/8/2
f 67/8/2 66/8/2 68/8/2
f 68/8/2 66/8/2 69/8/2
f 69/8/2 66/8/2 70/8/2
f 69/3/2 70/3/2 71/3/2
f 71/3/2 70/3/2 72/3/2
f 73/2/2 74/2/2 75/2/2
f 75/2/2 74/2/2 76/2/2
f 77/8/2 78/8/2 79/8/2
f 79/8/2 78/8/2 80/8/2
f 80/8/2 78/8/2 81/8/2
f 81/8/2 78/8/2 82/8/2
f 81/3/2 82/3/2 84/3/2
f 84/3/2 82/3/2 85/3/2
f 84/4/2 85/4/2 87/4/2
f 85/4/2 86/4/2 87/4/2
f 83/4/2 84/4/2 87/4/2
f 87/4/2 86/4/2 88/4/2
f 87/5/2 88/5/2 89/5/2
f 89/5/2 88/5/2 90/5/2
f 89/4/2 90/4/2 91/4/2
f 91/4/2 90/4/2 92/4/2
f 91/5/2 92/5/2 93/5/2
f 93/5/2 92/5/2 94/5/2
f 93/4/2 94/4/2 95/4/2
f 95/4/2 94/4/2 96/4/2
f 96/4/2 94/4/2 97/4/2
f 97/4/2 94/4/2 98/4/2
f 95/5/2 96/5/2 99/5/2
f 99/5/2 96/5/2 100/5/2
f 97/5/2 98/5/2 101/5/2
f 101/5/2 98/5/2 102/5/2
f 99/4/2 100/4/2 103/4/2
f 103/4/2 100/4/2 104/4/2
f 101/4/2 102/4/2 105/4/2
f 105/4/2 102/4/2 106/4/2
f 107/2/2 108/2/2 109/2/2
f 109/2/2 108/2/2 110/2/2
f 110/2/2 108/2/2 111/2/2
f 111/2/2 108/2/2 112/2/2
f 107/2/2 109/2/2 113/2/2
f 110/2/2 111/2/2 114/2/2
f 111/7/2 112/7/2 115/7/2
f 114/2/2 111/2/2 115/2/2
f 107/2/2 113/2/2 116/2/2
f 113/7/2 114/7/2 117/7/2
f 116/2/2 113/2/2 117/2/2
f 114/7/2 115/7/2 117/7/2
f 115/7/2 112/7/2 118/7/2
f 117/7/2 115/7/2 118/7/2
f 119/2/2 120/2/2 121/2/2
f 121/2/2 120/2/2 122/2/2
f 123/2/2 124/2/2 125/2/2
f 125/2/2 124/2/2 126/2/2
f 127/2/2 128/2/2 129/2/2
f 129/2/2 128/2/2 130/2/2
f 133/8/3 132/8/3 131/8/3
f 134/8/3 132/8/3 133/8/3
f 137/8/3 136/8/3 135/8/3
f 138/8/3 136/8/3 137/8/3
f 149/2/3 148/2/3 147/2/3
f 150/2/3 148/2/3 149/2/3
f 151/2/3 148/2/3 150/2/3
f 152/2/3 149/2/3 147/2/3
f 153/6/3 150/6/3 149/6/3
f 153/2/3 149/2/3 152/2/3
f 154/8/3 151/8/3 150/8/3
f 154/6/3 150/6/3 153/6/3
f 155/2/3 148/2/3 151/2/3
f 155/8/3 151/8/3 154/8/3
f 156/2/3 152/2/3 147/2/3
f 156/7/3 153/7/3 152/7/3
f 157/2/3 154/2/3 153/2/3
f 157/7/3 153/7/3 156/7/3
f 157/2/3 155/2/3 154/2/3
f 158/2/3 155/2/3 157/2/3
f 159/2/3 148/2/3 155/2/3
f 159/2/3 155/2/3 158/2/3
f 160/6/3 158/6/3 157/6/3
f 160/2/3 157/2/3 156/2/3
f 161/8/3 159/8/3 158/8/3
f 161/6/3 158/6/3 160/6/3
f 162/2/3 148/2/3 159/2/3
f 162/8/3 159/8/3 161/8/3
f 163/4/3 140/4/3 139/4/3
f 164/5/3 141/5/3 140/5/3
f 164/4/3 140/4/3 163/4/3
f 165/4/3 142/4/3 141/4/3
f 165/5/3 141/5/3 164/5/3
f 166/5/3 143/5/3 142/5/3
f 166/4/3 142/4/3 165/4/3
f 167/4/3 144/4/3 143/4/3
f 167/5/3 143/5/3 166/5/3
f 168/5/3 145/5/3 144/5/3
f 168/4/3 144/4/3 167/4/3
f 169/4/3 146/4/3 145/4/3
f 169/5/3 145/5/3 168/5/3
f 170/4/3 146/4/3 169/4/3
f 171/2/3 156/2/3 147/2/3
f 171/2/3 161/2/3 160/2/3
f 171/2/3 160/2/3 156/2/3
f 171/2/3 162/2/3 161/2/3
f 172/2/3 148/2/3 162/2/3
f 172/2/3 162/2/3 171/2/3
f 176/2/3 174/2/3 173/2/3
f 177/2/3 176/2/3 175/2/3
f 178/2/3 174/2/3 176/2/3
f 178/2/3 176/2/3 177/2/3
f 179/5/3 178/5/3 177/5/3
f 180/5/3 178/5/3 179/5/3
f 186/4/3 180/4/3 179/4/3
f 187/4/3 180/4/3 186/4/3
f 188/4/3 180/4/3 187/4/3
f 189/2/3 182/2/3 181/2/3
f 190/2/3 182/2/3 189/2/3
f 191/8/3 184/8/3 183/8/3
f 192/3/3 185/3/3 184/3/3
f 192/8/3 184/8/3 191/8/3
f 193/3/3 185/3/3 192/3/3
f 199/2/3 195/2/3 194/2/3
f 200/2/3 195/2/3 199/2/3
f 201/8/3 197/8/3 196/8/3
f 202/3/3 198/3/3 197/3/3
f 202/8/3 197/8/3 201/8/3
f 203/3/3 198/3/3 202/3/3
f 209/2/3 208/2/3 207/2/3
f 210/2/3 208/2/3 209/2/3
f 211/4/3 206/4/3 205/4/3
f 211/4/3 205/4/3 204/4/3
f 212/4/3 206/4/3 211/4/3
f 213/5/3 212/5/3 211/5/3
f 214/5/3 212/5/3 213/5/3
f 215/2/3 214/2/3 213/2/3
f 216/2/3 214/2/3 215/2/3
f 217/2/3 214/2/3 216/2/3
f 218/2/3 214/2/3 217/2/3
f 219/2/4 220/2/4 221/2/4
f 221/2/4 220/2/4 222/2/4
f 223/2/4 224/2/4 225/2/4
f 225/2/4 224/2/4 226/2/4
f 227/2/4 228/2/4 230/2/4
f 229/2/4 230/2/4 231/2/4
f 230/2/4 228/2/4 232/2/4
f 231/2/4 230/2/4 232/2/4
f 231/5/4 232/5/4 233/5/4
f 233/5/4 232/5/4 234/5/4
f 233/4/4 234/4/4 238/4/4
f 238/4/4 234/4/4 239/4/4
f 239/4/4 234/4/4 240/4/4
f 235/8/4 236/8/4 241/8/4
f 236/3/4 237/3/4 242/3/4
f 241/8/4 236/8/4 242/8/4
f 242/3/4 237/3/4 243/3/4
f 244/2/4 245/2/4 249/2/4
f 249/2/4 245/2/4 250/2/4
f 246/8/4 247/8/4 251/8/4
f 247/3/4 248/3/4 252/3/4
f 251/8/4 247/8/4 252/8/4
f 252/3/4 248/3/4 253/3/4
f 255/4/4 256/4/4 257/4/4
f 254/4/4 255/4/4 257/4/4
f 257/4/4 256/4/4 258/4/4
f 257/5/4 258/5/4 259/5/4
f 259/5/4 258/5/4 260/5/4
f 259/2/4 260/2/4 261/2/4
f 261/2/4 260/2/4 262/2/4
f 262/2/4 260/2/4 263/2/4
f 263/2/4 260/2/4 264/2/4
f 265/4/4 266/4/4 273/4/4
f 266/5/4 267/5/4 274/5/4
f 273/4/4 266/4/4 274/4/4
f 267/4/4 268/4/4 275/4/4
f 274/5/4 267/5/4 275/5/4
f 268/5/4 269/5/4 276/5/4
f 275/4/4 268/4/4 276/4/4
f 269/4/4 270/4/4 277/4/4
f 276/5/4 269/5/4 277/5/4
f 270/5/4 271/5/4 278/5/4
f 277/4/4 270/4/4 278/4/4
f 271/4/4 272/4/4 279/4/4
f 278/5/4 271/5/4 279/5/4
f 279/4/4 272/4/4 280/4/4
f 281/2/4 282/2/4 284/2/4
f 282/7/4 283/7/4 284/7/4
f 284/7/4 283/7/4 285/7/4
f 281/2/4 284/2/4 286/2/4
f 284/2/4 285/2/4 286/2/4
f 286/2/4 285/2/4 287/2/4
f 281/2/4 286/2/4 288/2/4
f 286/7/4 287/7/4 289/7/4
f 288/2/4 286/2/4 289/2/4
f 289/7/4 287/7/4 290/7/4
f 295/8/5 292/8/5 291/8/5
f 296/8/5 292/8/5 295/8/5
f 297/8/5 294/8/5 293/8/5
f 298/8/5 294/8/5 297/8/5
f 301/4/5 300/4/5 299/4/5
f 302/4/5 300/4/5 301/4/5
f 303/4/5 300/4/5 302/4/5
f 304/4/5 300/4/5 303/4/5
f 306/4/5 303/4/5 302/4/5
f 307/4/5 303/4/5 306/4/5
f 309/4/5 306/4/5 305/4/5
f 309/4/5 308/4/5 307/4/5
f 309/4/5 307/4/5 306/4/5
f 310/4/5 308/4/5 309/4/5
f 319/2/5 312/2/5 311/2/5
f 320/5/5 313/5/5 312/5/5
f 320/2/5 312/2/5 319/2/5
f 321/4/5 314/4/5 313/4/5
f 321/5/5 313/5/5 320/5/5
f 322/4/5 314/4/5 321/4/5
f 323/4/5 316/4/5 315/4/5
f 324/5/5 317/5/5 316/5/5
f 324/4/5 316/4/5 323/4/5
f 325/2/5 318/2/5 317/2/5
f 325/5/5 317/5/5 324/5/5
f 326/2/5 318/2/5 325/2/5
f 331/2/5 328/2/5 327/2/5
f 332/2/5 328/2/5 331/2/5
f 333/2/5 330/2/5 329/2/5
f 334/2/5 330/2/5 333/2/5
f 337/2/5 336/2/5 335/2/5
f 338/2/5 336/2/5 337/2/5
f 339/2/5 337/2/5 335/2/5
f 340/2/5 336/2/5 338/2/5
f 341/2/5 339/2/5 335/2/5
f 341/2/5 340/2/5 339/2/5
f 342/2/5 336/2/5 340/2/5
f 342/2/5 340/2/5 341/2/5
f 347/2/5 344/2/5 343/2/5
f 348/2/5 344/2/5 347/2/5
f 349/2/5 346/2/5 345/2/5
f 350/2/5 346/2/5 349/2/5
f 351/8/6 352/8/6 355/8/6
f 355/8/6 352/8/6 356/8/6
f 353/8/6 354/8/6 357/8/6
f 357/8/6 354/8/6 358/8/6
f 359/4/6 360/4/6 364/4/6
f 364/4/6 360/4/6 365/4/6
f 365/4/6 360/4/6 366/4/6
f 366/4/6 360/4/6 367/4/6
f 361/2/6 362/2/6 371/2/6
f 362/5/6 363/5/6 372/5/6
f 371/2/6 362/2/6 372/2/6
f 363/4/6 364/4/6 373/4/6
f 372/5/6 363/5/6 373/5/6
f 364/4/6 365/4/6 373/4/6
f 373/4/6 365/4/6 374/4/6
f 374/4/6 365/4/6 375/4/6
f 367/4/6 368/4/6 376/4/6
f 366/4/6 367/4/6 376/4/6
f 376/4/6 368/4/6 377/4/6
f 368/5/6 369/5/6 378/5/6
f 377/4/6 368/4/6 378/4/6
f 369/2/6 370/2/6 379/2/6
f 378/5/6 369/5/6 379/5/6
f 379/2/6 370/2/6 380/2/6
f 375/4/6 376/4/6 381/4/6
f 374/4/6 375/4/6 381/4/6
f 376/4/6 377/4/6 381/4/6
f 381/4/6 377/4/6 382/4/6
f 383/2/6 384/2/6 387/2/6
f 387/2/6 384/2/6 388/2/6
f 385/2/6 386/2/6 389/2/6
f 389/2/6 386/2/6 390/2/6
f 391/2/6 392/2/6 393/2/6
f 393/2/6 392/2/6 394/2/6
f 394/2/6 392/2/6 395/2/6
f 395/2/6 392/2/6 396/2/6
f 393/7/6 394/7/6 397/7/6
f 394/2/6 395/2/6 398/2/6
f 397/7/6 394/7/6 398/7/6
f 395/7/6 396/7/6 399/7/6
f 398/2/6 395/2/6 399/2/6
f 399/7/6 396/7/6 400/7/6
