# MagicaVoxel @ Ephtracy

# group
o 

# material
mtllib road_end.mtl
usemtl palette

# normals
vn -1 0 0
vn 1 0 0
vn 0 0 1
vn 0 0 -1
vn 0 -1 0
vn 0 1 0

# texcoords
vt 0.0175781 0.5
vt 0.533203 0.5
vt 0.873047 0.5
vt 0.958984 0.5
vt 0.986328 0.5
vt 0.994141 0.5

# verts
v -10.8 0 -1.9
v -10.8 0 -5.9
v -10.8 0.1 -1.9
v -10.8 0.1 -5.4
v -10.8 0.1 -5.9
v -10.8 0.2 -5.4
v -10.8 0.2 -5.9
v -10.5 0.2 -5.5
v -10.5 0.2 -5.9
v -10.5 0.5 -5.5
v -10.5 0.5 -5.9
v -10.5 0.7 -5.5
v -10.5 0.7 -5.9
v -10.5 0.8 -5.5
v -10.5 0.8 -5.9
v -9.5 0.2 -5.5
v -9.5 0.2 -5.9
v -9.5 0.5 -5.5
v -9.5 0.5 -5.9
v -9.5 0.7 -5.5
v -9.5 0.7 -5.9
v -9.5 0.8 -5.5
v -9.5 0.8 -5.9
v -8.5 0.2 -5.5
v -8.5 0.2 -5.9
v -8.5 0.5 -5.5
v -8.5 0.5 -5.9
v -8.5 0.7 -5.5
v -8.5 0.7 -5.9
v -8.5 0.8 -5.5
v -8.5 0.8 -5.9
v -7.5 0.2 -5.5
v -7.5 0.2 -5.9
v -7.5 0.5 -5.5
v -7.5 0.5 -5.9
v -7.5 0.7 -5.5
v -7.5 0.7 -5.9
v -7.5 0.8 -5.5
v -7.5 0.8 -5.9
v -10.1 0.2 -5.5
v -10.1 0.2 -5.9
v -10.1 0.5 -5.5
v -10.1 0.5 -5.9
v -10.1 0.7 -5.5
v -10.1 0.7 -5.9
v -10.1 0.8 -5.5
v -10.1 0.8 -5.9
v -9.1 0.2 -5.5
v -9.1 0.2 -5.9
v -9.1 0.5 -5.5
v -9.1 0.5 -5.9
v -9.1 0.7 -5.5
v -9.1 0.7 -5.9
v -9.1 0.8 -5.5
v -9.1 0.8 -5.9
v -8.1 0.2 -5.5
v -8.1 0.2 -5.9
v -8.1 0.5 -5.5
v -8.1 0.5 -5.9
v -8.1 0.7 -5.5
v -8.1 0.7 -5.9
v -8.1 0.8 -5.5
v -8.1 0.8 -5.9
v -7.1 0.2 -5.5
v -7.1 0.2 -5.9
v -7.1 0.5 -5.5
v -7.1 0.5 -5.9
v -7.1 0.7 -5.5
v -7.1 0.7 -5.9
v -7.1 0.8 -5.5
v -7.1 0.8 -5.9
v -6.8 0 -1.9
v -6.8 0 -5.9
v -6.8 0.1 -1.9
v -6.8 0.1 -5.4
v -6.8 0.1 -5.9
v -6.8 0.2 -5.4
v -6.8 0.2 -5.9
v -10.8 0 -1.9
v -10.8 0.1 -1.9
v -6.8 0 -1.9
v -6.8 0.1 -1.9
v -10.8 0.1 -5.4
v -10.8 0.2 -5.4
v -6.8 0.1 -5.4
v -6.8 0.2 -5.4
v -10.5 0.2 -5.5
v -10.5 0.5 -5.5
v -10.5 0.7 -5.5
v -10.5 0.8 -5.5
v -10.1 0.2 -5.5
v -10.1 0.5 -5.5
v -10.1 0.7 -5.5
v -10.1 0.8 -5.5
v -9.5 0.2 -5.5
v -9.5 0.5 -5.5
v -9.5 0.7 -5.5
v -9.5 0.8 -5.5
v -9.1 0.2 -5.5
v -9.1 0.5 -5.5
v -9.1 0.7 -5.5
v -9.1 0.8 -5.5
v -8.5 0.2 -5.5
v -8.5 0.5 -5.5
v -8.5 0.7 -5.5
v -8.5 0.8 -5.5
v -8.1 0.2 -5.5
v -8.1 0.5 -5.5
v -8.1 0.7 -5.5
v -8.1 0.8 -5.5
v -7.5 0.2 -5.5
v -7.5 0.5 -5.5
v -7.5 0.7 -5.5
v -7.5 0.8 -5.5
v -7.1 0.2 -5.5
v -7.1 0.5 -5.5
v -7.1 0.7 -5.5
v -7.1 0.8 -5.5
v -10.8 0 -5.9
v -10.8 0.1 -5.9
v -10.8 0.2 -5.9
v -10.5 0.1 -5.9
v -10.5 0.2 -5.9
v -10.5 0.5 -5.9
v -10.5 0.7 -5.9
v -10.5 0.8 -5.9
v -10.4 0.2 -5.9
v -10.4 0.5 -5.9
v -10.2 0.2 -5.9
v -10.2 0.5 -5.9
v -10.1 0.1 -5.9
v -10.1 0.2 -5.9
v -10.1 0.5 -5.9
v -10.1 0.7 -5.9
v -10.1 0.8 -5.9
v -9.5 0.1 -5.9
v -9.5 0.2 -5.9
v -9.5 0.5 -5.9
v -9.5 0.7 -5.9
v -9.5 0.8 -5.9
v -9.4 0.2 -5.9
v -9.4 0.5 -5.9
v -9.2 0.2 -5.9
v -9.2 0.5 -5.9
v -9.1 0.1 -5.9
v -9.1 0.2 -5.9
v -9.1 0.5 -5.9
v -9.1 0.7 -5.9
v -9.1 0.8 -5.9
v -8.5 0.1 -5.9
v -8.5 0.2 -5.9
v -8.5 0.5 -5.9
v -8.5 0.7 -5.9
v -8.5 0.8 -5.9
v -8.4 0.2 -5.9
v -8.4 0.5 -5.9
v -8.2 0.2 -5.9
v -8.2 0.5 -5.9
v -8.1 0.1 -5.9
v -8.1 0.2 -5.9
v -8.1 0.5 -5.9
v -8.1 0.7 -5.9
v -8.1 0.8 -5.9
v -7.5 0.1 -5.9
v -7.5 0.2 -5.9
v -7.5 0.5 -5.9
v -7.5 0.7 -5.9
v -7.5 0.8 -5.9
v -7.4 0.2 -5.9
v -7.4 0.5 -5.9
v -7.2 0.2 -5.9
v -7.2 0.5 -5.9
v -7.1 0.1 -5.9
v -7.1 0.2 -5.9
v -7.1 0.5 -5.9
v -7.1 0.7 -5.9
v -7.1 0.8 -5.9
v -6.8 0 -5.9
v -6.8 0.1 -5.9
v -6.8 0.2 -5.9
v -10.8 0 -1.9
v -6.8 0 -1.9
v -9 0 -2.2
v -8.8 0 -2.2
v -9 0 -2.9
v -8.8 0 -2.9
v -9 0 -3.4
v -8.8 0 -3.4
v -9 0 -4.1
v -8.8 0 -4.1
v -9 0 -4.5
v -8.8 0 -4.5
v -9 0 -5.2
v -8.8 0 -5.2
v -10.8 0 -5.9
v -6.8 0 -5.9
v -10.8 0.1 -1.9
v -6.8 0.1 -1.9
v -9 0.1 -2.2
v -8.8 0.1 -2.2
v -9 0.1 -2.9
v -8.8 0.1 -2.9
v -9 0.1 -3.4
v -8.8 0.1 -3.4
v -9 0.1 -4.1
v -8.8 0.1 -4.1
v -9 0.1 -4.5
v -8.8 0.1 -4.5
v -9 0.1 -5.2
v -8.8 0.1 -5.2
v -10.8 0.1 -5.4
v -6.8 0.1 -5.4
v -10.8 0.2 -5.4
v -6.8 0.2 -5.4
v -10.5 0.2 -5.5
v -10.1 0.2 -5.5
v -9.5 0.2 -5.5
v -9.1 0.2 -5.5
v -8.5 0.2 -5.5
v -8.1 0.2 -5.5
v -7.5 0.2 -5.5
v -7.1 0.2 -5.5
v -10.8 0.2 -5.9
v -10.5 0.2 -5.9
v -10.1 0.2 -5.9
v -9.5 0.2 -5.9
v -9.1 0.2 -5.9
v -8.5 0.2 -5.9
v -8.1 0.2 -5.9
v -7.5 0.2 -5.9
v -7.1 0.2 -5.9
v -6.8 0.2 -5.9
v -10.5 0.8 -5.5
v -10.1 0.8 -5.5
v -9.5 0.8 -5.5
v -9.1 0.8 -5.5
v -8.5 0.8 -5.5
v -8.1 0.8 -5.5
v -7.5 0.8 -5.5
v -7.1 0.8 -5.5
v -10.5 0.8 -5.9
v -10.1 0.8 -5.9
v -9.5 0.8 -5.9
v -9.1 0.8 -5.9
v -8.5 0.8 -5.9
v -8.1 0.8 -5.9
v -7.5 0.8 -5.9
v -7.1 0.8 -5.9

# faces
f 3/6/1 2/6/1 1/6/1
f 4/6/1 2/6/1 3/6/1
f 5/6/1 2/6/1 4/6/1
f 6/5/1 5/5/1 4/5/1
f 7/5/1 5/5/1 6/5/1
f 10/2/1 9/2/1 8/2/1
f 11/2/1 9/2/1 10/2/1
f 12/4/1 11/4/1 10/4/1
f 13/4/1 11/4/1 12/4/1
f 14/2/1 13/2/1 12/2/1
f 15/2/1 13/2/1 14/2/1
f 18/2/1 17/2/1 16/2/1
f 19/2/1 17/2/1 18/2/1
f 20/4/1 19/4/1 18/4/1
f 21/4/1 19/4/1 20/4/1
f 22/2/1 21/2/1 20/2/1
f 23/2/1 21/2/1 22/2/1
f 26/2/1 25/2/1 24/2/1
f 27/2/1 25/2/1 26/2/1
f 28/4/1 27/4/1 26/4/1
f 29/4/1 27/4/1 28/4/1
f 30/2/1 29/2/1 28/2/1
f 31/2/1 29/2/1 30/2/1
f 34/2/1 33/2/1 32/2/1
f 35/2/1 33/2/1 34/2/1
f 36/4/1 35/4/1 34/4/1
f 37/4/1 35/4/1 36/4/1
f 38/2/1 37/2/1 36/2/1
f 39/2/1 37/2/1 38/2/1
f 40/2/2 41/2/2 42/2/2
f 42/2/2 41/2/2 43/2/2
f 42/4/2 43/4/2 44/4/2
f 44/4/2 43/4/2 45/4/2
f 44/2/2 45/2/2 46/2/2
f 46/2/2 45/2/2 47/2/2
f 48/2/2 49/2/2 50/2/2
f 50/2/2 49/2/2 51/2/2
f 50/4/2 51/4/2 52/4/2
f 52/4/2 51/4/2 53/4/2
f 52/2/2 53/2/2 54/2/2
f 54/2/2 53/2/2 55/2/2
f 56/2/2 57/2/2 58/2/2
f 58/2/2 57/2/2 59/2/2
f 58/4/2 59/4/2 60/4/2
f 60/4/2 59/4/2 61/4/2
f 60/2/2 61/2/2 62/2/2
f 62/2/2 61/2/2 63/2/2
f 64/2/2 65/2/2 66/2/2
f 66/2/2 65/2/2 67/2/2
f 66/4/2 67/4/2 68/4/2
f 68/4/2 67/4/2 69/4/2
f 68/2/2 69/2/2 70/2/2
f 70/2/2 69/2/2 71/2/2
f 72/6/2 73/6/2 74/6/2
f 74/6/2 73/6/2 75/6/2
f 75/6/2 73/6/2 76/6/2
f 75/5/2 76/5/2 77/5/2
f 77/5/2 76/5/2 78/5/2
f 81/6/3 80/6/3 79/6/3
f 82/6/3 80/6/3 81/6/3
f 85/5/3 84/5/3 83/5/3
f 86/5/3 84/5/3 85/5/3
f 91/2/3 88/2/3 87/2/3
f 92/4/3 89/4/3 88/4/3
f 92/2/3 88/2/3 91/2/3
f 93/2/3 90/2/3 89/2/3
f 93/4/3 89/4/3 92/4/3
f 94/2/3 90/2/3 93/2/3
f 99/2/3 96/2/3 95/2/3
f 100/4/3 97/4/3 96/4/3
f 100/2/3 96/2/3 99/2/3
f 101/2/3 98/2/3 97/2/3
f 101/4/3 97/4/3 100/4/3
f 102/2/3 98/2/3 101/2/3
f 107/2/3 104/2/3 103/2/3
f 108/4/3 105/4/3 104/4/3
f 108/2/3 104/2/3 107/2/3
f 109/2/3 106/2/3 105/2/3
f 109/4/3 105/4/3 108/4/3
f 110/2/3 106/2/3 109/2/3
f 115/2/3 112/2/3 111/2/3
f 116/4/3 113/4/3 112/4/3
f 116/2/3 112/2/3 115/2/3
f 117/2/3 114/2/3 113/2/3
f 117/4/3 113/4/3 116/4/3
f 118/2/3 114/2/3 117/2/3
f 119/6/4 120/6/4 122/6/4
f 120/5/4 121/5/4 122/5/4
f 122/5/4 121/5/4 123/5/4
f 122/3/4 123/3/4 127/3/4
f 123/2/4 124/2/4 127/2/4
f 124/4/4 125/4/4 128/4/4
f 127/2/4 124/2/4 128/2/4
f 122/3/4 127/3/4 129/3/4
f 127/3/4 128/3/4 129/3/4
f 128/4/4 125/4/4 130/4/4
f 129/3/4 128/3/4 130/3/4
f 119/6/4 122/6/4 131/6/4
f 122/3/4 129/3/4 131/3/4
f 129/2/4 130/2/4 132/2/4
f 131/3/4 129/3/4 132/3/4
f 130/4/4 125/4/4 133/4/4
f 132/2/4 130/2/4 133/2/4
f 125/2/4 126/2/4 134/2/4
f 133/4/4 125/4/4 134/4/4
f 134/2/4 126/2/4 135/2/4
f 131/5/4 132/5/4 136/5/4
f 119/6/4 131/6/4 136/6/4
f 136/5/4 132/5/4 137/5/4
f 136/3/4 137/3/4 141/3/4
f 137/2/4 138/2/4 141/2/4
f 138/4/4 139/4/4 142/4/4
f 141/2/4 138/2/4 142/2/4
f 136/3/4 141/3/4 143/3/4
f 141/3/4 142/3/4 143/3/4
f 142/4/4 139/4/4 144/4/4
f 143/3/4 142/3/4 144/3/4
f 119/6/4 136/6/4 145/6/4
f 136/3/4 143/3/4 145/3/4
f 143/2/4 144/2/4 146/2/4
f 145/3/4 143/3/4 146/3/4
f 144/4/4 139/4/4 147/4/4
f 146/2/4 144/2/4 147/2/4
f 139/2/4 140/2/4 148/2/4
f 147/4/4 139/4/4 148/4/4
f 148/2/4 140/2/4 149/2/4
f 145/5/4 146/5/4 150/5/4
f 119/6/4 145/6/4 150/6/4
f 150/5/4 146/5/4 151/5/4
f 150/3/4 151/3/4 155/3/4
f 151/2/4 152/2/4 155/2/4
f 152/4/4 153/4/4 156/4/4
f 155/2/4 152/2/4 156/2/4
f 150/3/4 155/3/4 157/3/4
f 155/3/4 156/3/4 157/3/4
f 156/4/4 153/4/4 158/4/4
f 157/3/4 156/3/4 158/3/4
f 119/6/4 150/6/4 159/6/4
f 150/3/4 157/3/4 159/3/4
f 157/2/4 158/2/4 160/2/4
f 159/3/4 157/3/4 160/3/4
f 158/4/4 153/4/4 161/4/4
f 160/2/4 158/2/4 161/2/4
f 153/2/4 154/2/4 162/2/4
f 161/4/4 153/4/4 162/4/4
f 162/2/4 154/2/4 163/2/4
f 159/5/4 160/5/4 164/5/4
f 119/6/4 159/6/4 164/6/4
f 164/5/4 160/5/4 165/5/4
f 164/3/4 165/3/4 169/3/4
f 165/2/4 166/2/4 169/2/4
f 166/4/4 167/4/4 170/4/4
f 169/2/4 166/2/4 170/2/4
f 164/3/4 169/3/4 171/3/4
f 169/3/4 170/3/4 171/3/4
f 170/4/4 167/4/4 172/4/4
f 171/3/4 170/3/4 172/3/4
f 119/6/4 164/6/4 173/6/4
f 164/3/4 171/3/4 173/3/4
f 171/2/4 172/2/4 174/2/4
f 173/3/4 171/3/4 174/3/4
f 172/4/4 167/4/4 175/4/4
f 174/2/4 172/2/4 175/2/4
f 167/2/4 168/2/4 176/2/4
f 175/4/4 167/4/4 176/4/4
f 176/2/4 168/2/4 177/2/4
f 119/6/4 173/6/4 178/6/4
f 173/5/4 174/5/4 179/5/4
f 178/6/4 173/6/4 179/6/4
f 179/5/4 174/5/4 180/5/4
f 183/6/5 182/6/5 181/6/5
f 184/6/5 182/6/5 183/6/5
f 185/6/5 183/6/5 181/6/5
f 185/1/5 184/1/5 183/1/5
f 186/6/5 182/6/5 184/6/5
f 186/1/5 184/1/5 185/1/5
f 187/6/5 185/6/5 181/6/5
f 187/6/5 186/6/5 185/6/5
f 188/6/5 182/6/5 186/6/5
f 188/6/5 186/6/5 187/6/5
f 189/6/5 187/6/5 181/6/5
f 189/1/5 188/1/5 187/1/5
f 190/6/5 182/6/5 188/6/5
f 190/1/5 188/1/5 189/1/5
f 191/6/5 189/6/5 181/6/5
f 191/6/5 190/6/5 189/6/5
f 192/6/5 182/6/5 190/6/5
f 192/6/5 190/6/5 191/6/5
f 193/6/5 191/6/5 181/6/5
f 193/1/5 192/1/5 191/1/5
f 194/6/5 182/6/5 192/6/5
f 194/1/5 192/1/5 193/1/5
f 195/6/5 193/6/5 181/6/5
f 195/6/5 194/6/5 193/6/5
f 196/6/5 182/6/5 194/6/5
f 196/6/5 194/6/5 195/6/5
f 197/6/6 198/6/6 199/6/6
f 199/6/6 198/6/6 200/6/6
f 197/6/6 199/6/6 201/6/6
f 199/1/6 200/1/6 201/1/6
f 200/6/6 198/6/6 202/6/6
f 201/1/6 200/1/6 202/1/6
f 197/6/6 201/6/6 203/6/6
f 201/6/6 202/6/6 203/6/6
f 202/6/6 198/6/6 204/6/6
f 203/6/6 202/6/6 204/6/6
f 197/6/6 203/6/6 205/6/6
f 203/1/6 204/1/6 205/1/6
f 204/6/6 198/6/6 206/6/6
f 205/1/6 204/1/6 206/1/6
f 197/6/6 205/6/6 207/6/6
f 205/6/6 206/6/6 207/6/6
f 206/6/6 198/6/6 208/6/6
f 207/6/6 206/6/6 208/6/6
f 197/6/6 207/6/6 209/6/6
f 207/1/6 208/1/6 209/1/6
f 208/6/6 198/6/6 210/6/6
f 209/1/6 208/1/6 210/1/6
f 197/6/6 209/6/6 211/6/6
f 209/6/6 210/6/6 211/6/6
f 210/6/6 198/6/6 212/6/6
f 211/6/6 210/6/6 212/6/6
f 213/5/6 214/5/6 215/5/6
f 215/5/6 214/5/6 216/5/6
f 216/5/6 214/5/6 217/5/6
f 217/5/6 214/5/6 218/5/6
f 218/5/6 214/5/6 219/5/6
f 219/5/6 214/5/6 220/5/6
f 220/5/6 214/5/6 221/5/6
f 221/5/6 214/5/6 222/5/6
f 213/5/6 215/5/6 223/5/6
f 223/5/6 215/5/6 224/5/6
f 216/5/6 217/5/6 225/5/6
f 225/5/6 217/5/6 226/5/6
f 218/5/6 219/5/6 227/5/6
f 227/5/6 219/5/6 228/5/6
f 220/5/6 221/5/6 229/5/6
f 229/5/6 221/5/6 230/5/6
f 222/5/6 214/5/6 231/5/6
f 231/5/6 214/5/6 232/5/6
f 233/2/6 234/2/6 241/2/6
f 241/2/6 234/2/6 242/2/6
f 235/2/6 236/2/6 243/2/6
f 243/2/6 236/2/6 244/2/6
f 237/2/6 238/2/6 245/2/6
f 245/2/6 238/2/6 246/2/6
f 239/2/6 240/2/6 247/2/6
f 247/2/6 240/2/6 248/2/6
