# MagicaVoxel @ Ephtracy

# group
o 

# material
mtllib sidewalk.mtl
usemtl palette

# normals
vn -1 0 0
vn 1 0 0
vn 0 0 1
vn 0 0 -1
vn 0 -1 0
vn 0 1 0

# texcoords
vt 0.0644531 0.5
vt 0.986328 0.5

# verts
v -6.8 0 -2
v -6.8 0 -6
v -6.8 0.4 -2
v -6.8 0.4 -6
v -5.8 0.2 -2
v -5.8 0.2 -2.1
v -5.8 0.2 -2.5
v -5.8 0.2 -2.8
v -5.8 0.2 -3.2
v -5.8 0.2 -3.5
v -5.8 0.2 -3.9
v -5.8 0.2 -4.2
v -5.8 0.2 -4.6
v -5.8 0.2 -4.9
v -5.8 0.2 -5.3
v -5.8 0.2 -5.5
v -5.8 0.2 -5.9
v -5.8 0.2 -6
v -5.8 0.3 -2
v -5.8 0.3 -6
v -6.6 0.2 -2
v -6.6 0.2 -6
v -6.6 0.4 -2
v -6.6 0.4 -6
v -5.6 0 -2
v -5.6 0 -6
v -5.6 0.3 -2
v -5.6 0.3 -6
v -6.8 0 -2
v -6.8 0.4 -2
v -6.6 0.2 -2
v -6.6 0.4 -2
v -5.8 0.2 -2
v -5.8 0.3 -2
v -5.6 0 -2
v -5.6 0.3 -2
v -6.8 0 -6
v -6.8 0.4 -6
v -6.6 0.2 -6
v -6.6 0.4 -6
v -5.8 0.2 -6
v -5.8 0.3 -6
v -5.6 0 -6
v -5.6 0.3 -6
v -6.8 0 -2
v -5.6 0 -2
v -6.8 0 -6
v -5.6 0 -6
v -6.6 0.2 -2
v -5.8 0.2 -2
v -6.1 0.2 -2.1
v -5.8 0.2 -2.1
v -6.1 0.2 -2.5
v -5.8 0.2 -2.5
v -6.1 0.2 -2.8
v -5.8 0.2 -2.8
v -6.1 0.2 -3.2
v -5.8 0.2 -3.2
v -6.1 0.2 -3.5
v -5.8 0.2 -3.5
v -6.1 0.2 -3.9
v -5.8 0.2 -3.9
v -6.1 0.2 -4.2
v -5.8 0.2 -4.2
v -6.1 0.2 -4.6
v -5.8 0.2 -4.6
v -6.1 0.2 -4.9
v -5.8 0.2 -4.9
v -6.1 0.2 -5.3
v -5.8 0.2 -5.3
v -6.1 0.2 -5.5
v -5.8 0.2 -5.5
v -6.1 0.2 -5.9
v -5.8 0.2 -5.9
v -6.6 0.2 -6
v -5.8 0.2 -6
v -5.8 0.3 -2
v -5.6 0.3 -2
v -5.8 0.3 -6
v -5.6 0.3 -6
v -6.8 0.4 -2
v -6.6 0.4 -2
v -6.8 0.4 -6
v -6.6 0.4 -6

# faces
f 3/2/1 2/2/1 1/2/1
f 4/2/1 2/2/1 3/2/1
f 19/2/1 6/2/1 5/2/1
f 19/2/1 18/2/1 17/2/1
f 19/2/1 17/2/1 16/2/1
f 19/2/1 16/2/1 15/2/1
f 19/2/1 15/2/1 14/2/1
f 19/2/1 14/2/1 13/2/1
f 19/2/1 13/2/1 12/2/1
f 19/2/1 12/2/1 11/2/1
f 19/2/1 11/2/1 10/2/1
f 19/2/1 10/2/1 9/2/1
f 19/2/1 9/2/1 8/2/1
f 19/2/1 8/2/1 7/2/1
f 19/2/1 7/2/1 6/2/1
f 20/2/1 18/2/1 19/2/1
f 21/2/2 22/2/2 23/2/2
f 23/2/2 22/2/2 24/2/2
f 25/2/2 26/2/2 27/2/2
f 27/2/2 26/2/2 28/2/2
f 31/2/3 30/2/3 29/2/3
f 32/2/3 30/2/3 31/2/3
f 33/2/3 31/2/3 29/2/3
f 35/2/3 33/2/3 29/2/3
f 35/2/3 34/2/3 33/2/3
f 36/2/3 34/2/3 35/2/3
f 37/2/4 38/2/4 39/2/4
f 39/2/4 38/2/4 40/2/4
f 37/2/4 39/2/4 41/2/4
f 37/2/4 41/2/4 43/2/4
f 41/2/4 42/2/4 43/2/4
f 43/2/4 42/2/4 44/2/4
f 47/2/5 46/2/5 45/2/5
f 48/2/5 46/2/5 47/2/5
f 49/2/6 50/2/6 51/2/6
f 51/2/6 50/2/6 52/2/6
f 49/2/6 51/2/6 53/2/6
f 51/1/6 52/1/6 53/1/6
f 53/1/6 52/1/6 54/1/6
f 49/2/6 53/2/6 55/2/6
f 53/2/6 54/2/6 55/2/6
f 55/2/6 54/2/6 56/2/6
f 49/2/6 55/2/6 57/2/6
f 55/1/6 56/1/6 57/1/6
f 57/1/6 56/1/6 58/1/6
f 49/2/6 57/2/6 59/2/6
f 57/2/6 58/2/6 59/2/6
f 59/2/6 58/2/6 60/2/6
f 49/2/6 59/2/6 61/2/6
f 59/1/6 60/1/6 61/1/6
f 61/1/6 60/1/6 62/1/6
f 49/2/6 61/2/6 63/2/6
f 61/2/6 62/2/6 63/2/6
f 63/2/6 62/2/6 64/2/6
f 49/2/6 63/2/6 65/2/6
f 63/1/6 64/1/6 65/1/6
f 65/1/6 64/1/6 66/1/6
f 49/2/6 65/2/6 67/2/6
f 65/2/6 66/2/6 67/2/6
f 67/2/6 66/2/6 68/2/6
f 49/2/6 67/2/6 69/2/6
f 67/1/6 68/1/6 69/1/6
f 69/1/6 68/1/6 70/1/6
f 49/2/6 69/2/6 71/2/6
f 69/2/6 70/2/6 71/2/6
f 71/2/6 70/2/6 72/2/6
f 49/2/6 71/2/6 73/2/6
f 71/1/6 72/1/6 73/1/6
f 73/1/6 72/1/6 74/1/6
f 49/2/6 73/2/6 75/2/6
f 73/2/6 74/2/6 75/2/6
f 75/2/6 74/2/6 76/2/6
f 77/2/6 78/2/6 79/2/6
f 79/2/6 78/2/6 80/2/6
f 81/2/6 82/2/6 83/2/6
f 83/2/6 82/2/6 84/2/6
