# MagicaVoxel @ Ephtracy

# group
o 

# material
mtllib Trees-0.mtl
usemtl palette

# normals
vn -1 0 0
vn 1 0 0
vn 0 0 1
vn 0 0 -1
vn 0 -1 0
vn 0 1 0

# texcoords
vt 0.509766 0.5
vt 0.533203 0.5
vt 0.626953 0.5
vt 0.650391 0.5

# verts
v 5.2 2.1 0.7
v 5.2 2.1 -0.7
v 5.2 2.5 0.7
v 5.2 2.5 -0.7
v 5.2 2.8 0.7
v 5.2 2.8 -0.7
v 5.2 2.9 0.7
v 5.2 2.9 -0.7
v 5.2 3 0.7
v 5.2 3 -0.7
v 5.2 3.3 0.7
v 5.2 3.3 -0.7
v 5.2 3.6 0.7
v 5.2 3.6 -0.7
v 5.2 3.9 0.7
v 5.2 3.9 -0.7
v 5.2 4 0.7
v 5.2 4 -0.7
v 5.2 4.2 0.7
v 5.2 4.2 -0.7
v 5.2 4.4 0.7
v 5.2 4.4 -0.7
v 5.7 0 0.2
v 5.7 0 0.1
v 5.7 0 -0.2
v 5.7 0.1 0.2
v 5.7 0.1 0.1
v 5.7 0.3 0
v 5.7 0.3 -0.2
v 5.7 0.5 0.2
v 5.7 0.5 0
v 5.7 0.6 -0.1
v 5.7 0.6 -0.2
v 5.7 0.7 0.1
v 5.7 0.7 -0.1
v 5.7 0.8 0.2
v 5.7 0.8 0.1
v 5.7 1.1 0.2
v 5.7 1.1 -0.1
v 5.7 1.2 0.2
v 5.7 1.2 0.1
v 5.7 1.2 -0.1
v 5.7 1.2 -0.2
v 5.7 1.3 0.1
v 5.7 1.3 -0.1
v 5.7 1.4 -0.1
v 5.7 1.4 -0.2
v 5.7 1.9 0.1
v 5.7 1.9 -0.2
v 5.7 2 0.2
v 5.7 2 0.1
v 5.7 2.1 0.2
v 5.7 2.1 -0.2
v 6.1 0 0.2
v 6.1 0 -0.2
v 6.1 0.1 0
v 6.1 0.1 -0.2
v 6.1 0.2 0.2
v 6.1 0.2 0
v 6.1 0.4 -0.1
v 6.1 0.4 -0.2
v 6.1 0.5 0.1
v 6.1 0.5 -0.1
v 6.1 0.6 0.2
v 6.1 0.6 0.1
v 6.1 0.7 0.1
v 6.1 0.7 -0.2
v 6.1 0.8 0.2
v 6.1 0.8 0.1
v 6.1 1.1 0.2
v 6.1 1.1 -0.2
v 6.1 1.2 0.2
v 6.1 1.2 0.1
v 6.1 1.3 0.1
v 6.1 1.3 -0.2
v 6.1 1.9 0.2
v 6.1 1.9 0.1
v 6.1 2 0.1
v 6.1 2 -0.1
v 6.1 2.1 0.2
v 6.1 2.1 -0.1
v 6.1 2.1 -0.2
v 6.6 2.1 0.7
v 6.6 2.1 -0.7
v 6.6 2.5 0.7
v 6.6 2.5 -0.7
v 6.6 2.8 0.7
v 6.6 2.8 -0.7
v 6.6 2.9 0.7
v 6.6 2.9 -0.7
v 6.6 3 0.7
v 6.6 3 -0.7
v 6.6 3.3 0.7
v 6.6 3.3 -0.7
v 6.6 3.6 0.7
v 6.6 3.6 -0.7
v 6.6 3.9 0.7
v 6.6 3.9 -0.7
v 6.6 4 0.7
v 6.6 4 -0.7
v 6.6 4.2 0.7
v 6.6 4.2 -0.7
v 6.6 4.4 0.7
v 6.6 4.4 -0.7
v 5.2 2.1 0.7
v 5.2 2.5 0.7
v 5.2 2.8 0.7
v 5.2 2.9 0.7
v 5.2 3 0.7
v 5.2 3.3 0.7
v 5.2 3.6 0.7
v 5.2 3.9 0.7
v 5.2 4 0.7
v 5.2 4.2 0.7
v 5.2 4.4 0.7
v 6.6 2.1 0.7
v 6.6 2.5 0.7
v 6.6 2.8 0.7
v 6.6 2.9 0.7
v 6.6 3 0.7
v 6.6 3.3 0.7
v 6.6 3.6 0.7
v 6.6 3.9 0.7
v 6.6 4 0.7
v 6.6 4.2 0.7
v 6.6 4.4 0.7
v 5.7 0 0.2
v 5.7 0.1 0.2
v 5.7 0.5 0.2
v 5.7 0.8 0.2
v 5.7 1.1 0.2
v 5.7 1.2 0.2
v 5.7 2 0.2
v 5.7 2.1 0.2
v 5.8 0.5 0.2
v 5.8 0.6 0.2
v 5.9 0.1 0.2
v 5.9 0.2 0.2
v 5.9 1.9 0.2
v 5.9 2 0.2
v 6.1 0 0.2
v 6.1 0.2 0.2
v 6.1 0.6 0.2
v 6.1 0.8 0.2
v 6.1 1.1 0.2
v 6.1 1.2 0.2
v 6.1 1.9 0.2
v 6.1 2.1 0.2
v 5.7 0 -0.2
v 5.7 0.3 -0.2
v 5.7 0.6 -0.2
v 5.7 1.2 -0.2
v 5.7 1.4 -0.2
v 5.7 1.9 -0.2
v 5.7 2.1 -0.2
v 5.8 0.5 -0.2
v 5.8 0.6 -0.2
v 5.9 0.3 -0.2
v 5.9 0.4 -0.2
v 5.9 0.5 -0.2
v 5.9 0.6 -0.2
v 5.9 1.3 -0.2
v 5.9 1.4 -0.2
v 5.9 1.9 -0.2
v 5.9 2 -0.2
v 6 0 -0.2
v 6 0.1 -0.2
v 6 0.6 -0.2
v 6 0.7 -0.2
v 6 1.1 -0.2
v 6 1.2 -0.2
v 6 2 -0.2
v 6 2.1 -0.2
v 6.1 0 -0.2
v 6.1 0.1 -0.2
v 6.1 0.4 -0.2
v 6.1 0.7 -0.2
v 6.1 1.1 -0.2
v 6.1 1.3 -0.2
v 6.1 2.1 -0.2
v 5.2 2.1 -0.7
v 5.2 2.5 -0.7
v 5.2 2.8 -0.7
v 5.2 2.9 -0.7
v 5.2 3 -0.7
v 5.2 3.3 -0.7
v 5.2 3.6 -0.7
v 5.2 3.9 -0.7
v 5.2 4 -0.7
v 5.2 4.2 -0.7
v 5.2 4.4 -0.7
v 6.6 2.1 -0.7
v 6.6 2.5 -0.7
v 6.6 2.8 -0.7
v 6.6 2.9 -0.7
v 6.6 3 -0.7
v 6.6 3.3 -0.7
v 6.6 3.6 -0.7
v 6.6 3.9 -0.7
v 6.6 4 -0.7
v 6.6 4.2 -0.7
v 6.6 4.4 -0.7
v 5.7 0 0.2
v 6.1 0 0.2
v 5.7 0 0.1
v 6 0 0.1
v 5.7 0 -0.2
v 6 0 -0.2
v 6.1 0 -0.2
v 5.2 2.1 0.7
v 6.6 2.1 0.7
v 5.7 2.1 0.2
v 6.1 2.1 0.2
v 6.1 2.1 -0.1
v 5.7 2.1 -0.2
v 6 2.1 -0.2
v 6.1 2.1 -0.2
v 5.2 2.1 -0.7
v 6.6 2.1 -0.7
v 5.2 4.4 0.7
v 6.6 4.4 0.7
v 5.2 4.4 -0.7
v 6.6 4.4 -0.7

# faces
f 3/3/1 2/3/1 1/3/1
f 4/3/1 2/3/1 3/3/1
f 5/4/1 4/4/1 3/4/1
f 6/4/1 4/4/1 5/4/1
f 7/3/1 6/3/1 5/3/1
f 8/3/1 6/3/1 7/3/1
f 9/4/1 8/4/1 7/4/1
f 10/4/1 8/4/1 9/4/1
f 11/3/1 10/3/1 9/3/1
f 12/3/1 10/3/1 11/3/1
f 13/4/1 12/4/1 11/4/1
f 14/4/1 12/4/1 13/4/1
f 15/3/1 14/3/1 13/3/1
f 16/3/1 14/3/1 15/3/1
f 17/4/1 16/4/1 15/4/1
f 18/4/1 16/4/1 17/4/1
f 19/3/1 18/3/1 17/3/1
f 20/3/1 18/3/1 19/3/1
f 21/4/1 20/4/1 19/4/1
f 22/4/1 20/4/1 21/4/1
f 26/1/1 24/1/1 23/1/1
f 27/2/1 25/2/1 24/2/1
f 27/1/1 24/1/1 26/1/1
f 28/2/1 27/2/1 26/2/1
f 28/2/1 25/2/1 27/2/1
f 29/2/1 25/2/1 28/2/1
f 30/2/1 28/2/1 26/2/1
f 31/1/1 29/1/1 28/1/1
f 31/2/1 28/2/1 30/2/1
f 32/1/1 31/1/1 30/1/1
f 32/1/1 29/1/1 31/1/1
f 33/1/1 29/1/1 32/1/1
f 34/1/1 32/1/1 30/1/1
f 35/2/1 33/2/1 32/2/1
f 35/1/1 32/1/1 34/1/1
f 36/1/1 34/1/1 30/1/1
f 37/2/1 35/2/1 34/2/1
f 37/1/1 34/1/1 36/1/1
f 38/2/1 37/2/1 36/2/1
f 39/2/1 33/2/1 35/2/1
f 39/2/1 37/2/1 38/2/1
f 39/2/1 35/2/1 37/2/1
f 40/1/1 39/1/1 38/1/1
f 41/1/1 39/1/1 40/1/1
f 42/2/1 33/2/1 39/2/1
f 42/1/1 39/1/1 41/1/1
f 43/2/1 33/2/1 42/2/1
f 44/2/1 41/2/1 40/2/1
f 44/1/1 42/1/1 41/1/1
f 44/1/1 43/1/1 42/1/1
f 45/1/1 43/1/1 44/1/1
f 46/2/1 45/2/1 44/2/1
f 46/1/1 43/1/1 45/1/1
f 47/1/1 43/1/1 46/1/1
f 48/2/1 44/2/1 40/2/1
f 48/2/1 46/2/1 44/2/1
f 48/2/1 47/2/1 46/2/1
f 49/2/1 47/2/1 48/2/1
f 50/2/1 48/2/1 40/2/1
f 51/1/1 49/1/1 48/1/1
f 51/2/1 48/2/1 50/2/1
f 52/1/1 51/1/1 50/1/1
f 53/1/1 49/1/1 51/1/1
f 53/1/1 51/1/1 52/1/1
f 54/1/2 55/1/2 56/1/2
f 56/1/2 55/1/2 57/1/2
f 54/1/2 56/1/2 58/1/2
f 56/2/2 57/2/2 59/2/2
f 58/1/2 56/1/2 59/1/2
f 58/2/2 59/2/2 60/2/2
f 59/2/2 57/2/2 60/2/2
f 60/2/2 57/2/2 61/2/2
f 58/2/2 60/2/2 62/2/2
f 60/1/2 61/1/2 63/1/2
f 62/2/2 60/2/2 63/2/2
f 58/2/2 62/2/2 64/2/2
f 62/1/2 63/1/2 65/1/2
f 64/2/2 62/2/2 65/2/2
f 64/1/2 65/1/2 66/1/2
f 65/1/2 63/1/2 66/1/2
f 63/1/2 61/1/2 67/1/2
f 66/1/2 63/1/2 67/1/2
f 64/1/2 66/1/2 68/1/2
f 66/2/2 67/2/2 69/2/2
f 68/1/2 66/1/2 69/1/2
f 68/2/2 69/2/2 70/2/2
f 69/2/2 67/2/2 71/2/2
f 70/2/2 69/2/2 71/2/2
f 70/1/2 71/1/2 72/1/2
f 72/1/2 71/1/2 73/1/2
f 72/2/2 73/2/2 74/2/2
f 73/1/2 71/1/2 74/1/2
f 74/1/2 71/1/2 75/1/2
f 72/2/2 74/2/2 76/2/2
f 74/2/2 75/2/2 76/2/2
f 76/2/2 75/2/2 77/2/2
f 76/1/2 77/1/2 78/1/2
f 77/2/2 75/2/2 78/2/2
f 78/2/2 75/2/2 79/2/2
f 76/1/2 78/1/2 80/1/2
f 78/1/2 79/1/2 80/1/2
f 79/2/2 75/2/2 81/2/2
f 80/1/2 79/1/2 81/1/2
f 81/2/2 75/2/2 82/2/2
f 83/3/2 84/3/2 85/3/2
f 85/3/2 84/3/2 86/3/2
f 85/4/2 86/4/2 87/4/2
f 87/4/2 86/4/2 88/4/2
f 87/3/2 88/3/2 89/3/2
f 89/3/2 88/3/2 90/3/2
f 89/4/2 90/4/2 91/4/2
f 91/4/2 90/4/2 92/4/2
f 91/3/2 92/3/2 93/3/2
f 93/3/2 92/3/2 94/3/2
f 93/4/2 94/4/2 95/4/2
f 95/4/2 94/4/2 96/4/2
f 95/3/2 96/3/2 97/3/2
f 97/3/2 96/3/2 98/3/2
f 97/4/2 98/4/2 99/4/2
f 99/4/2 98/4/2 100/4/2
f 99/3/2 100/3/2 101/3/2
f 101/3/2 100/3/2 102/3/2
f 101/4/2 102/4/2 103/4/2
f 103/4/2 102/4/2 104/4/2
f 116/3/3 106/3/3 105/3/3
f 117/4/3 107/4/3 106/4/3
f 117/3/3 106/3/3 116/3/3
f 118/3/3 108/3/3 107/3/3
f 118/4/3 107/4/3 117/4/3
f 119/4/3 109/4/3 108/4/3
f 119/3/3 108/3/3 118/3/3
f 120/3/3 110/3/3 109/3/3
f 120/4/3 109/4/3 119/4/3
f 121/4/3 111/4/3 110/4/3
f 121/3/3 110/3/3 120/3/3
f 122/3/3 112/3/3 111/3/3
f 122/4/3 111/4/3 121/4/3
f 123/4/3 113/4/3 112/4/3
f 123/3/3 112/3/3 122/3/3
f 124/3/3 114/3/3 113/3/3
f 124/4/3 113/4/3 123/4/3
f 125/4/3 115/4/3 114/4/3
f 125/3/3 114/3/3 124/3/3
f 126/4/3 115/4/3 125/4/3
f 135/2/3 129/2/3 128/2/3
f 135/1/3 130/1/3 129/1/3
f 136/1/3 130/1/3 135/1/3
f 137/1/3 128/1/3 127/1/3
f 137/2/3 135/2/3 128/2/3
f 137/2/3 136/2/3 135/2/3
f 138/2/3 136/2/3 137/2/3
f 139/2/3 133/2/3 132/2/3
f 140/1/3 134/1/3 133/1/3
f 140/2/3 133/2/3 139/2/3
f 141/1/3 137/1/3 127/1/3
f 141/1/3 138/1/3 137/1/3
f 142/2/3 136/2/3 138/2/3
f 142/1/3 138/1/3 141/1/3
f 143/1/3 130/1/3 136/1/3
f 143/2/3 136/2/3 142/2/3
f 144/2/3 131/2/3 130/2/3
f 144/1/3 130/1/3 143/1/3
f 145/1/3 132/1/3 131/1/3
f 145/2/3 131/2/3 144/2/3
f 146/2/3 139/2/3 132/2/3
f 146/1/3 132/1/3 145/1/3
f 147/1/3 140/1/3 139/1/3
f 147/2/3 139/2/3 146/2/3
f 148/1/3 134/1/3 140/1/3
f 148/1/3 140/1/3 147/1/3
f 150/1/4 151/1/4 156/1/4
f 151/2/4 152/2/4 157/2/4
f 156/1/4 151/1/4 157/1/4
f 149/2/4 150/2/4 158/2/4
f 150/1/4 156/1/4 158/1/4
f 158/1/4 156/1/4 159/1/4
f 156/2/4 157/2/4 160/2/4
f 159/1/4 156/1/4 160/1/4
f 157/2/4 152/2/4 161/2/4
f 160/2/4 157/2/4 161/2/4
f 152/1/4 153/1/4 162/1/4
f 153/2/4 154/2/4 163/2/4
f 162/1/4 153/1/4 163/1/4
f 154/1/4 155/1/4 164/1/4
f 163/2/4 154/2/4 164/2/4
f 164/1/4 155/1/4 165/1/4
f 158/2/4 159/2/4 166/2/4
f 149/2/4 158/2/4 166/2/4
f 166/2/4 159/2/4 167/2/4
f 159/1/4 160/1/4 168/1/4
f 161/2/4 152/2/4 168/2/4
f 160/1/4 161/1/4 168/1/4
f 168/2/4 152/2/4 169/2/4
f 169/2/4 152/2/4 170/2/4
f 152/1/4 162/1/4 171/1/4
f 170/2/4 152/2/4 171/2/4
f 162/2/4 163/2/4 172/2/4
f 165/1/4 155/1/4 172/1/4
f 164/2/4 165/2/4 172/2/4
f 163/2/4 164/2/4 172/2/4
f 172/1/4 155/1/4 173/1/4
f 166/1/4 167/1/4 174/1/4
f 167/2/4 159/2/4 175/2/4
f 174/1/4 167/1/4 175/1/4
f 168/1/4 169/1/4 176/1/4
f 175/2/4 159/2/4 176/2/4
f 159/1/4 168/1/4 176/1/4
f 169/2/4 170/2/4 177/2/4
f 176/1/4 169/1/4 177/1/4
f 170/1/4 171/1/4 178/1/4
f 177/2/4 170/2/4 178/2/4
f 171/1/4 162/1/4 179/1/4
f 178/1/4 171/1/4 179/1/4
f 172/2/4 173/2/4 179/2/4
f 162/2/4 172/2/4 179/2/4
f 179/2/4 173/2/4 180/2/4
f 181/3/4 182/3/4 192/3/4
f 182/4/4 183/4/4 193/4/4
f 192/3/4 182/3/4 193/3/4
f 183/3/4 184/3/4 194/3/4
f 193/4/4 183/4/4 194/4/4
f 184/4/4 185/4/4 195/4/4
f 194/3/4 184/3/4 195/3/4
f 185/3/4 186/3/4 196/3/4
f 195/4/4 185/4/4 196/4/4
f 186/4/4 187/4/4 197/4/4
f 196/3/4 186/3/4 197/3/4
f 187/3/4 188/3/4 198/3/4
f 197/4/4 187/4/4 198/4/4
f 188/4/4 189/4/4 199/4/4
f 198/3/4 188/3/4 199/3/4
f 189/3/4 190/3/4 200/3/4
f 199/4/4 189/4/4 200/4/4
f 190/4/4 191/4/4 201/4/4
f 200/3/4 190/3/4 201/3/4
f 201/4/4 191/4/4 202/4/4
f 205/1/5 204/1/5 203/1/5
f 206/1/5 204/1/5 205/1/5
f 207/2/5 206/2/5 205/2/5
f 208/1/5 204/1/5 206/1/5
f 208/2/5 206/2/5 207/2/5
f 209/1/5 204/1/5 208/1/5
f 212/3/5 211/3/5 210/3/5
f 213/3/5 211/3/5 212/3/5
f 214/3/5 211/3/5 213/3/5
f 215/3/5 212/3/5 210/3/5
f 217/3/5 211/3/5 214/3/5
f 218/3/5 216/3/5 215/3/5
f 218/3/5 217/3/5 216/3/5
f 218/3/5 215/3/5 210/3/5
f 219/3/5 211/3/5 217/3/5
f 219/3/5 217/3/5 218/3/5
f 220/4/6 221/4/6 222/4/6
f 222/4/6 221/4/6 223/4/6
